<svg xmlns="http://www.w3.org/2000/svg" viewBox="0 0 24 16"><path d="M21.79 12.92l-.4.73c-.96 1.47-2.46 2.1-3.89 2.16s-1.83-.55-2.18-.8c-.35-.26-.84-1.45-.84-1.45v-.32a17.08 17.08 0 0 1-4.53 1.13l-.3.75s-5.2.3-7.23.71l1.63-2.69a3.3 3.3 0 0 1-1.1-1.5C2 8.9 5.1 5.35 9.91 3.6l2.2-3.6.98 1.54c1.41.26 1.65 1.09 1.65 1.09 3.05-.1 5.49.9 6.14 2.8.41 1.18.05 2.53-.9 3.83 0 0 1.76 1.07 1.8 3.61v.05z" fill="#236192"/><path d="M17.27 8.15L14.8 4.2c.13-.22.13-.64.13-.64 2.7.17 4.75 1.25 5.17 2.96.2.81.01 1.66-.48 2.48 0 0-.88-.6-2.34-.84z" fill="#FFF"/><path d="M20.72 11.93c-.2.28-.41.54-.41.54l-.28.3-.09 1.05-.17-.02c-.04-.1-.25-.42-.33-.5a4.87 4.87 0 0 1-2.32.96c-1.31.25-2.17-.27-2.17-.27.16.39.58.89.58.89.63.76 1.7.71 1.7.71a4.8 4.8 0 0 0 4.15-2.32h-.2a4.26 4.26 0 0 0-.46-1.34z" fill="#111"/><path d="M18.18 14.63c-.58.17-2.14.52-2.87-.29 0 0 .89.73 3.03.02l-.16.27z" fill="#A2AAAD"/><path d="M18.67 14.8c-2.15.71-3.03-.03-3.03-.03.9 1.02 3.1.22 3.1.22.33-.1.67-.3.86-.42l.11-.29c-.28.26-1.04.52-1.04.52z" fill="#A2AAAD"/><path d="M8.8 4.91C6.98 6.08 5.66 7.55 5.42 9.93l.2-.16c0 .65.4 2.21 2.26 2.29s2.71-.5 3.34-.6c.62-.12 1.87-.27 2.9-.12 1.02.15 2.87.56 3.54 2.3-.42.14-1.28.27-1.75.21-.48-.05-1.07-.27-1.14-.82-.04.62.46.93 1 .99s1.2 0 2.06-.21c.18-.25.18-.62.2-.8.19.14.33.4.37.53.16-.26-.04-.83-.16-1.06.25.16.57.68.6.8l.13-.16a4.14 4.14 0 0 0-.68-1.25l-.47.3a4.15 4.15 0 0 0-2.26-1.53 8.66 8.66 0 0 0-2.95-.29c.64-.3 2.1-.42 2.97-.22.86.2 1.63.52 2.44 1.48l.42-.3c.45.4 1.35 1.68 1.5 2.51h.08s.04-1.64-.01-2.23c.13.11.3.3.35.38.15-.2.04-.7 0-.91.26.28.88 1.21 1.01 2.2.1-.33.07-.7.06-.83a4.44 4.44 0 0 0-.3-1.04 4.12 4.12 0 0 0-1.26-1.82 4.9 4.9 0 0 0-3.16-1.25c-1.34-.07-3.37.69-3.9.9-.55.23-2 .86-2.99 1s-1.5.21-1.82-.13l-.1.15c-.41-.13-.89-.82-.95-1.27-.06-.45-.1-.93.37-1.94C7.8 6.02 8.6 5.15 8.8 4.91z" fill="#FFF"/><path d="M6.8 7.22c-.37.64-.88 2.05-.4 3 .47.95 1.9 1.07 2.82.89.92-.18 2.02-.6 2.48-.8.47-.19 1.4-.62 2.4-.78 1-.17 1.75-.14 2.55.24.8.37 1.27.63 1.94 1.32l.27-.14.56.59.12-.89.33-.51a2.74 2.74 0 0 0-2.09-1.48c.4.18 1.24.51 1.78 1.47l-.24.41-.03.43-.38-.41-.2.13a4 4 0 0 0-1.97-1.25 6.26 6.26 0 0 0-3.3-.05c-.94.25-1.51.51-1.78.63s-.75.36-1.38.54c-.64.18-1.27.32-2.04.2-.77-.1-1.44-.47-1.63-1.32s-.06-1.26.18-2.22z" fill="#236192"/><path d="M10.5 12.9l-.22.58c.86.04 2.83-.34 4.02-.76-.48-.28-1.73-.54-3.8.18z" fill="#FFF"/><path d="M7.38 8.26L12.12.52l4.82 7.6c-.3-.04-.83 0-1.08.04a16.63 16.63 0 0 0-3.54 1.03c-.25.1-.86.35-1.1.43-.22.08-.67.23-1.12.32-.45.1-.88.18-1.33.14a1.35 1.35 0 0 1-.87-.36c-.15-.13-.4-.46-.48-.89-.06-.35-.05-.5-.04-.57z" fill="#A2AAAD"/><path d="M12.13 1.03L16.6 8.1c-.27 0-.57.03-.74.06a16.63 16.63 0 0 0-3.54 1.03c-.25.1-.86.35-1.1.43-.22.08-.67.23-1.12.32-.45.1-.88.18-1.33.14a1.35 1.35 0 0 1-.87-.36c-.15-.13-.4-.46-.48-.89l-.01-.1 4.72-7.7zm-3.19 8.8c1.17.15 3.75-1.05 3.75-1.05 2.39-.92 3.18-.83 3.18-.83-.88-.33-3.11.58-3.11.58l-.6-1.93-.97 2.58c-1.69.62-2.25.66-2.25.66z" fill="#6F263D"/><path fill="#236192" d="M11.53 9.03l.96-.4-.37-1.17z"/><path d="M4.73 12.04a2.97 2.97 0 0 1-.97-1.52c-.52-2.16 1.7-4.62 5.18-5.98 0 0-2.7 1.22-3.84 3.88a3.7 3.7 0 0 0 0 3.02l-.37.6z" fill="#FFF"/><path d="M9.08 4.55l.08-.12A9.87 9.87 0 0 0 6.15 6.7a7.07 7.07 0 0 0-.97 1.53c-.23.5-.38.99-.41 1.83s.5 1.66.5 1.66l-2.33 3.77.9-.14 1.27-.15a62.3 62.3 0 0 1 1.8-.17c.4-.02 1.59-.12 2.56-.16l.85-2.25c.38-.09.63-.22 1.26-.35a5.78 5.78 0 0 1 4.44.92c-.24-.41-.75-.8-1.55-1.06a6.37 6.37 0 0 0-3.83.06c-.42.12-.83.31-1.35.42-.51.11-1 .2-1.5.15s-1.26-.1-1.95-.77-.85-1.47-.78-2.39c.07-.92.72-2.2 1.5-3.07s1.98-1.71 2.52-1.98z" fill="#A2AAAD"/><path d="M10.02 12.7l-.72 1.9c-3.38.2-5.8.53-5.8.53l1.94-3.17A3.06 3.06 0 0 0 8 13.04a9.3 9.3 0 0 0 2.02-.34z" fill="#6F263D"/><path d="M14.6 3.8c.49-2.28-2.49-2.3-2.49-2.3l-.13.64-.46.14-.28 1.03-.37.3-.54.88s3.4-2.54 4.27-.69z" fill="#FFF"/><path d="M11.68 2.99l.04-.2s1.75-.57 2.5.14c0 0-.78-.6-2.54.06z" fill="#236192"/><path d="M11.1 3.6s2.5-1.6 3.43-.09c0 0-.52-1.36-3.6.37l.18-.28z" fill="#A2AAAD"/><path d="M20.8 9.2c0-.18.15-.32.33-.32a.33.33 0 1 1 0 .66.33.33 0 0 1-.34-.33zm.33.29c.15 0 .27-.12.27-.28a.27.27 0 0 0-.27-.28.27.27 0 0 0-.27.28c0 .16.12.27.27.27zm-.07-.1H21v-.37h.15c.09 0 .13.03.13.1s-.04.1-.1.11l.11.17h-.06l-.1-.17h-.07v.17zm.07-.2c.05 0 .1-.01.1-.07 0-.04-.05-.05-.1-.05h-.07v.12h.07z" fill="#236192"/></svg>