<svg xmlns="http://www.w3.org/2000/svg" viewBox="0 0 24 16"><path d="M18.67 10.71a.33.33 0 1 0 0 .67.33.33 0 0 0 0-.67zm0 .6a.26.26 0 0 1-.26-.26.26.26 0 1 1 .53 0c0 .14-.12.26-.27.26z"/><path d="M18.81 10.97a.11.11 0 0 0-.11-.1h-.16v.37h.07v-.15h.05l.07.15h.08l-.08-.16a.12.12 0 0 0 .08-.1zm-.11.05h-.1v-.09h.1c.02 0 .04.02.04.04 0 .03-.02.05-.04.05z"/><path d="M20.54 10.3c0-.63.62-2.97-3.87-6.5l.75-.17-.38-1.28-.75.5v-.78h-1.47C13.86 1.38 13.4.5 11.89.5c-.63 0-1.3.13-1.44.13-.1 0-.44-.08-1.01-.08-1.65 0-1.8 1.23-1.6 1.67C5.67 3.7 4.6 4.77 4.6 5.16c0 .15.09.34.09.62 0 .61-1.32 1.96-1.32 2.67 0 .66.84.7.84.7.05.2-.28.85.02 1.19-.41.44.07.66.07 1.01 0 .24-.17.31-.17.75 0 .5.23 1.1 1.47 1.1.5 0 .93-.07 1.27-.07.1 1.04.54 1.45.61 1.71.06.2.2.66.47.66.36 0 2.34-.65 3.85-1.56.75.28 1.7.19 2.06.19.38 0 .53.23.76.23.13 0 1.16-1.14 1.1-3.64.63 1.08 1.01 1.79 1.05 2.19.83-.3 1.53-2.26 1.23-3.51 0 0 1.05 1.7 2.63 1.44 0 0-.1-.3-.1-.54z"/><path fill="#D18A00" d="M10.56 11.85c.38-.6.17-1.6-.57-1.33a5.28 5.28 0 0 1-.9-2.77c0-1.23.26-1.55.26-2.64 0-1.85-.86-2.21-1.4-2.59-1.32.89-3.05 2.1-3.05 2.75 0 .19.08.37.08.55 0 .67-1.3 1.97-1.3 2.6 0 .23.19.43.5.43.3 0 1.06-.11 1.35-.15.3-.02.32-.17.32-.24 0-.19-.3-.45-.52-.45-.19 0-.2.11-.2.14 0 .12.17.16.17.16.23-.03.23.16.01.16-.17 0-.37-.13-.37-.35 0-.23.18-.28.32-.28.56 0 .88.5.79.83.7.35.67.85.56.85-.24 0-.07-.64-.98-.64-.25 0-.79.08-.91.1-.13 0-.16.02-.18.13-.01.1-.15.48-.15.7 0 .35.23.37.38.37.38 0 1.03-.1 1.03-.24 0-.1-.17-.07-.23-.07-.11 0-.17-.07-.17-.12 0-.1.17-.15.37-.15.32 0 .36.22.34.31-.04.22.31.17.31.64 0 .05 0 .18-.11.18s-.11-.14-.11-.22c0-.07-.13-.2-.24-.2-.11 0-.53.22-1.43.14-.36.45.06.48.06.93 0 .5-.15.47-.15.78 0 .6.67.77 1.34.77 1.38 0 2.94-.32 3.5-1.32-.2.88-.9 1.2-2.1 1.47.14.97.34 1.2.48 1.45.15.27.18.63.44.63.3 0 2.13-.65 3.35-1.4l-.89-1.91z"/><path d="M8.83 9.93a1.27 1.27 0 0 1 .13-1.85c-.6-.16-1.44 1.46-.13 1.85zm-.95-5.6c.04.04.1.05.15.01.03-.03.05-.1 0-.14a5.35 5.35 0 0 0-.64-.64l.16-.12c.16.13.77.66 1.16 1.14.03.04.1.05.14.01a.1.1 0 0 0 .02-.14A9.89 9.89 0 0 0 7.72 3.3l.16-.11c.4.3.64.59.65.6.03.04.1.04.14 0a.1.1 0 0 0 .02-.14A3.96 3.96 0 0 0 7.93 3a.1.1 0 0 0-.12 0l-.65.49c-.06.04-.04.12 0 .16.4.31.72.68.72.69zm-.2.85c-.6 0-.81-.66-1.59-.66-.41 0-.63.16-.63.3 0 .13.16.26.16.26.08.17-.46.35-.17.47l.34.13c-.1.2-.04.57-.01.66-.72 0-.65.23-.03.24 0 .1-.07.37.04.37.12 0 .27-.14.33-.4.52-.06 1.1-.24 1.1-.24.1-.03.21-.12 0-.24l-.95-.57s-.08-.04-.02-.17l.07-.17c.02-.05.07-.05.1-.05.27 0 .68.4 1.22.4.23 0 .5-.13.5-.27 0-.13-.33-.06-.45-.06z"/><path d="M6.2 5.84c-.04.2 0 .43 0 .49.62-.04.87-.15.87-.15l-.86-.34zm-.94 5.1c-.06.03.21.6.16.85.04.12.21.54.5.4.29-.15.04-.54-.03-.64-.23-.1-.56-.65-.63-.61zM7.8 6.92c-.24.06-.45.3-.88.4-.16.05-.44 0-.52 0 .06.1.24.25.24.25s-.07.16-.08.26c.07-.04.28-.16.44-.2.43-.12.73-.02.97-.08.1-.03.31-.09.23-.4-.08-.32-.29-.27-.4-.24z" fill="#FFF"/><path d="M10.31 10.62c-.26-.08-.57.2-.7.6-.11.42 0 .82.26.9.26.07.57-.2.7-.62.12-.41 0-.8-.26-.88zm-4.74.18c-.13-.18-.2-.02-.33.05-.14.07-.31.03-.24.24.08.23-.08.68-.01.82.05.11.18.15.28.1a.3.3 0 0 0 .15-.22c.05-.25-.1-.6-.03-.64.07-.04.27.3.5.4a.3.3 0 0 0 .27 0c.1-.05.14-.18.08-.29-.07-.13-.53-.27-.67-.46zm1.85-3.04c-.07.02-.17.08-.35.13-.17.05-.4.05-.43-.09v-.03c.01-.11.17-.26.17-.26s-.2-.04-.27-.13a.11.11 0 0 1-.02-.04c-.04-.13.16-.24.33-.28.18-.05.3-.05.37-.07.14-.04.26-.13.23-.24-.05-.21-.33-.16-.48-.12-.75.2-.91.5-.86.72.06.21.3.27.3.27s-.18.17-.13.38c.06.21.36.4 1.1.2.16-.04.42-.13.37-.34-.04-.11-.19-.13-.33-.1zm7.68-4.14a12.62 12.62 0 0 0-3.72 4.91s-.05.1 0 .2l.7 1.36c.03.06.1.07.14.02l1.14-1.03c.08-.07.1-.18.1-.18.52-2.98 1.22-4.43 1.66-5.1a.5.5 0 0 1-.02-.14v-.04z" fill="#CF0A2C"/><path d="M16.92 2.75l-.59.38.14.45.66-.14zM15.31 4.1a.55.55 0 0 1-.11-.13c-.7 1.13-1.6 3.94-1.6 6.34 0 2.47.76 3.77 1.03 3.77.2 0 .94-1.31.94-3.01 0-.47-.39-2.33-.39-5.82 0-.75.06-.95.13-1.15zm-3.76 4.5l.62 1.34 1.14-1.05s.54-3.18 1.51-4.93c-2.56 2.49-3.27 4.64-3.27 4.64zm4.15-5.4a.46.46 0 1 0 0 .91.46.46 0 0 0 0-.91z" fill="#00833E"/><path fill="#FFD100" d="M13.92 4.04c.15 0 .13-.2-.01-.2-2.19 0-3.44.27-3.64.32-.12-1.07-.74-1.42-.74-2.11 0-.27.18-.32.33-.32.5 0 .9.6 1.6.6.66 0 .8-.47 1.18-.47.57 0 .32 1.5 1.32 1.5.31 0 .52-.13.52-.13.14-.07 0-.23-.1-.17 0 0-.2.1-.4.1-.85 0-.48-1.5-1.36-1.5-.42 0-.56.46-1.17.46-.68 0-.95-.6-1.62-.6-.38 0-.52.25-.52.5 0 .77.76 1.36.76 2.41 0 1.07-.37 2.02-.37 3.5 0 1.74 1.66 2.26 1.66 3.88 0 .91.35 1.48.74 1.48.22 0 .42-.13.51-.47.06.03.1.04.15.04.11 0 .52-.12.52-.6 0-1.39-2.37-2.1-2.37-4.26 0-1.04.17-2.7.43-2.7.13 0 .3.58.62.58.4 0 .25-1.15.43-1.15.14 0 .35.53.6.53.2 0 .27-.41.36-.74.03-.15-.18-.2-.21-.04-.06.24-.17.56-.17.56-.13-.12-.34-.52-.6-.52-.4 0-.34 1.15-.43 1.15-.16 0-.27-.6-.64-.6-.47 0-.6 1.64-.6 2.94 0 2.27 2.36 3.03 2.36 4.22 0 .3-.21.4-.3.4a.38.38 0 0 1-.1-.02v-.27c0-.7-.38-.84-.53-.84-.16 0-.25.14-.25.37 0 .3.27.64.53.83-.04.19-.12.36-.3.36-.34 0-.53-.79-.53-1.26 0-1.71-1.65-2.2-1.65-3.91 0-1.46.37-2.39.37-3.35v-.18c.22-.05 1.63-.37 3.62-.32z"/><path d="M12.16 11.72c-.03 0-.06.04-.06.16 0 .13.15.4.34.6v-.22c0-.16-.08-.54-.28-.54z"/><path fill="#FFD100" d="M15.02 4.58s-1.24 2.63-1.24 5.69c0 2.03.62 3.58.8 3.58.14 0 .78-.97.78-2.98 0-.81-.44-3.9-.34-6.29z"/><path d="M14.43 8.44l-.45.35c-.06.43-.1.88-.1 1.35l.5-.34c0-.4.02-.85.05-1.36zm.33-2.06c-.09.74-.14 1.41-.18 2l.5.38c-.06-.74-.14-1.57-.17-2.37 0-.11-.13-.22-.15 0zm-.23 3.5l.7.48-.14-1.45-.52-.4c-.03.52-.04.97-.04 1.37zm.08-3.5c.02-.13-.1-.1-.12-.03-.19.64-.38 1.42-.5 2.28l.45-.34c.03-.56.09-1.2.17-1.9zm-.62 5.36l.13.65c.07.08.27.22.44-.29.29.48.47.42.52.38.04-.18.08-.37.1-.59l-.69-.46-.5.31zm.58-.4l.63.43a8.42 8.42 0 0 0 .04-1.27l-.71-.48c0 .6.02 1.04.04 1.32zm-.2-1.4l-.49.34c0 .48.04.93.1 1.34l.44-.28c-.02-.3-.04-.77-.04-1.4z" fill="#00833E"/><g fill="#CF0A2C"><path d="M12.4 7.16c-.3.5-.55 1.03-.66 1.28l-.06.16.53 1.15.98-.91c.02-.05.1-.54.26-1.2.22-.94.59-2.31 1-3.14-.9.97-1.63 1.99-2.05 2.66z"/><circle cx="15.71" cy="3.66" r=".29"/></g><path fill="#FFF" d="M13.72 5.56c-.02-.01-.05 0-.07.03-.2.4-.37.78-.53 1.14L12.5 7l-.1.16.66-.29c-.17.4-.31.77-.43 1.09l-.83.34-.06.14.84-.35c-.26.74-.36 1.2-.36 1.2-.01.02 0 .06.04.06.02 0 .05-.01.06-.04 0 0 .1-.44.35-1.15l.45.75.07-.07-.47-.81c.1-.3.23-.63.38-.99l.35.6c0-.06.02-.1.03-.16l-.33-.56c.17-.4.37-.83.6-1.29.01-.02 0-.05-.03-.07z"/><path d="M16.04 2.32h-.97l.62.66h.35zm3.57 4.8a14.37 14.37 0 0 0-3.3-3.42c-.01.1-.1.25-.15.33-.06.06-.12.13-.16.15.08.3.19.71.34 1.2.22.53.46 1.19.67 1.88.24.57.52 1.14.83 1.64 1.3 2.09 2.6 1.8 2.6 1.8-.23-.35.43-1.56-.83-3.59z" fill="#FF671B"/><path fill="#FFF" d="M19.22 7.23a18.47 18.47 0 0 0-3-3.27.56.56 0 0 1-.08.12c.25.72 1.23 3.4 2.14 4.86.88 1.42 1.74 1.35 1.74 1.35s.3-1.3-.8-3.06z"/><g fill="#FF671B"><path d="M16.27 4.14c.14.4.42 1.15.76 1.99l.1-.5-.46-.73a.05.05 0 0 1 .02-.08c.03-.01.06 0 .07.02l.44.7.66.16a25.4 25.4 0 0 0-1.59-1.56z"/><path d="M17.27 5.66l.8 1.28 1.03.3c-.3-.45-.7-.94-1.1-1.4l-.73-.18zm-.16.65c.19.46.4.95.62 1.4l.26-.7-.78-1.25-.1.55zm2.82 3.87c.02-.2.06-.73-.16-1.48l-.68-.12.4.65c.02.02 0 .05-.02.07-.02.02-.06 0-.07-.02l-.4-.65-.27.77c.54.63 1.02.76 1.2.78zm-1.78-3.1l.86 1.38.73.13a5.63 5.63 0 0 0-.56-1.2l-1.03-.31zm.5 2.22l.27-.79-.86-1.38-.26.71a12.3 12.3 0 0 0 .85 1.46z"/></g><g fill="#D18A00"><path d="M6.12 5.04l-.39.1c-.08.02-.08.07 0 .1l.29.15c.03.01.07 0 .08-.03l.1-.23c.03-.07 0-.11-.08-.1z"/><ellipse transform="rotate(-73.78 10.1 11.37)" cx="10.09" cy="11.37" rx=".5" ry=".28"/></g><path fill="#FFD100" d="M17.01 7.26c-.2-.69-.45-1.35-.67-1.89-.15-.48-.26-.9-.34-1.19a.61.61 0 0 1-.58.01c-.18 4.31.24 5.06.32 6.3 1.09 1.7 1.13 2.2 1.13 2.2s1.27-.88.98-3.53a10.6 10.6 0 0 1-.62-1.1"/><path fill="#001970" d="M17.37 8.79a9.02 9.02 0 0 0-.36-1.53c-.2-.69-.46-1.35-.68-1.88-.21-.53-.4-.94-.49-1.13a.63.63 0 0 1-.26 0c-.04.47-.19 2.45.1 4.24.4 2.56 1.37 3.49 1.37 3.49s.67-.97.32-3.2z"/><path d="M16.12 7.16l-.33-2.13c-.02-.1-.15-.08-.15.06-.03.64-.04 1.55.04 2.48l.44-.41zm.36 2.24l-.17-1.05-.47.46c.08.4.17.74.26 1.05l.38-.46zm-.8-1.69l.1.76.04.2.47-.46-.14-.92-.46.42zm.22-2.7l.34 2.16.75.42c-.28-1-.67-1.98-.95-2.64-.04-.08-.16-.06-.14.06zm.87 5.6l-.26-1.07-.37.45c.13.4.27.75.4 1.02l.23-.4zm-.51-3.3l.14.89.84.48c-.05-.31-.12-.62-.2-.94l-.78-.43zm.16 1.03l.17 1.04.77.41c-.01-.29-.04-.61-.1-.97l-.84-.48zm.84 2.72l-.42-.36-.23.43c.17.32.33.53.42.65.06-.13.16-.37.23-.72zm.1-1.14l-.74-.4.26 1.07.4.35c.05-.28.08-.62.08-1.02z" fill="#FFD100"/></svg>