<svg xmlns="http://www.w3.org/2000/svg" viewBox="0 0 24 16"><g fill="#002654"><path d="M16.89 11.85a.31.31 0 1 0 0 .63.31.31 0 0 0 0-.63zm0 .56a.25.25 0 0 1-.25-.25c0-.13.1-.24.25-.24a.25.25 0 1 1 0 .49z"/><path d="M17.02 12.1a.1.1 0 0 0-.11-.12h-.15v.36h.07v-.14h.04l.07.14h.08l-.08-.15a.11.11 0 0 0 .08-.1zm-.11.03h-.09v-.08h.09c.02 0 .03.02.03.04s-.01.04-.03.04z"/></g><path fill="#a4a9ad" d="M17.3 11.29l3.37-7.77s-2.44 1.45-5.23 2.55l4.8-3.56-3.02.52a8.62 8.62 0 0 0-4.36-1.04l-.4.01-.5-1.5-.78 1.6c-4.41.57-7.85 3.18-7.85 6 0 1.26.54 2.91 3.02 3.8L5.1 15l3.32-2.61a19.24 19.24 0 0 0 5.28-.07l3.62 3.18-1.24-3.74s.73-.23 1.22-.47z"/><path fill="#002654" d="M20.05 4.22s-2.85 1.66-6.01 2.75l-.11-.3 5.43-3.77-6.04 1.54 3.38-1.36s-1.43-.8-3.84-.8c-.2 0-.4 0-.6.02l-.35-1.03-1.88 3.9-2.87.81L9.82 4.9l.88-1.78.18-.37.16-.33C7.03 3 3.62 5.38 3.62 8.1c0 1.52.84 2.92 3.13 3.63l-1.18 2.59 2.76-2.24a18.93 18.93 0 0 0 5.46-.08l3.06 2.73-1.15-3.15c.9-.27 1.37-.5 1.37-.5l2.98-6.86z"/><path fill="#ce1126" d="M15.7 3.05s-1.13-.55-3.35-.48l.1.3c.25-.02 1.59-.15 3.26.18zm-3.24 7.28c-1.3-.25-2.08-.5-2.08-.5s.6-.23 1.48-.64c.8-.36 1.81-.86 2.84-1.46.82-.48 1.64-1.02 2.36-1.61 0 0-4.15 2.26-7.6 2.26-2.32 0-3.39-1.07-3.39-1.79 0-2.15 3.78-3.26 4.63-3.48l.18-.37C7.25 3.45 5.9 4.88 5.9 4.88s-1.21.73-1.67 2.1c-.11.31-.18.67-.18 1.05 0 1.64 1.08 3.79 6.6 3.79 3.9 0 5.99-1.04 5.99-1.04a25.66 25.66 0 0 1-4.19-.45z"/><path fill="#a4a9ad" d="M8.53 7.87l.23-.52-1.38-.38s-.4.7 1.15.9z"/><path d="M17 4.02l-4.42 1.07-.78-2.43-1.23 2.94-3.35.84L9.57 7l-.45.9h.12a9.43 9.43 0 0 0 2.93-.38c.44-.1.88-.24 1.32-.38l-.25-.67L17 4.02zm-1.74 7.83a1 1 0 0 0-.3.15.55.55 0 0 0-.17.27l-.03.15 1.02.81-.52-1.38zm-7.94.06a.37.37 0 0 0-.1-.02l-.09-.01-.55 1.11 1.04-.78c-.07-.12-.14-.25-.3-.3z" fill="#a4a9ad"/><g fill="#fff"><path d="M8.76 9.6c1.37 0 2.51-.25 3.1-.4.8-.37 1.82-.87 2.84-1.47-.86.33-3.58 1.3-5.5 1.3-2.93 0-3.84-1.7-3.84-2.65 0-.86.54-1.5.54-1.5s-1 .7-1 1.87c0 1.93 1.92 2.85 3.86 2.85z"/><path d="M9.89 10.5c-5.43 0-5.68-2.9-5.66-3.52-.11.31-.18.67-.18 1.05 0 0 .06 3.2 6.26 3.2 2.02 0 3.84-.43 4.42-.57-.86-.1-1.63-.21-2.28-.33-.43.06-1.28.17-2.56.17zm6.83-2.32c-.17-.37-.69-.44-1.15-.15-.46.3-.69.83-.51 1.2.17.37.69.43 1.15.14.46-.29.69-.82.51-1.2z"/><path d="M12.13 9.56v-.13l-.12.14-.18.02.1.06-.1.15.19-.1.13.1-.03-.16.18-.1zm1.37-.66v-.13l-.12.15-.19.02.12.07-.12.14.2-.1.14.1L13.5 9l.18-.1zm1 .11V8.9l-.1.13-.18.03.1.05-.1.14.18-.1.13.1-.02-.15.16-.1zm-1.38.75v-.12l-.1.13-.18.02.1.06-.1.14.18-.1.12.1-.02-.15.17-.1zm1 .14v-.12L14 9.9l-.17.02.1.06-.1.14.18-.1.12.1-.02-.15.17-.1zm.81-1.86V7.9l-.14.17-.21.03.13.07-.13.17.22-.12.16.12-.03-.2.22-.11zm1.36-.8l-.13.22.26-.17.23.12-.08-.22.23-.17-.26.05-.05-.18-.13.22-.26.06zm2.15-1.11l-.32.04-.03-.24-.18.26-.32.04.21.11-.18.27.33-.18.25.17-.06-.28zm-1.69 3.89v-.19l-.17.2-.26.03.16.1-.17.2.28-.13.2.13-.04-.22.26-.14zm.5-1.23v-.17l-.16.19-.24.03.15.08-.15.2.26-.14.18.13-.04-.21.24-.14zm.43-1.21v-.2l-.17.21-.26.04.16.09-.16.2.28-.14.19.14-.04-.22.26-.15zm-2.31 2.3l-.13.16-.2.02.12.07-.12.15.2-.1.15.1-.02-.17.2-.1-.2.01zM11.8 3.07l-.64 2.87 1.24-.8zm4.47 1.32l-5.1 1.55 1.93.42c.05 0 3.17-1.97 3.17-1.97zM12.17 7.53l-1-1.59v1.8c.33-.05.66-.13 1-.2zm-2.93.38a9.43 9.43 0 0 0 .67-.01l1.26-1.96-1.48 1.1-.45.87z"/><path d="M10.64 5.65l-2.76.74 3.3-.45zm4.15 6.62l.69.54-.51-.81a.57.57 0 0 0-.18.27zm-8 .45l.53-.81a.37.37 0 0 0-.1-.02l-.42.83z"/></g><path fill="#ce1126" d="M15.64 8.14c-.38.23-.57.68-.44.98.13.31.54.37.92.13.37-.23.56-.67.43-.98-.13-.31-.54-.37-.91-.13z"/></svg>