<svg xmlns="http://www.w3.org/2000/svg" viewBox="0 0 24 16"><g fill="#002654"><path d="M20.53 1.18H6.43c.94 1.46 1.25 1.94.45 1.92L5.71 1.18H3.47l5.1 8.32h-.21c-2.09 0-3.72 1.16-3.72 2.66s1.63 2.66 3.72 2.66c2.09 0 3.72-1.17 3.72-2.66 0-.38-.1-.74-.31-1.09l-1.14-1.86s.92.19 1.6-.13l-.33-.43s1.4.13 2.7-.26l-.44-.46s1.96-.05 3.32-1.8h-.13s1.01-.48 1.44-1.57h-.14s.65-.48.88-1.47h-.2s1.04-.73 1.2-1.9z"/><path d="M11.21 14.25h.11v.34h.04v-.34h.12v-.04h-.27zm.48.27l-.1-.3h-.06v.37h.04v-.32l.1.32h.04l.1-.32v.32h.04v-.38h-.06z"/></g><path fill="#FFF" d="M20.18 1.43H6.89c1.09 1.65.77 1.91-.14 1.91L5.58 1.43H3.9l5.12 8.36a5.07 5.07 0 0 0-.67-.05c-1.95 0-3.48 1.06-3.48 2.42 0 1.35 1.53 2.41 3.48 2.41s3.48-1.06 3.48-2.41c0-.34-.1-.66-.28-.96L10.1 8.84s1 .33 1.71.1l-.44-.57s1.66.14 2.77-.08l-.53-.57s2.48-.02 3.4-1.55h-.42s1.17-.16 1.76-1.43h-.43s1-.46 1.28-1.51h-.47s1.05-.7 1.44-1.8z"/><path fill="#FCB514" d="M19.9 1.6H7.2c.75 1.15.9 2-.55 1.91l-1.17-1.9H4.22l5.15 8.41a4.7 4.7 0 0 0-1.01-.1c-1.82 0-3.3 1-3.3 2.24s1.48 2.24 3.3 2.24 3.3-1 3.3-2.24c0-.3-.08-.6-.25-.87L9.73 8.55s1.06.37 1.8.3c0 0-.34-.42-.49-.68 0 0 1.2.15 2.78.01l-.59-.62h.15c2.56 0 3.32-1.31 3.32-1.31h-.69s1.72-.44 2.1-1.43h-.65s1.36-.66 1.5-1.42h-.78s1.36-.77 1.72-1.8z"/><path fill="#002F87" d="M19.6 1.78H7.53c1 1.64 0 2-.98 1.9l-1.16-1.9h-.83l5.22 8.54c-.42-.14-.9-.22-1.41-.22-1.72 0-3.12.92-3.12 2.06 0 1.13 1.4 2.06 3.12 2.06 1.72 0 3.12-.93 3.12-2.06 0-.27-.08-.53-.22-.77L9.32 8.22s1.25.44 1.83.44c0 0-.27-.34-.43-.7 0 0 1.5.16 2.7.07l-.65-.7s.2.05.61.05c2.12 0 2.93-.94 2.93-.94h-6.28l-.1-.15h5.21s2.13-.41 2.64-1.28H9.15l-.09-.15H17s1.48-.71 1.7-1.27H8.27l-.1-.15h9.58s1.4-.73 1.85-1.66z"/></svg>