<svg xmlns="http://www.w3.org/2000/svg" viewBox="0 0 24 16"><g fill="#111"><path d="M18.15 14.56a.41.41 0 1 0 0-.82.41.41 0 0 0 0 .82zm0-.74a.32.32 0 1 1 0 .65.32.32 0 0 1 0-.65z"/><path d="M18.07 14.2h.06l.09.18h.1l-.1-.2c.06-.02.1-.07.1-.13a.14.14 0 0 0-.14-.14h-.2v.47h.09v-.19zm0-.2h.1c.03 0 .06.02.06.05 0 .03-.02.05-.05.05h-.11V14z"/></g><path fill="#fcb514" d="M12 16a8 8 0 1 0 0-16 8 8 0 0 0 0 16z"/><path fill="#111" d="M12 15.7A7.7 7.7 0 1 0 12 .3a7.7 7.7 0 0 0 0 15.4z"/><path fill="#fcb514" d="M16.93 3.68c-.19-.22-.4-.42-.61-.61L14.99 4.4l.62.6 1.32-1.32zm-4.5-2.22a6.27 6.27 0 0 0-.87 0v2.1h.87v-2.1zM8.34 3.7l-.65-.64c-.22.19-.42.4-.61.61l1.25 1.25V3.71zm-.65 9.22l.64-.64v-1.22l-1.25 1.25c.19.22.4.42.61.61zm1.2-5.36H5.45a6.22 6.22 0 0 0 0 .87h3.41v-.87zm6.35.43l.45.43h2.86a6.27 6.27 0 0 0 0-.86h-2.86l-.45.43zm-.24 3.6l1.33 1.33c.22-.19.42-.4.61-.61L15.61 11l-.62.6zm-3.43 2.94a6.3 6.3 0 0 0 .88 0v-2.1h-.87v2.1z"/><path fill="#fcb514" d="M9.21 10.36l-.55.54v1.2h5.33l1.35-1.31V8.57l-.6-.58.6-.58v-2.2L14 3.9H8.66v1.2l.55.54v4.72z"/><path fill="#FFF" d="M11.2 12.44H8.7l-.73.72c.92.72 2.03 1.2 3.25 1.35v-2.07zm2.93 0h-1.34v2.07a6.53 6.53 0 0 0 3.25-1.35l-1.31-1.31-.6.59zM8.87 10V8.79H5.5a6.52 6.52 0 0 0 1.35 3.25l2.03-2.03zm0-4.01L6.84 3.96A6.53 6.53 0 0 0 5.49 7.2h3.38V6zm5.86-1.85l1.31-1.31a6.53 6.53 0 0 0-3.25-1.35v2.08h1.34l.6.58zm.95 4.64v1.77l1.48 1.48a6.53 6.53 0 0 0 1.35-3.25h-2.83zM11.2 3.57V1.48a6.52 6.52 0 0 0-3.25 1.35l.73.73h2.52zm4.47 3.64h2.83a6.53 6.53 0 0 0-1.35-3.25l-1.48 1.48v1.77z"/><path fill="#111" d="M8.94 11.02v.8h4.94l1.19-1.15V8.7l-.72-.7.72-.7V5.33l-1.19-1.15H8.93v.8l.56.54v4.96l-.55.54z"/><path fill="#fcb514" d="M13.8 10.14V9.1l-.55-.52h-2.58v2.09h2.58l.54-.53zm0-3.25V5.86l-.55-.53h-2.58v2.1h2.58l.54-.54z"/><path fill="#111" d="M13.52 5.98l-.38-.37h-2.19v1.53h2.19l.38-.36v-.8zm0 3.24l-.38-.36h-2.19v1.53h2.19l.38-.37v-.8z"/><path fill="#FFF" d="M13.18 6.64v-.52L13 5.95H11.3v.86H13zm0 3.24v-.52L13 9.2H11.3v.86H13z"/></svg>