<svg xmlns="http://www.w3.org/2000/svg" viewBox="0 0 24 16"><g fill="#192168"><path d="M20.23 12.33a.38.38 0 1 0 0 .77.38.38 0 0 0 0-.77zm0 .69a.3.3 0 1 1 0-.6.3.3 0 0 1 0 .6z"/><path d="M20.4 12.63a.13.13 0 0 0-.14-.13h-.19v.43h.09v-.17h.06l.08.18h.1l-.1-.2a.13.13 0 0 0 .1-.11zm-.14.04h-.1v-.1h.1c.03 0 .05.03.05.06s-.02.04-.05.04z"/></g><path fill="#192168" d="M18.94 7.87l1.42-1.5-.68-3.16-3.04-.9-.31.29a18.5 18.5 0 0 0-4.68-.74c-4.98 0-8.77 2.74-8.78 6.1-.02 3.54 3.4 6.18 8.82 6.18 3.79 0 7.67-2.02 9.31-3.17l-2.06-3.1z"/><path fill="#fff" d="M18.4 8.2s-2.14 1.47-4.51 1.91V5.95c2.57.32 4.1 2 4.1 2l1.71-1.77-.55-2.48L16.8 3l-.3.33c-.95-.37-2.92-.85-5.09-.85-4.35 0-7.91 2.47-7.92 5.51 0 2.97 3.01 5.53 7.89 5.53 4.5 0 7.75-2.14 8.76-2.72l-1.74-2.6zm-7.42-.78v-1.7c.6-.04 1.25 0 1.72.05v1.65h-1.72zm1.72 1.13v1.71c-.48.06-1.22.08-1.72.04V8.55h1.72zM9.74 5.8v4.37c-.72 0-3-.84-3-2.17 0-1.64 2.33-2.09 3-2.2z"/><path d="M9.11 9.42V6.57c-.82.24-1.74.7-1.74 1.44 0 .5.78 1.12 1.74 1.41zm8.18-1.28a6.58 6.58 0 0 0-2.77-1.45v2.63c.9-.25 1.88-.67 2.77-1.18zm-5.85-1.22h.8v-.67l-.8-.03zm-.02 2.15h.83v.7h-.83z" fill="#fff"/><path fill="#af1e2d" d="M18.28 8.82c-2.81 1.65-4.69 1.97-6.97 1.95-3.2-.03-5.04-1.31-5.04-2.84 0-1.38 1.68-2.7 5.1-2.7 2.31 0 5.1.62 6.58 2.08l1.23-1.26-.42-2-1.82-.53-.33.38c-1-.4-2.7-.96-5.29-.96-3.92 0-7.35 2.27-7.35 5 0 2.87 2.99 5.11 7.24 5.11 4.3 0 6.83-1.62 8.3-2.39l-1.23-1.84z"/></svg>