<svg xmlns="http://www.w3.org/2000/svg" viewBox="0 0 24 16"><path fill="#99999A" d="M11.86 11.36l2.62-1.3c1.8.5 2.33 1.18 2.33 1.18l1.03-1.16a.93.93 0 0 0 .23-.66c0-.4-.43-.73-.74-.94-.5-1.35-3.34-1.74-3.55-2.2-.07-.17-.49-1.57-.49-1.57C13.05 4 12.32 4 12.05 4c-.28 0-.87.1-.87.1 0 1-.14 2.23-.28 2.46 0 0-.51.26-1.12.48l-1.43-.97.38 1.3c-2.42 1.33-3 3.65-3 3.65s.61 4.88 6.73 4.88c3.24 0 5.1-1.56 5.1-1.56L16.52 12s-1.6.82-3.62.82c-1.88 0-2.61-.87-2.88-1.38 1.59.05 1.84-.08 1.84-.08z"/><path d="M11.76 11.1l2.7-1.34c1.82.51 2.34 1.07 2.34 1.07l.84-.94s.15-.14.15-.47c0-.3-.45-.6-.69-.77-.5-1.35-3.25-1.6-3.56-2.24-.12-.25-.28-.86-.5-1.6-.2-.54-.73-.54-1-.54-.26 0-.59.05-.59.05 0 .55-.1 2.14-.36 2.42-.06.08-.53.27-1.04.47l.15.1-.16.16-.29.3-.32 1L9 8.56l.15.37-.75.12.42.15-1.22.94.33.03-.44.78c.63-.28.82-.34.82-.34l-.18-.18 1.27-.52s-.1.26-.1.75c0 .07.01.17.04.3.15.76.9 2.34 3.54 2.34 1.91 0 3.39-.66 3.39-.66l.69 1.53s-1.8 1.24-4.5 1.24c-5.55 0-6.26-4.36-6.26-4.36a5.66 5.66 0 0 1 2.87-3.32l-.25-.02-.03-.08c-2.16 1.2-2.8 3.4-2.8 3.4s.66 4.59 6.46 4.59a8.31 8.31 0 0 0 4.76-1.38l-.84-1.88s-1.56.74-3.49.74c-2.86 0-3.28-1.95-3.28-1.95s1.63.1 2.15-.04zm5.79-1.43zM8.3 3.65l-.51-1.7 1.16 1.5.37-.1L8.47.53l-.4.12.5 1.67L7.4.85l-.36.1.84 2.83zM9.66 3c.02.17.13.26.3.23l.9-.12c.18-.02.26-.13.23-.3l-.1-.73-.43.06.08.62-.56.07-.3-2.16.57-.08.08.58.43-.07-.1-.68c-.02-.17-.13-.25-.3-.23l-.9.13c-.17.02-.25.13-.23.3L9.66 3zm2.1.05l.96.02c.17 0 .27-.09.27-.26l.04-2.4c0-.18-.09-.28-.26-.28L11.82.1c-.17 0-.27.1-.27.26l-.04 2.4c0 .18.09.28.26.28zM12 .5l.6.01-.04 2.19-.6-.01.04-2.19zm1.66 2.67l.92.17c.18.03.29-.05.32-.22l.47-2.63-.43-.08-.45 2.53-.59-.1.45-2.53-.43-.08-.47 2.63c-.03.17.04.28.21.31zm3.5.63l.4-.84.59.28.16-.34-.6-.28.37-.78.7.33.17-.35-1.1-.52-1.26 2.66 1.1.52.17-.35zm3.4-1l-.98-.64-1.62 2.46.37.24.72-1.1.12.08-.33 1.36.38.25.01-.01.32-1.37.13.09c.14.08.27.06.36-.09l.6-.9c.09-.13.06-.27-.08-.36zm-.87 1l-.46-.3.52-.78.46.3-.52.79zm-2.33-2.7l-.41-.14-.97 1.88.32-2.1-.42-.13-.38 2.97.42.14zM6.38 3.85l.5-.24.32.47.4-.2-1.8-2.4-.4.2.75 2.9.4-.19-.17-.54zM5.9 2.2l.77 1.1-.39.19-.38-1.3zm-1.25-.14l-.37.24.84 1.94L3.7 2.67l-.37.24L5.4 5.09l.37-.24-1.12-2.77z" fill="#001F5B"/><g fill="#071C2C"><path d="M16.93 8.78c-.46-1.32-2.99-1.42-3.56-2.25-.16-.23-.42-1.7-.68-1.91-.29-.23-1.03-.12-1.03-.12 0 .2-.05 2.02-.43 2.4-.25.2-.68.3-1.19.57l-.29.3-.32 1L9 8.56l.15.37-.75.12.42.15-1.22.94.33.03-.44.78c.63-.28.82-.34.82-.34l-.18-.18 1.27-.52s-.1.26-.1.75c0 .07.01.17.04.3a5.45 5.45 0 0 1 2.3-1.38l-1.78 1.37s1.46.07 1.82-.04c1.13-.52 2.03-1.02 2.74-1.37 1.65.44 2.35 1 2.35 1l.18-.19a7.18 7.18 0 0 0-1.88-.87c.35-.14.78-.3.9-.3.26 0 .8.34 1.38.72l.13-.15.06-.08a.4.4 0 0 0 .04-.2c0-.27-.36-.45-.66-.7zM18 13.76a.28.28 0 1 0 .29.28.28.28 0 0 0-.29-.28zm0 .5c-.12 0-.22-.1-.22-.22s.1-.22.22-.22c.13 0 .23.1.23.22s-.1.23-.23.23z"/><path d="M18.11 13.98a.1.1 0 0 0-.1-.1h-.13v.32h.06v-.13h.04l.07.13h.06l-.06-.13a.1.1 0 0 0 .06-.1zm-.1.03h-.07v-.07h.08c.02 0 .03.02.03.04l-.03.03z"/></g><path d="M10.55 8.58l-.68.38 1.36.19-.68-.57zm-.88 1.07l.12-.85L8.2 9.87l1.47-.22zM11 7.31l-1.15.63.3.72L11 7.3z" fill="#99999A"/><g fill="#001F5B"><path d="M8.59 9.73l.97-.16.1-.57zm2.4-.7l-.52-.3-.37.2zm-.86-.6l.63-.85-.73.4z"/><path d="M12.9 13.53c-3.04 0-3.8-2.08-3.8-2.87 0-.17 0-.32.02-.44l-.7.23.09.2-.55.2-.47.3.96.18-.2.69.4-.12.4 1 .47-.06.16.7s.89.61 2.39.75c1.98.17 3.75-.5 3.75-.5s-2.11.82-4.04.62c-1.46-.15-2.42-.75-2.42-.75l-.02-.64-.58.01-.27-.97-.51.24.22-.87-.98-.12.2-.6.23-.48-.32.01 1.33-.98-.58-.23.94-.18-.32-.66.58.33.23-.72c-.7.24-2.2 1.01-3.07 3.27.1.52 1.01 4.12 6.02 4.12 2.16 0 3.74-.82 4.22-1.1l-.52-1.16c-.47.18-1.72.6-3.27.6zM8.57 6.41l.4 1.17.7.18.3-.39z"/></g><g fill="#FFF"><path d="M12.5 6.5c-.1-.14-.23-1.46-.23-1.46s-.02 1.35-.1 1.47c-.08.12-.46.34-.46.34s.43-.14.64-.16c.15 0 .64.1.64.1s-.39-.17-.49-.3zm.04 2.4a4.06 4.06 0 0 0-3.2 2.06 5.45 5.45 0 0 1 2.3-1.38l.9-.69zm4.4-.12c-1.2-.14-1.54-.43-1.54-.61 0-.07.07-.1.12-.1.28 0 .64.2.84.42-.12-.31-.84-.68-1.3-.68-.1 0-.23.03-.23.17 0 .3.45.67 1.6.76.6.14 1.24.49 1.12.93a.4.4 0 0 0 .04-.2c0-.27-.36-.45-.66-.7zm-1.6.7l.45.15a.96.96 0 0 0 .18-.09l-.02-.04a5 5 0 0 0-.33-.13l-.28.1zm.38-.14l.3.1h.06l.19-.08a.9.9 0 0 0-.3-.1c-.1 0-.25.08-.25.08zm.44.15l.01.02.27.14h.05l.15-.1-.3-.16-.18.1zm.22.24V9.7a1.88 1.88 0 0 0-.27-.14l-.06.01-.18.1.36.16.15-.1zm.44.13s.03 0 .05-.02a.9.9 0 0 0 .1-.07l-.27-.18-.14.1.01.03.25.14zm.11.03v.02l.25.17.1-.1-.25-.18a.93.93 0 0 0-.1.09zm-.16.04V9.9a3.05 3.05 0 0 0-.26-.13h-.07l-.13.1.34.15.12-.09zm.06.05l-.12.09.3.19.12-.13-.24-.16h-.06z"/><path d="M14.43 9.54c1.65.44 2.35 1 2.35 1l.18-.19a7.18 7.18 0 0 0-1.88-.87c.35-.14.78-.3.9-.3.26 0 .8.34 1.38.72l.13-.15c-.5-.35-1.1-.77-1.53-.77-.35 0-.85.22-1.53.56z"/></g></svg>