<svg xmlns="http://www.w3.org/2000/svg" viewBox="0 0 227 147"><defs><clipPath id="a"><path d="M0 2000h2000V0H0v2000z"/></clipPath></defs><g clip-path="url(#a)" transform="matrix(.30433 0 0 -.30433 -25.3 187.775)"><path fill="#00214d" d="M179.5 369.33h28.38l7.2 17.42h-30.83C139 386.75 98 352.55 98 328.17c0-12.67 14.13-18.84 17.17-18.84h49.16c12.67 0 34.84 15.84 34.84 15.84l-17.5 8.16S173 327 166.83 327h-42.16c-3.17 0-4.5 2.33-4.5 5.67 0 7.4 17.83 36.66 59.34 36.66M271.3 326.97l-37.85.03c-2.25 0-2.58 2.5-2.58 4s2.88 10.12 11.38 10.12h35.44c2 0 9.3 3.13 9.3 3.13s-4.8-17.28-15.7-17.28m14.64 59.78H228.3l-7.1-17.42h61.58c9.6 0 10.72-3.83 10.72-9.83h-45.38c-26.76 0-38.12-18.97-38.12-28.25 0-16.08 14.56-21.88 21.37-21.88h30.13c5.62 0 12.5 4.63 12.5 4.63l-1.75-4.67 21.94.02 17.13 40.86c1.55 3.7 3.67 10.72 3.67 13.97 0 12.9-10.38 22.58-29.06 22.58M288.75 263.5l21.42 48.42c2.9 6.57 21.56 74.83 92.83 74.83h52.25L432.75 332c-4.5-10.96-14.42-22.67-25.5-22.67h-65.42L349 327h52.25c7.94 0 10.16 6.13 12.42 11.83l12.08 30.5H404.5c-30.8 0-56.3-19.14-63.5-36.16l-29.5-69.67h-22.75zM456.37 359.63l-20.64-50.3h21.83l20.68 50.3h-21.87zM482.23 369.33l7.17 17.42h-21.9l-7.15-17.42h21.88zM498.25 386.75l-6.95-17.42h26.08l-35.05-84c-2.54-6.1-5.66-14.66-5.66-35.33 0-7.33 1.35-14.6 3.33-17.67l47-72.83 28.5 40.5-56.13 46.87c-1.7 1.42-3.2 5.13-3.2 12.46 0 7.34 1.4 9.53 3.33 14.17L635.25 602h-21.38l-88.75-215.25h-26.87z"/><path fill="#00214d" d="M603.63 326.95l-37.86.03c-2.25 0-2.58 2.5-2.58 4s2.86 10.12 11.36 10.12H610c2 0 9.3 3.13 9.3 3.13s-4.8-17.28-15.67-17.28m14.62 59.78h-65l-7.1-17.42h68.94c9.58 0 10.7-3.82 10.7-9.82h-45.36c-26.76 0-38.13-18.97-38.13-28.25 0-16.08 14.58-21.88 21.4-21.88h30.1c5.64 0 12.5 4.63 12.5 4.63l-1.74-4.67 21.94.03 17.15 40.86c1.54 3.68 3.66 10.7 3.66 13.95 0 12.9-10.36 22.58-29.05 22.58M659 309.33l71.57 173.17H709.2l-71.4-173.17H659zM671.03 309.33l7 17.67 82-.03c5.03 0 8.97 5 8.97 7.7s-1.56 4.96-4.87 4.96H715.2c-5.26 0-17.28 6.62-17.28 17.8 0 11.15 6.2 29.32 39.14 29.32H809l-7.17-17.42h-73.75c-5.8 0-9.08-5.9-9.08-9 0-2.75 2.75-4 3.42-4h45.75c10.4 0 21.83-3.66 21.83-18.33 0-14.67-9.3-28.67-32-28.67h-86.97z"/><path fill="#cf132b" d="M629.5 209.5l18 21.67h-56.33L574 209.5h55.5zM245.44 412.65h-6.46l1.97 17.46-14.48-17.45h-6.6l1.1 24.03h6.25l-.68-16.87 12.8 16.72h6.95l-.92-16.53 13.23 16.52h6.2l-19.36-23.87zM277.47 421.9l-.06 9.6-9.24-9.6h9.3zm.06-3.98h-12.3l-4.7-5.27h-6.57l21.9 23.87h7.1l.7-23.87h-6.05l-.07 5.27zM289.12 420.38l6.12.25c-.18-1.5-.03-2.5.45-3.02.77-.83 2.42-1.26 4.94-1.26 2.1 0 3.65.3 4.7.87 1.02.58 1.62 1.28 1.76 2.1.13.7-.14 1.3-.82 1.78-.47.36-1.84.94-4.1 1.75-2.26.8-3.9 1.47-4.9 2-1.02.54-1.77 1.24-2.25 2.1-.48.86-.62 1.86-.4 3 .36 2.02 1.6 3.7 3.74 5 2.13 1.34 5 2 8.58 2 3.65 0 6.35-.66 8.1-1.97 1.77-1.3 2.55-3.06 2.36-5.24l-6.16-.22c.05 1.14-.32 2.02-1.13 2.63-.8.6-2.1.9-3.9.9-1.76 0-3.07-.23-3.9-.7-.85-.5-1.34-1.1-1.47-1.82-.12-.67.12-1.23.73-1.68.6-.46 2.03-1.08 4.26-1.87 3.36-1.2 5.46-2.15 6.3-2.9 1.26-1.07 1.74-2.47 1.43-4.17-.4-2.1-1.8-3.9-4.24-5.4-2.42-1.5-5.58-2.24-9.45-2.24-2.67 0-4.92.35-6.75 1.04-1.84.68-3.04 1.64-3.63 2.87-.58 1.23-.7 2.64-.35 4.23M338.72 423.32H326.7l-4.84-10.67h-6.4l10.84 23.87h6.38l-4.18-9.2h12.02l4.2 9.2h6.37l-10.82-23.87h-6.4l4.84 10.67zM345.97 412.65l10.83 23.87h6.38l-10.8-23.87h-6.4zM384.8 412.65h-5.97l-5.67 16.04-7.73-16.05h-5.96l11.27 23.87h5.98l5.7-15.97 6.6 15.97h5.93l-10.16-23.87zM410.75 425.4h13.9L420 415.16c-1.8-.82-3.92-1.5-6.4-2.07-2.5-.58-4.97-.86-7.44-.86-3.84 0-6.67.67-8.47 2-2.48 1.83-3.4 4.47-2.77 7.94.42 2.32 1.42 4.54 3 6.67 1.9 2.57 4.32 4.55 7.24 5.96 2.9 1.42 6.16 2.13 9.75 2.13 3.6 0 6.35-.64 8.28-1.92 1.94-1.27 2.04-3.44 2.3-5.9l-6.05.03c-.28 1.34.06 2.12-.98 2.8-1.04.7-2.44 1.03-4.2 1.03-2.07 0-4.04-.42-5.9-1.24-1.9-.83-3.47-2.1-4.76-3.83-1.27-1.73-2.1-3.62-2.47-5.66-.37-2-.04-3.5.97-4.45 1-.97 2.66-1.46 4.95-1.46 1.37 0 2.8.15 4.3.45 1.5.3 2.8.65 3.92 1.06l1.6 3.55h-7.92l1.8 4zM436.3 412.65h-6.4l9.03 19.88h-9.1l1.8 4h24.47l-1.8-4h-9l-9-19.88zM458.55 422.1c-.3-1.63.1-3 1.2-4.1 1.1-1.12 2.7-1.67 4.83-1.67 1.73 0 3.46.44 5.2 1.3 1.76.88 3.3 2.2 4.67 3.98 1.36 1.8 2.2 3.52 2.5 5.2.34 1.88-.05 3.35-1.17 4.42-1.12 1.07-2.7 1.6-4.73 1.6-3.12 0-5.87-1.1-8.23-3.35-2.36-2.24-3.78-4.7-4.27-7.36m-6.33-.1c.26 1.42.8 2.9 1.63 4.47 1.1 2.1 2.53 3.92 4.3 5.46 1.74 1.54 3.83 2.76 6.24 3.66 2.4.88 5.03 1.33 7.9 1.33 3.84 0 6.78-.92 8.82-2.75 2.03-1.84 2.77-4.27 2.22-7.3-.45-2.52-1.66-4.95-3.63-7.3-1.96-2.37-4.38-4.18-7.25-5.45-2.87-1.27-5.98-1.9-9.3-1.9-2.9 0-5.25.5-7.03 1.5-1.78 1.02-2.94 2.27-3.5 3.76-.54 1.5-.68 3-.4 4.5M506.6 412.65h-5.95l-5.48 16.04-7.28-16.05h-5.96l10.8 23.87h6l5.5-15.97 7.24 15.97h5.94l-10.8-23.87zM306.14 475.48l16.23 12.02h-20.13l-6.12 18.87-5.9-18.87h-19.6l15.93-11.7-6.05-19.3 16.1 11.9L312.1 457l-5.98 18.48zM411.14 475.48l16.23 12.02h-20.13l-6.12 18.87-5.9-18.87h-19.6l15.93-11.7-6.05-19.3 16.1 11.9L417.1 457l-5.98 18.48zM515.8 475.48l16.24 12.02H511.9l-6.1 18.87-5.92-18.87h-19.6l15.93-11.7-6.03-19.3 16.1 11.9 15.52-11.4-6 18.48z"/></g></svg>
