<svg xmlns="http://www.w3.org/2000/svg" viewBox="0 0 24 16"><g fill="#111"><path d="M14.4 13.36a.31.31 0 1 0 0 .63.31.31 0 1 0 0-.63zm0 .56a.25.25 0 1 1 0-.5c.14 0 .25.12.25.25 0 .14-.1.25-.25.25z"/><path d="M14.53 13.6a.1.1 0 0 0-.1-.1h-.16v.36h.07v-.15h.05l.07.15h.07l-.07-.16a.11.11 0 0 0 .07-.1zm-.1.04h-.09v-.08h.09c.02 0 .04.02.04.04s-.02.04-.04.04z"/></g><path fill="#111" d="M18.46 6.34c-.04.45-.44.86-.44.86l-.33-.16-.28-.74 1.19-2.47c.08.17.13.33.13.33.17-.34.2-.68.17-.96l.22-.46L19 .94a.88.88 0 0 0-.6-.57.8.8 0 0 0-.75.12L13.6 3.61a5.09 5.09 0 0 0-4.49 2.53L4.65 9.73s.83 1.57 2.73 1.38l1.23-.22c.13.57.87 3.86 3.72 4.66-.49-.93-1.11-2.58-.5-3.93.82 2.61 2.01 2.54 2.01 2.54-1.15-1.64-.21-3.38-.21-3.38.47.8 1.15 1.16 1.7 1.16 0 0-.8-1.07-.38-2.48l2.53.1 1.14-.48.7-1.27-.55-.25c.17-.77-.31-1.22-.31-1.22z"/><path fill="#8c2633" d="M18.54 7.63c.03-.1.13-.57-.01-.9-.13.39-.35.6-.45.67l-.56-.27 1.15.75-.7.16-.63-.23c.04-.2.1-.6-.04-.9-.13.38-.35.61-.47.71l-.6-.22-.5-1.33 1.84-2.98c.1.11.21.26.3.46.1-.3.01-.67-.05-.87l.22-.36.53-.38.1.5-.88 2.42.7-1.5c.02.03.09.08.23.37.07-.23-.04-.75-.04-.75l.2-.39-.09-1.5c-.08.12-.16.4-.2.5-.17-1.15-.62-.29-.73-.98L17.5.9a5.1 5.1 0 0 0-.09.88s-.26-.28-.34-.54c-.03.17-.08.49-.1.97 0 0-.29-.3-.38-.6-.03.18-.08.54-.1 1.06 0 0-.3-.33-.41-.65-.04.2-.1.59-.11 1.16 0 0-.37-.39-.47-.74l-1.85 1.43c-.12.15-.7.73-.91 1.62 0 0 0-.63.05-.82-.17.12-.78.6-1.11.95 0 0 .04-.63.3-1-.55.4-1.39 1.25-1.39 1.25.7-1.19 1.25-1.54 1.52-1.78a4.64 4.64 0 0 0-3.13 3.08s.01-.33.06-.6L5.08 9.68s.6 1.12 2.32 1.08l2.24-.36s-.23-.6-.2-1.02c.27.94.74 1.3.74 1.3l-1.26.16c.23.82.73 3.15 3 4.24-.53-1.02-.62-2-.53-2.8.14-.97.64-1.56.64-1.56a4.54 4.54 0 0 0 1.28 2.79s-.46-.83-.13-2.32c.03-.08.29-.8.55-1.05.34.95 1.16 1.32 1.16 1.32-.59-1.22-.08-2.39-.08-2.39l2.68.1 1-.41.5-.94-.45-.2z"/><path d="M14.95 5.48l2.79-3.17-2.94 3.01s-.73.12-1.78.96c.52 1.02-2 4.2-3.08 3.35.22.65 1.02.38 1.02.38-.1.25-1.15 2.03.22 4.15-2.23-3.6 2.98-7.14 3.27-7.25-.07-.5-.8-.63-.8-.63.34-.45 1.4-.82 1.3-.8zM8.72 7.3l-1.11.9-1.98 1.58c.29.51.96.65 1.35.69l.3.01 1.9-.34s-2.75-.62-.46-2.84z" fill="#111"/><path fill="#8c2633" d="M16.89 6.16l.41.6-.23-.6.23-.6z"/><path d="M18.54 7.63c.03-.1.13-.57-.01-.9-.13.39-.35.6-.45.67l-.56-.27 1.15.75-.7.16-.63-.23c.04-.2.1-.6-.04-.9a1.6 1.6 0 0 1-.47.71l-.6-.22-.5-1.33 1.84-2.98c.1.11.21.26.3.46.1-.3.01-.67-.05-.87l.22-.36.53-.38.1.5-.88 2.42.7-1.5c.02.03.09.08.23.37.07-.23-.04-.75-.04-.75l.2-.39-.3-.75-.84.47-2.8 3.17c.11-.03-.95.35-1.3.8 0 0 .74.14.8.62-.28.12-5.5 3.65-3.26 7.26.19.3.43.61.74.93-.53-1.03-.62-2-.53-2.8.15-1.36.8-2.28.8-2.28s-.02 2.01.8 3.16c.1.13.2.24.31.35 0 0-.46-.83-.12-2.32.12-.52.34-1.14.71-1.82-.23 1.1.76 1.87 1 2.1-.6-1.23-.08-2.4-.08-2.4l2.67.1.93-.9.07.49.51-.93-.45-.21zM5.64 9.77c.28.51.95.65 1.34.69-.12-.11-.5-.5-.38-.8 0 0 .32.25.75.3 0 0-.35-1 .26-1.77L5.63 9.77zm7.3-5.4c.04-.12-.21-.1-.21-.1.17-.11.35-.18.44-.2l.14-.18c-.12.01-.44.08-1.08.54.26-.05.54-.07.71-.05z" fill="#e2d6b5"/><path fill="#111" d="M16.18 5l-.86 1.04.74 1.37-.5-1.37z"/></svg>