<svg xmlns="http://www.w3.org/2000/svg" viewBox="0 0 24 16"><path d="M17.46 12.69a.32.32 0 0 0 0 .64.32.32 0 0 0 0-.64zm0 .57a.25.25 0 0 1-.25-.25c0-.14.11-.25.25-.25s.25.1.25.25c0 .14-.1.25-.25.25z"/><path d="M17.6 12.94a.1.1 0 0 0-.11-.11h-.16v.36h.07v-.15h.05l.07.15h.08l-.08-.15a.11.11 0 0 0 .08-.1zm-.11.04h-.09v-.09h.09c.02 0 .04.02.04.04 0 .03-.02.04-.04.04zM19.54 2.2C19.54.84 18.27.24 17 .3c0 0 .53.5.53.88 0 .2-.15.41-.57.41h-1.88c-.42 0-.67-.15-.67-.39 0-.4.63-.86.63-.86s-1.27.07-2.13.74a6.65 6.65 0 0 0-6.47 10.06c-.1.05-.2.09-.33.09-.47 0-.47-1.03-.47-1.03s-1.18 1.37-1.18 3.2c0 1.12.48 2.1.48 2.1s1.32-1.6 3.97-1.6c0 0-1.26-.5-1.26-1.11 0 0 0-.07.05-.15A6.65 6.65 0 0 0 17.74 4.1c.64-.1 1.8-.54 1.8-1.88z"/><path fill="#CE1126" d="M17.57.58s.24.23.24.59c0 .35-.27.7-.85.7h-1.88c-.73 0-.96-.38-.96-.68 0-.3.17-.46.17-.46s-1.84.36-1.84 1.86c0 1.26 1.4 1.26 1.4 1.26h.42l-1.15 3.04-1.75-2.22c-.1-.13-.53-.67-1.17-.67-.88 0-1.26.99-1.4 1.34l-1.85 4.9s.69-.24 1.6-.24c.77 0 1.41.15 1.41.15l.86-2.27 1.1 1.98-.78.81c-.5.53-1.57.24-2.6.24-1.9 0-1.72.6-2.43.6-.51 0-.64-.62-.64-.62s-.72 1.2-.72 2.5c0 .84.3 1.58.3 1.58s1.48-1.26 2.99-1.26c0 0-.67-.32-.67-.93 0-.18.22-.73.96-.73 1.15 0 1.62.68 3 .68 1.94 0 3.01-1.2 3.39-2.2l2.53-6.68s2 0 2-1.63c0-1.5-1.68-1.64-1.68-1.64z"/><g fill="#FFF"><path d="M10.2 3.71c.36 0 .88.14 1.4.79l1.43 1.82.83-2.19s-1.7-.01-1.7-1.54c0-.34.08-.62.2-.86h-.23A5.95 5.95 0 0 0 6.7 10.1l1.84-4.87c.38-1 .94-1.52 1.66-1.52zm4.78 6.92a3.76 3.76 0 0 1-3.65 2.39c-1.38 0-1.91-.64-2.9-.68a5.95 5.95 0 0 0 8.81-7.7l-2.26 6z"/><path d="M10.94 10.47l.63-.66-.7-1.26-.73 1.94s-.76-.2-1.6-.2c-.64 0-1.23.14-1.62.26l.15.26c.3-.1.75-.19 1.48-.19 1.05 0 2 .25 2.39-.15z"/></g></svg>