<svg xmlns="http://www.w3.org/2000/svg" viewBox="0 0 24 16"><g fill="#111"><path d="M19.66 11.28l-.08-.18a.13.13 0 0 0-.04-.25h-.19v.43h.08v-.17h.06l.08.17h.1zm-.13-.26h-.1v-.1h.1a.05.05 0 0 1 0 .1z"/><path d="M19.89 11.06a.38.38 0 1 0-.77 0 .38.38 0 0 0 .77 0zm-.68 0a.3.3 0 1 1 .6 0 .3.3 0 0 1-.6 0z"/></g><path fill="#a4a9ad" d="M14.16 2.26c-5.48 0-9.84 3-9.84 3s5.38-.43 5.38.68c0 .98-4.26 2.57-4.26 2.57s3.36.08 3.36.9c0 1.36-6.98 3.2-6.98 3.2s2.44 1.13 6.26 1.13c6.84 0 14.1-3.88 14.1-6.9 0-2.79-4.08-4.58-8.02-4.58z"/><path fill="#111" d="M14.16 2.5c-3.96 0-7.35 1.61-8.86 2.46 0 0 4.64-.33 4.64.98 0 .82-2 1.8-3.39 2.39 1.15.1 2.5.38 2.5 1.07 0 1.28-4.28 2.65-6.44 3.25.97.33 2.92.85 5.47.85 6.88 0 13.86-3.88 13.86-6.66 0-2.68-4.04-4.33-7.78-4.33z"/><path fill="#f95602" d="M6.8 12.6l-.8.22s.72.08 1.85.08c8.16 0 13.57-4.97 13.57-5.76a.5.5 0 0 0-.02-.16c-2.9 3.44-8.63 5.81-14.6 5.62z"/><path d="M14.26 3.18c-3.04 0-6.36 1.18-6.36 1.18s3.41-.17 3.41 1.25c0 1.34-2.41 2.31-2.41 2.31s1.46.35 1.46 1.19c0 1.92-4.74 3.12-4.74 3.12 9.96.48 15.64-4.84 15.64-5.83 0-.91-2.77-3.22-7-3.22z" fill="#fff"/><path fill="#b5985a" d="M14.26 3.37c-1.9 0-3.94.48-5.17.82 0 0 2.42.1 2.42 1.42 0 1.08-1.35 1.9-2.08 2.28.48.2 1.13.57 1.13 1.22 0 1.43-2.28 2.45-3.73 2.95 9.03 0 14.24-4.8 14.24-5.66 0-.78-2.68-3.03-6.81-3.03z"/><path d="M12.6 4.81s2.66.6 3.85 1.4l-5.2 1.35 4.93-.16c-1.1.8-5.1 2.72-5.1 2.72S16 9.4 19.12 6.55c-2.77-2.5-6.53-1.74-6.53-1.74z" fill="#fff"/><path fill="#111" d="M13.73 4.9s2.07.53 3.2 1.4L13 7.3l3.8-.12c-1.06.9-4.19 2.4-4.19 2.4 1.65-.43 4.25-1.34 6.19-3.03a7.67 7.67 0 0 0-5.08-1.64z"/></svg>