<svg xmlns="http://www.w3.org/2000/svg" viewBox="0 0 24 16"><g fill="#111"><path d="M10.64 14.33a.42.42 0 1 0 0 .85.42.42 0 0 0 0-.85zm0 .76a.33.33 0 1 1 0-.67.33.33 0 1 1 0 .67z"/><path d="M10.81 14.66a.14.14 0 0 0-.14-.15h-.2V15h.09v-.19h.06l.1.2h.1l-.1-.2c.05-.03.1-.08.1-.14zm-.14.05h-.11v-.1h.11c.03 0 .06.02.06.05s-.03.05-.06.05z"/></g><path fill="#111" d="M20.18 6.79s.19-.55.19-1.41c0-2.6-2.07-4.55-4.94-4.55-2.19 0-3.76 1.48-4.68 1.48-.38 0-.82-.76-.82-.76s-.62.3-.5 1.04c0 0-.5-.29-1.3-.29-.98 0-1.76.63-2 1.17-1.14.44-.94.97-1.92 1.06 0 0 .04 1.03 1.13 1.26-.56.57-1.7.67-1.7.67 0 .36.8 1.27 2.38 1-.41.59-.08 1.15-1.17 1.67 0 0 .14.23.7.37 0 0 .03.5.17 1 0 0-.6-.15-1.05.07 0 0 .58.44.64 1.26.06.92.56 2.34 2.11 2.19-.23.18-.7.35-.7.35s.42.71 1.49.71c1.09 0 1.38-1.16 2.45-1.16 1 0 1.49.75 3.13.75 3.44 0 5.87-3.41 6.14-5.68H15.7s-.45 1.55-1.5 1.55c-.7 0-1.4-.47-1.4-1.77 0-1.4 1.18-3.87 2.88-3.87.51 0 .68.4.68.86 0 .5-.2 1.03-.2 1.03h4.02zM7.48 9.88c-.79 0-1.09-.6-1.09-.6.26-.06.42-.49.67-.49.27 0 .29.39 1.38.75-.1.05-.45.34-.97.34z"/><path fill="none" d="M7.08 8.99c-.19 0-.26.3-.44.33 0 0 .24.39.82.39.3 0 .6-.17.6-.17-.77-.18-.82-.55-.98-.55z"/><path fill="#f3bc52" d="M20.04 6.61s.14-.54.14-1.23c0-2.5-1.94-4.4-4.74-4.4-2.03 0-3.74 1.51-4.67 1.51-.4 0-.88-.67-.88-.67s-.54.36-.15 1.18c0 0-.64-.52-1.6-.52-1.41 0-1.86 1.13-1.86 1.13-1.08.38-1 .98-1.87 1.05 0 0 .1.95 1.27.99-.45.82-1.81.95-1.81.95s.38.72 1.58.72c.78 0 1.32-.3 1.32-.3-1.2.65-.43 1.55-1.62 2.13 0 0 .26.15.58.2 0 0 .02.75.26 1.46 0 0-.33-.27-.98-.16 0 0 .44.5.47 1.13.06 1.02.6 2.07 1.65 2.07.58 0 .9-.28.9-.28-.14.53-1.04.88-1.04.88s.48.45 1.19.45c1.11 0 1.27-1.18 2.46-1.18.91 0 1.7.79 3.15.79 3.66 0 5.76-3.85 5.93-5.33h-3.9s-.5 1.54-1.63 1.54c-1.02 0-1.57-.76-1.57-1.95 0-1.5 1.2-4.07 3.08-4.07.68 0 .87.56.87 1.01 0 .5-.16.9-.16.9h3.63zM6.64 9.32c.18-.04.25-.33.44-.33.16 0 .21.37.97.55 0 0-.29.16-.59.16-.58 0-.82-.38-.82-.38z"/><g fill="#ce1126"><path d="M19.7 6.22s.1-.32.1-.84c0-2.21-1.87-4.01-4.36-4.01-1.93 0-3.46 1.5-4.69 1.5-.46 0-.76-.42-.76-.42s.03.95 1.28 1.47c-1.51-.07-1.9-1.08-3.08-1.08-1.16 0-1.6.91-1.6.91s.3-.3.76-.3c1.13 0 1.05 1.13 2.44 2.11-.8 0-1.1-.42-2.07-.42-1.94 0-1.52 1.28-3.04 1.63 0 0 .3.22.74.22 1.07 0 1.08-.53 1.84-.53.78 0 .66.57 1.6 1.22-.22.07-.86-.41-1.5-.41s-.98.44-1.08 1.03c-.1.59-.42.74-.42.74.64.04.69-.64 1.15-.64.43 0 .7.6 1.27.7.45.1.98.22 1.18.55-.95.1-1.14.57-1.99.57-.96 0-1.36-.75-1.36-.75-.06 1.12.68 2.63 1.98 2.63.69 0 1.18-.24 1.67.02-1.6.46-.95 1.82-2.04 2.33 0 0 .18.09.46.09.92 0 1.09-1.24 2.46-1.24 1.02 0 1.78.8 3.14.8 2.99 0 5.16-3.06 5.41-4.52h-3.08s-.57 1.56-1.92 1.56c-1.3 0-1.99-1-1.99-2.37 0-1.96 1.53-4.48 3.5-4.48.85 0 1.3.73 1.3 1.38 0 .34-.08.55-.08.55h2.78z"/><path d="M8.3 4.63s-.55-.73-1.4-.73c-1.08 0-1.4.9-2.05.96 0 0 .22.4.89.4 1.4 0 1.24-1.03 2.55-.63zm.7 7.63c-.63-.24-1.03.23-1.6.23-1.01 0-1.05-1.22-1.74-1.44 0 0 .16.35.16.56 0 .4.23 1.89 1.32 1.89.92 0 .89-.73 1.87-1.24z"/></g><path fill="#111" d="M6.4 9.27s.29.6 1.07.6c.52 0 .87-.29.97-.33-1.1-.36-1.11-.75-1.38-.75-.25 0-.4.43-.67.48zm1.65.27s-.29.17-.59.17c-.58 0-.82-.39-.82-.39.18-.04.25-.33.44-.33.16 0 .21.37.97.55z"/></svg>