<svg xmlns="http://www.w3.org/2000/svg" viewBox="0 0 24 16"><path d="M15.06 2.09H3.56v.54c0 .84.33 1.63.9 2.2h-.9v.54c0 .84.33 1.63.9 2.2h-.9v.54c0 .85.33 1.63.9 2.2h-.9v.55c0 1.68 1.3 3.05 2.88 3.05H9.1l1.81-3.06a5.38 5.38 0 1 0 4.15-8.77z"/><path d="M11.04 11.59a.38.38 0 0 0 0 .75.38.38 0 0 0 0-.75zm0 .67a.3.3 0 1 1 0-.6.3.3 0 0 1 0 .6z"/><path d="M11.2 11.88a.13.13 0 0 0-.13-.13h-.18v.43h.08V12h.06l.08.18h.09L11.1 12a.13.13 0 0 0 .09-.13zm-.13.04h-.1v-.1h.1c.03 0 .05.03.05.06s-.02.04-.05.04z"/><path fill="#FFF" d="M15.06 2.27H3.74v.35c0 1 .48 1.88 1.2 2.4h-1.2v.35c0 1 .48 1.87 1.2 2.39h-1.2v.36c0 1 .48 1.87 1.2 2.38h-1.2v.36c0 1.59 1.2 2.87 2.7 2.87H9l1.89-3.2a5.2 5.2 0 1 0 4.17-8.26z"/><path d="M15.06 2.62H4.2c0 1.4 1.05 2.52 2.34 2.52h4.09c.06 0 .11.05.11.12 0 .06-.05.11-.11.11H4.2c0 1.39 1.05 2.52 2.34 2.52H9a.12.12 0 1 1 0 .23H4.2c0 1.38 1.05 2.5 2.34 2.5h.84c.06 0 .12.06.12.13 0 .06-.06.11-.12.11H4.2c0 1.39 1.05 2.52 2.34 2.52h2.25l4.22-7.13a2.39 2.39 0 1 1-.33 1.26l-1.6 2.7a4.83 4.83 0 1 0 3.98-7.59z"/><circle fill="#F74902" cx="15.06" cy="7.46" r="1.37"/></svg>