<svg xmlns="http://www.w3.org/2000/svg" viewBox="0 0 24 16"><g fill="#111"><path d="M19.52 11.1a.42.42 0 0 0 0 .83.42.42 0 0 0 0-.84zm0 .74a.33.33 0 0 1-.33-.33.33.33 0 1 1 .33.33z"/><path d="M19.7 11.41a.14.14 0 0 0-.15-.14h-.2v.48h.09v-.2h.06l.1.2h.1l-.1-.2c.05-.02.1-.07.1-.14zm-.15.06h-.11v-.1h.11c.03 0 .05.02.05.04 0 .03-.02.06-.05.06z"/></g><path fill="#a4a9ad" d="M22 5.49c-.27-1.92-1.95-2.52-2.96-2.7l.87-.57s-4.51-.98-10.34.86C4.24 4.76 1.55 7.4 2 10.5c.27 1.92 1.95 2.52 2.96 2.7l-.86.57s4.5.98 10.34-.86C19.76 11.24 22.45 8.6 22 5.5z"/><path fill="#fff" d="M21.74 5.57C21.37 3.03 18.24 3 18.24 3l.9-.6s-4.28-.69-9.53.97c-4.65 1.47-7.8 3.88-7.35 7.07.37 2.54 3.5 2.58 3.5 2.58l-.9.6s4.28.69 9.53-.97c4.65-1.47 7.8-3.88 7.35-7.07z"/><path fill="#ce1126" d="M21.25 5.72c-.46-3.24-5.48-2.55-8.08-1.73-1.39.44-2.3.88-2.3.88 4.7-1.68 8-.48 8-.48-1.56-.1-3.02.4-3.02.4s1.57.32 1.78 1.78c.28 1.93-1.36 4.14-6.43 5.74-2.77.88-5.1 1.02-5.1 1.02s3.29.48 8.24-1.09c4.58-1.44 7.3-3.78 6.91-6.52z"/><path fill="#ce1126" d="M12 9.88c1.41-.44 2.6-1.1 3.25-1.74.35-.35.54-.69.5-.98a.54.54 0 0 0-.14-.29c-.49-.53-2.14-.52-4.02.07-2.19.7-3.87 1.91-3.75 2.72.12.81 1.98.91 4.17.22z"/><path fill="#111" d="M11.82 9c.9-.29 1.61-.78 1.57-1.09s-.82-.33-1.74-.05c-.9.3-1.61.78-1.56 1.1.04.3.81.33 1.73.04z"/><path fill="#111" d="M5.12 11.6c1.57.12 3.03-.39 3.03-.39s-1.57-.32-1.78-1.78C6.09 7.5 7.73 5.29 12.8 3.68c2.77-.87 5.1-1 5.1-1s-3.28-.49-8.24 1.07c-4.58 1.45-7.3 3.79-6.91 6.52.46 3.24 5.49 2.56 8.08 1.74 1.39-.44 2.3-.89 2.3-.89-4.7 1.69-8 .49-8 .49z"/><path fill="#111" d="M11.29 5.73c-1.74.55-2.65 1.24-2.97 1.97L7.7 9.18s.77-1.38 3.88-2.36c2.34-.74 3.77-.55 4.04.06.08.09.13.18.14.3.04.28-.15.62-.5.97a9.87 9.87 0 0 1-2.69 2.32c.79-.25 4.31-1.92 4.05-3.7-.23-1.67-2.3-1.99-5.32-1.03z"/></svg>