<svg xmlns="http://www.w3.org/2000/svg" viewBox="0 0 24 16"><g fill="#003893"><path d="M18.4 13.74a.41.41 0 1 0 0 .82.41.41 0 0 0 0-.82zm0 .73a.32.32 0 1 1 0-.64.32.32 0 0 1 0 .64z"/><path d="M18.57 14.05a.14.14 0 0 0-.14-.14h-.2v.47h.1v-.19h.06l.09.2h.1l-.1-.2c.05-.03.1-.08.1-.14zm-.14.05h-.1V14h.1c.03 0 .06.02.06.05s-.03.05-.06.05z"/></g><path d="M12 .59C7.75.59 4.3 3.9 4.3 8s3.45 7.41 7.7 7.41S19.7 12.1 19.7 8 16.25.59 12 .59z" fill="#f95602"/><path d="M19.2 7.56l-.02-.36a6.85 6.85 0 0 0-3.02-4.87 7.41 7.41 0 0 0-8.78.34A6.82 6.82 0 0 0 4.78 8c0 3.83 3.23 6.94 7.22 6.94s7.23-3.1 7.23-6.94c0-.15 0-.3-.02-.44" fill="#003893"/><path d="M11.29 11.92l.99-.23a.3.3 0 0 0 .2-.17l.6-1.3.55-1.15.38-.82.19-.4.39-.82 2.04-4.35c-.15-.12-.3-.24-.47-.35l-1.28 2.6-1.54-3.3a.1.1 0 0 0-.1-.07h-2.66a.11.11 0 0 0-.11.11v2.17L9.29 1.57a7.3 7.3 0 0 0-1.91 1.1V6.7c0 .07.05.12.1.12H9c.06 0 .11-.05.11-.12V4.9l1.12 1.86c.02.04.05.06.1.06h1.7c.05 0 .1-.05.1-.12V3.2l1.75 3.77-.2.42-1.24 2.5-.2.43a.3.3 0 0 1-.23.16l-3.32.46a.12.12 0 0 0-.08.04.11.11 0 0 0-.02.08l.2 1.33c0 .03.03.06.05.08s.06.02.09.01l.33-.07" fill="#fff"/><g fill="#f95602"><path d="M13.16 10.06l-.64-.33-.08.16.65.33zm.26-.54l-.63-.33-.08.16.63.33zm-.85.1l.65.33.07-.16-.64-.33zm-2.31 2.55l-.06-.37a.05.05 0 0 0-.04-.04l-.65-.16c-.02 0-.05.01-.06.04l-.19.76-.34 1.33c0 .03 0 .05.03.06l.38.12h.04l.03-.03.1-.39.51.17.08.47c0 .02.01.03.03.04l.4.13.05-.01a.05.05 0 0 0 .01-.05l-.32-2.07z"/><path d="M13.67 7.4c-.44-.08-1 .22-1.39.01-.44-.01-.97.02-1.36-.2-.26-.03-.54-.03-.77-.13-.13.24-.27-.07-.42-.03a.22.22 0 0 0-.15.24c-.05.24-.34.1-.5.2-.28.16-.43-.24-.7-.24-.18-.05-.4-.03-.5.16-.16.04-.24-.16-.42-.1-.12-.07.06-.13.01-.22-.1-.11-.3-.2-.44-.1-.02.2.18.36.07.56-.1.02-.1-.14-.19-.17-.1-.05-.1.07-.16.12-.2 0-.16-.23-.22-.35-.23-.04-.42.1-.61.19-.13.1-.05.32-.16.43-.1-.07-.08-.2-.17-.28-.08-.05-.17-.08-.26-.05-.08.02-.1.09-.13.17 0 .04.05.07.1.06.06.02.1.08.07.14-.03.04-.04.12-.12.1-.07-.07-.18-.17-.29-.12-.04.04 0 .1 0 .13-.05.17.07.26.16.38.03.13.05.32-.05.41-.13.03-.17.17-.18.28.03.12.16.1.2.2.02.08-.06.13-.13.18l.1.38a.55.55 0 0 1 .22-.06c.04.02.07.06.07.1.05.1.14.18.24.13.1-.05.2-.19.3-.13v1.28l.35.48c.08.13.14.1.14 0V9.75c.17 0 .38.01.54-.05.33.02.71.11 1-.07.24-.05.48-.13.74-.13.19-.01.35.07.52.05.26-.3.64.06.96-.13.24-.13.45.1.72.05.16 0 .41-.18.55.04a.4.4 0 0 0 .4-.04c.06-.23.33-.14.5-.2.12-.02.34-.14.5-.13l.03-.06.63.32.08-.17-.63-.32.75-1.53zm1.07.15c.18-.24.64.04.7-.32.07-.2.29-.12.42-.22.04-.07-.03-.12-.04-.18.17-.19.4-.32.6-.52.13-.13.34-.1.51-.1.08-.05.2-.12.22-.22l-.03-.03c-.24-.04-.5 0-.74.08-.25.23-.53.4-.84.5-.2.26-.64.38-.95.49l-.39.82c.2-.05.46-.19.54-.3z"/><path d="M7.67 10.63l-.69-.62c-.27-.24-.45-.03-.45.12v.65c0 .12.04.2.1.27l.62.81c.04.05.05.1.05.15v.09c0 .07-.06.06-.11.02L7.05 12c-.05-.03-.04-.11-.04-.18v-.08c0-.04-.05-.12-.1-.16l-.31-.29c-.05-.04-.07 0-.07.12v.37c0 .1.06.3.2.42l.72.65c.18.15.33 0 .33-.36v-.4c0-.21-.1-.41-.2-.55l-.53-.69s-.04-.06-.04-.14v-.07s.01-.1.1-.03l.13.12c.04.03.06.08.06.14v.1c0 .05.01.1.07.14l.25.23c.1.1.16.03.16-.06v-.38a.35.35 0 0 0-.1-.27zm1.17 2.66l-.38-.23v-1.88a.07.07 0 0 0-.03-.06l-.35-.2c-.02-.02-.05-.02-.07 0s-.03.03-.03.05v2.23c0 .02.01.04.03.05l.76.46h.07a.06.06 0 0 0 .03-.06v-.3a.06.06 0 0 0-.03-.06zm4.9-1.48l-.99.2a.06.06 0 0 0-.05.06v2.23c0 .02.01.03.03.05s.03.01.05.01l.97-.17c.47-.09.47-.38.47-.44V12s0-.28-.48-.19zm1.71-.66a.05.05 0 0 0-.05 0l-.89.43a.05.05 0 0 0-.03.04v2.25c0 .02.01.03.03.04h.04l.9-.4c.02 0 .03-.02.03-.04v-.32c0-.02-.01-.03-.03-.04a.05.05 0 0 0-.04 0l-.38.16a.05.05 0 0 1-.07-.04v-.43c0-.02.01-.03.03-.04l.46-.2c.02-.01.03-.03.03-.05v-.32c0-.02-.01-.03-.03-.04a.05.05 0 0 0-.04 0l-.38.18h-.05c-.02 0-.02-.03-.02-.05v-.45c0-.02.01-.04.03-.05l.46-.22c.02 0 .03-.03.03-.05v-.32c0-.02-.01-.04-.03-.04zm1.08.73s.28-.21.28-.6v-.58c0-.31-.2-.34-.43-.18l-.74.5a.05.05 0 0 0-.02.05v2.22c0 .02 0 .04.02.04h.05l.38-.26c.02 0 .02-.02.02-.04v-.85l.08-.06.42.55c.01.02.04.02.07 0l.27-.18.02-.03v-.04l-.42-.54zm1.04-2.57l-.48.53a.63.63 0 0 0-.15.46v.22c0 .16.04.3.24.35l.26.06c.09.02.14.04.14.1v.06c0 .1-.03.11-.07.15s-.12.13-.12.02v-.1c0-.08-.04-.08-.1-.03l-.3.31c-.03.04-.05.07-.05.14v.2c0 .35.19.43.38.18l.45-.6c.19-.25.19-.5.19-.64 0-.17-.15-.24-.25-.26l-.22-.04c-.08-.01-.1-.07-.1-.14v-.13c0-.03 0-.13.06-.2l.04-.04c.05-.05.08-.05.08.04v.17c0 .04.02.06.06.02l.27-.28c.05-.05.06-.13.06-.18v-.3c0-.3-.21-.27-.39-.07zm-3.14.3c-.56 0-1.02.15-1.02.34v.57c0 .19.46.34 1.02.34s1.02-.15 1.02-.34v-.57c0-.19-.46-.34-1.02-.34zm-.18-.8c.22.16.25-.16.43-.17.11-.03.2.07.27.15a.8.8 0 0 0 .8-.14c.23-.1.52-.06.76-.16.15-.1.3-.23.52-.19l2.27-.78V7.2l-.27.05c-.1.34-.5.12-.66.36-.21.01-.44.03-.55.24-.07.02-.17.02-.2-.06.05-.2-.27-.26-.12-.47-.01-.1-.12-.1-.19-.07-.14.05-.15.2-.17.32-.19.04-.2-.3-.42-.22-.21.2-.48.3-.8.24-.54-.04-.72.67-1.19.82-.2.04-.5-.08-.72-.16l-.38.81.22-.05c.15-.04.27-.13.4-.2zm-1.87 3.22l-.36-.04c-.01 0-.03 0-.04.02l-.02.04v1.24l-.66-1.35-.01-.02-.04-.02-.51-.06a.06.06 0 0 0-.07.06v2.37c0 .03.02.05.05.06l.36.05c.02 0 .03 0 .05-.02a.06.06 0 0 0 .02-.04v-1.44l.77 1.5c.01.03.03.04.06.04l.4-.02c.03 0 .05-.03.05-.06V12.1a.06.06 0 0 0-.05-.07z"/></g><path d="M13.54 12.3l-.36.08v1.5l.38-.07c.19-.03.19-.24.19-.24v-1.11s0-.2-.21-.15zm2.73-1.23l-.15.1a.05.05 0 0 0-.02.05v.4c0 .01 0 .03.02.04h.05l.11-.08c.06-.04.1-.13.1-.21v-.23c0-.07-.05-.11-.1-.07zm-6.33 2.11l-.14-.89-.2.78zM6.38 9.76v-.48l-.48-.42v.93c.14-.04.32.01.48-.03z" fill="#003893"/><ellipse cx="14.43" cy="9.95" rx="1.02" ry=".34" fill="#fff"/></svg>