<svg xmlns="http://www.w3.org/2000/svg" viewBox="0 0 24 16"><path fill="#8E9090" d="M20 8A8 8 0 1 1 4 8a8 8 0 0 1 16 0"/><path fill="#041E41" d="M19.46 8A7.46 7.46 0 1 1 4.54 8a7.46 7.46 0 0 1 14.92 0"/><path fill="#FFF" d="M12.72 2.55L12 .73l-.77 1.82a5.51 5.51 0 1 0 1.5 0"/><path fill="none" d="M11.54 11l.06.13zm-2.9-4.03v.54zm2.65-1.17l-.11 1.28-2.09 1 2.09-1 .1-1.28.08-.35zm4.08 1.16l-.45 1.11.45-1.11zM14.4 9.3l-1.39.1z"/><path fill="#7B303E" d="M12.57 5.1l-.57.24-.56-.26-1.05-.68.42 2.5L9.7 5.78l-.03.88-1.64-.61.6 1.65h-.89l.9.78v.96l.33-.17.62.04.6.53-.36.43.6.1m-.31.73v.83l1.31-.65.1-.25.47 2.28.48-2.3.1.27 1.32.65v-.83l-.5-.7h.02l.77-.12-.35-.44.6-.53.6-.04.34.17v-.95l.9-.78h-.88l.6-1.66-1.64.61-.03-.88L13.2 6.9l.42-2.5-1.06.7M11.54 11l.06.12-.06-.12zm2.86-1.7"/><path d="M11.07 9.41L9.7 9.32l.57.5c0 .03-.3.4-.3.4l.66.11.43-.6V9.4zm.35-4.25l-.93-.61v.01l.75 1.81.05-.57.13-.64zM10.82 7L9.76 5.96l-.04.8-1.56-.58 1.53 1.6 1.28-.61zm.84 4.28L12 13v-.94zm-3.72-3.5l.7.6v-.6zm5.58-3.22l-.93.61.1.48zm2.35 1.62l-1.57.59-.45.79.3.15z" fill="#AC162C"/><path fill="#55565A" d="M15.37 6.96l-.45 1.11-2.08-1-.11-1.27L12 2.48 11.3 5.8l-.11 1.28-2.09 1-.46-1.1v2.46l.34-.17 2.1.14v.31l-.96 1.38v.83l1.32-.65.11-.27.46 1.05.47-1.05.11.27 1.32.65v-.83l-.96-1.38v-.3l2.1-.15.34.17V7.5z"/><path fill="#8E9090" d="M11.43 5.82l-.12 1.35-.06.77-.14-.67-2.1 1-.23-.57v1.5l.16-.07 2.27.15v.49l-.95 1.37v.56l1.06-.52.16-.42-.09-.45.15.35.46 1.04V3.06z"/><g fill="#041E41"><path d="M18.15 14.56a.41.41 0 1 0 0-.82.41.41 0 0 0 0 .82zm0-.74a.32.32 0 1 1 0 .65.32.32 0 0 1 0-.65z"/><path d="M18.07 14.2h.06l.09.18h.1l-.1-.2c.06-.02.1-.07.1-.13a.14.14 0 0 0-.14-.14h-.2v.47h.09v-.19zm0-.2h.1c.03 0 .06.02.06.05 0 .03-.02.05-.05.05h-.11V14z"/></g></svg>