<svg xmlns="http://www.w3.org/2000/svg" viewBox="0 0 24 16"><path fill="#111" d="M18.52.22H5.48V11.07l.1.07 6.27 4.53.15.11.15-.1 6.26-4.53.1-.08V.22z"/><path fill="#FFF" d="M5.73 10.97L12 15.5l6.27-4.53V.5H5.73v10.47z"/><path fill="#111" d="M16.4 13.43a.13.13 0 0 0-.13-.12h-.18v.43h.08v-.18h.05l.09.18h.09l-.09-.19a.13.13 0 0 0 .09-.12zm-.13.05h-.1v-.1h.1c.02 0 .04.03.04.05s-.02.05-.04.05z"/><path fill="#111" d="M16.24 13.14c-.2 0-.38.17-.38.38a.37.37 0 1 0 .38-.38zm0 .67a.3.3 0 1 1 .3-.29.3.3 0 0 1-.3.3z"/><path d="M6.15 10.76L12 14.99l5.85-4.23V8.18H6.15v2.58zm0-2.94h11.7V.92H6.15v6.9z" fill="#ACAEA9"/><path d="M6.52 10.57L12 14.53l5.48-3.96V8.82H6.52v1.75zm0-3.3h10.96V1.29H6.52v6z" fill="#111"/><path d="M7.86 5.58v-1.3c0-1.5.35-2.05.35-2.05H6.85s.35.54.35 2.05c0 1.51-.35 2.05-.35 2.05h4.46s.37-.5.37-1.28c0 0-.51.53-1.7.53H7.85zm4.2-3.35s.36.54.36 2.05c0 1.51-.35 2.05-.35 2.05h1.01V4.8h3.06v1.53h1.02s-.36-.54-.36-2.05c0-1.5.35-2.05.35-2.05h-5.08z" fill="#ACAEA9"/><path d="M12.22 2.33c.1.25.3.84.3 1.95 0 1.11-.2 1.7-.3 1.95H13V4.71h3.25v1.52H17a5.1 5.1 0 0 1-.3-1.95c0-1.1.2-1.7.3-1.95h-4.78zM7.77 5.68v-1.4c0-1.1.18-1.7.29-1.95H7c.1.25.3.84.3 1.95 0 1.1-.2 1.7-.3 1.95h4.26c.07-.1.27-.47.31-.98-.24.17-.75.43-1.6.43h-2.2z" fill="#FFF"/><path fill="#ACAEA9" d="M12.99 4.15h3.25V2.88h-3.25v1.27z"/><path d="M13.08 2.98h3.06v1.08h-3.06z"/><path fill="#FFF" d="M13.65 12.63l.4-2.33-.08-.04-.4.53c-.13-.17-.39-.37-.74-.49l.15-.38-.28.11.02-.03-.35.02-.2-.37.08-.16.09-.07-.1-.19-.21.01v.12L12 9.4l-.02-.04v-.11l-.22-.02-.1.19.09.07.09.16c-.03.04-.2.33-.21.37l-.35-.02.01.03-.27-.11.15.38c-.35.11-.61.32-.75.49l-.4-.53-.07.04.4 2.33s.58.15 1.65.15c1.07 0 1.65-.15 1.65-.15z"/><path d="M11.66 12.67s-.53-.05-.84-.17c.21.03.56.08.88.08 0 0-.43-.05-.72-.15.22.02.53.06.8.06 0 0-.41-.05-.7-.15a4.4 4.4 0 0 1 1.84 0c-.29.1-.7.15-.7.15.27 0 .58-.04.8-.06-.29.1-.72.15-.72.15.32 0 .67-.05.88-.08-.31.12-.84.17-.84.17.78-.02 1.24-.13 1.24-.13l.36-2.08-.37.48a1.47 1.47 0 0 0-.86-.58l.1-.27-.55.25v-.14L12 9.76l-.26.45v.13l-.56-.25.1.27c-.39.11-.7.32-.86.58l-.36-.48.36 2.08s.46.11 1.24.13z" fill="#111"/><g fill="#ACAEA9"><path d="M11.74 10.4l-.47-.22.47 1.15v-.94zm.52 0v.93l.47-1.15-.47.21zm-.05-.03L12 10.1l-.21.27.21.26.21-.26z"/><path d="M13.66 11.81a.2.2 0 0 1-.17-.2c0-.11.09-.2.2-.2h.04l.13-.77-.58.77c.02.36-.07.51-.07.51s-.2-.07-.4-.12l-.08-.37a.16.16 0 0 1-.1-.03l-.18.35-.36-.03.1-.32-.19-.52-.2.51.1.33-.35.02-.17-.31h-.04c-.02 0-.04 0-.06-.02l-.08.4c-.21.03-.4.11-.4.11s-.1-.15-.08-.51l-.58-.77.14.77h.04c.1 0 .19.08.19.2a.2.2 0 0 1-.17.2l.12.66a4.49 4.49 0 0 1 3.08 0l.12-.66z"/></g><path d="M12.09 10.37a.1.1 0 0 0-.09-.1c-.05 0-.09.05-.09.1s.04.08.09.08c.05 0 .09-.04.09-.08zm.39.09a.1.1 0 0 0-.07-.04.09.09 0 0 0-.09.1c0 .03.03.07.07.08a.1.1 0 0 0 .04.01c.05 0 .09-.03.09-.08a.08.08 0 0 0-.04-.07zm-.86 0a.1.1 0 0 0-.07-.04.09.09 0 0 0-.09.1c0 .03.03.07.07.08a.1.1 0 0 0 .05.01c.05 0 .08-.03.08-.08a.08.08 0 0 0-.04-.07z" fill="#111"/><g fill="#FFF"><path d="M10.49 11.03l.1.13c.24-.47.72-.52.72-.52-.41.15-.58.4-.64.63l.1.12s-.02.33.05.47a.4.4 0 0 1 .07-.02c-.22-.89.48-1.05.48-1.05-.5.26-.45.7-.35 1l.14-.03.07-.36a.17.17 0 1 1 .2-.26c.04.02.07.07.07.13s-.03.11-.08.14l.16.29.25-.02-.5-1.23c-.4.11-.7.33-.84.58zm2.1.35a.17.17 0 1 1 .22-.25.16.16 0 0 1-.04.3l.07.33.14.03c.1-.3.14-.75-.35-1 0 0 .7.16.48 1.05l.07.02c.07-.14.06-.47.06-.47l.1-.12c-.07-.24-.24-.48-.65-.63 0 0 .48.05.72.52l.1-.13a1.38 1.38 0 0 0-.84-.58l-.5 1.23.25.01.17-.3z"/><path d="M11.3 11.1a.15.15 0 1 0 0 .28c.07 0 .14-.06.14-.14s-.07-.15-.15-.15zm1.52.14c0-.08-.06-.15-.14-.15s-.15.07-.15.15a.15.15 0 1 0 .3 0zm-2.45.37c0-.04-.02-.07-.06-.07h-.01l.02.13c.03 0 .05-.03.05-.06z"/><path d="M10.31 11.42l-.03.01v.02a.1.1 0 0 1 .03 0c.08 0 .15.07.15.16 0 .08-.06.14-.13.15v.03a.18.18 0 0 0 .15-.18c0-.1-.07-.19-.17-.19zm3.32.19c0 .03.02.06.05.06l.02-.13h-.01c-.04 0-.06.03-.06.07z"/><path d="M13.66 11.79v-.03a.16.16 0 0 1-.12-.15c0-.09.06-.16.15-.16a.1.1 0 0 1 .03 0v-.02h-.03c-.1 0-.17.08-.17.18 0 .09.06.16.14.18zm-1.59-1.42c0-.05-.03-.08-.07-.08s-.08.03-.08.08c0 .04.04.07.08.07s.07-.03.07-.07zm.34.22c.04 0 .07-.04.07-.08a.07.07 0 0 0-.07-.07.08.08 0 0 0-.08.07c0 .04.04.08.08.08zm-.86 0c.04 0 .08-.04.08-.08a.07.07 0 0 0-.08-.07.08.08 0 0 0 0 .15z"/></g><g fill="#111"><circle cx="11.29" cy="11.24" r=".13"/><circle cx="12.68" cy="11.24" r=".13"/><path d="M12 11.45h.03c.04 0 .07-.03.07-.07a.08.08 0 0 0-.04-.07l.02.06c0 .04-.04.08-.09.08z"/><circle cx="11.99" cy="11.37" r=".07"/><circle cx="12" cy="10.37" r=".07"/><circle cx="12.41" cy="10.51" r=".07"/><circle cx="11.55" cy="10.51" r=".07"/><path d="M11.6 12.04a.1.1 0 0 0 .03.01c.04 0 .08-.03.08-.08a.08.08 0 0 0-.05-.07c.02.02.02.04.02.06 0 .04-.04.08-.08.08zm-.66.12h.03c.04 0 .08-.03.08-.07a.08.08 0 0 0-.05-.07c.02.02.02.03.02.05 0 .05-.04.09-.08.09zm1.42-.12l.03.01c.04 0 .07-.03.07-.08a.08.08 0 0 0-.04-.07.1.1 0 0 1 .02.06c0 .04-.04.08-.08.08zm.66.12h.03c.04 0 .07-.03.07-.07a.08.08 0 0 0-.04-.07c.02.02.02.03.02.05 0 .05-.04.09-.08.09z"/><circle cx="11.6" cy="11.96" r=".07"/><circle cx="10.94" cy="12.07" r=".07"/><circle cx="12.36" cy="11.96" r=".07"/><circle cx="13.02" cy="12.07" r=".07"/><path d="M10.28 11.38h.09l-.04-.1zm.2.06l.02-.11-.1.06zm.13.02h-.1l.03.08zm-.07.2l.1-.02-.1-.05zm-.01.04l-.05.07.11.02zm-.16.13l.08.08v-.1zm3.3-.56l-.04.1h.09zm-.08.12l-.09-.06.02.1zm-.1.08h-.1l.07.07zm-.04.12l-.1.05.11.03zm-.04.2l.1-.02-.04-.07zm.15.01v.11l.07-.08zm-1.84-1.61L12 9.7l.28.48h.22l.03-.05h-.22l-.28-.48.14-.24.03-.03-.02-.04h-.05l-.01.05-.12.2-.12-.2v-.04h-.06l-.02.03.03.03.14.24-.28.47h-.22l.03.06z"/></g></svg>