<svg xmlns="http://www.w3.org/2000/svg" viewBox="0 0 24 16"><g fill="#002868"><path d="M20.08 7.28c0-1.64-1.02-3.25-2.83-4.25l-.7.56a3.85 3.85 0 0 1 1.97 3.25c0 3.08-3.8 5.86-8.03 5.86-.44 0-.86-.03-1.27-.09l-1.43 1.06c.9.3 1.9.47 2.96.47 5.02 0 9.33-3.4 9.33-6.86"/><path d="M13.69 8.43l-2.58.5 5.73-4.71-2.67.36L19.35.46l-6.03 1.6h-.24c-4.95 0-9.15 3.35-9.15 6.9 0 1.74.93 3.13 2.39 4.02l-2.23 2.55 9.6-7.1zm-9.08 0c0-3.18 3.98-5.86 8.04-5.86h.08L8.81 6.96l2.25-.36-4.43 4.3 1.8-.33L7.17 12c-1.53-.73-2.56-1.98-2.56-3.57m13.09 3.64h.1v.3h.04v-.3h.1v-.04h-.24zm.43.23l-.08-.27h-.06v.34h.04v-.29l.08.29h.04l.1-.29v.29h.03v-.34h-.06z"/></g></svg>