<svg xmlns="http://www.w3.org/2000/svg" viewBox="0 0 24 16"><path d="M12.33 9.96h-.23v.44h.23c.05 0 .08-.04.08-.08v-.28a.08.08 0 0 0-.08-.08zm-1.7-1.6l.23-.04c.03 0 .06-.02.08-.04a.1.1 0 0 0 .02-.09l-.06-.32a.12.12 0 0 0-.13-.1l-.23.05h-.02l.09.54h.02zm1.33.32h.17c.06 0 .11-.05.11-.11v-.78a.11.11 0 0 0-.11-.1h-.17a.11.11 0 0 0-.11.1v.78c0 .06.05.11.11.11zm.02 3.02l-.14.55h.28zm-1.08-1.17h.24l-.12-.54zm5.09-1.87l-.15-.08a.12.12 0 0 0-.15.05l-.36.69a.11.11 0 0 0-.01.09c0 .03.03.05.06.06l.15.08.05.01c.04 0 .08-.02.1-.06l.36-.69a.11.11 0 0 0-.05-.15z" fill="#00205B"/><path d="M12.24 16.04c-.02 0-.04 0-.06-.02a2.49 2.49 0 0 1-.66-1.53 9.24 9.24 0 0 1-2.54.8h-.01a.07.07 0 0 1-.06-.02.07.07 0 0 1-.01-.07c.1-.3.2-.55.35-.78-.34.07-.79.14-1.36.2a.07.07 0 0 1-.07-.03.07.07 0 0 1 0-.06c.07-.22.16-.42.25-.6-.42.1-.92.2-1.58.28a.07.07 0 0 1-.06-.12c.44-.63.92-1.16 1.45-1.6a4.96 4.96 0 0 1-1.13-.65.07.07 0 0 1-.03-.07 8.16 8.16 0 0 1 1.5-.7c-.45-.08-.81-.2-1.1-.35a.06.06 0 0 1-.04-.04l.01-.07c.14-.16.27-.3.42-.4a4.57 4.57 0 0 1-1.24-.78.07.07 0 0 1-.01-.1c.13-.16.28-.3.47-.45a8.89 8.89 0 0 1-1.4-1.16c0-.02.01-.04.03-.05.1-.1.22-.2.35-.28a3.69 3.69 0 0 1-.87-1.12c0-.02.02-.04.04-.05.22-.08.41-.13.6-.16-.14-.3-.26-.66-.34-1.13l.01-.06a.07.07 0 0 1 .06-.02h.01c.44.11.9.32 1.16.44.05-.25.12-.5.24-.71a.07.07 0 0 1 .06-.04 6.83 6.83 0 0 1 1.05.9c.08-.12.18-.22.3-.3l.04-.02c.03 0 .05 0 .06.02.43.54 1.1 1.28 1.83 1.81a10.6 10.6 0 0 0-.7-1.59.07.07 0 0 1 0-.06l.05-.04.37-.04a6.32 6.32 0 0 1-.74-1.62c0-.03 0-.05.02-.07A.07.07 0 0 1 9 3.5c.28.02.6.08.88.17a5.53 5.53 0 0 1 .05-1.46c0-.04.04-.06.07-.06h.02c.19.07.4.18.6.3a4.33 4.33 0 0 1 .12-1.3.07.07 0 0 1 .09-.04c.13.04.28.12.46.22.16-.45.4-.89.65-1.29a.07.07 0 0 1 .06-.03c.03 0 .05.01.06.03l.38.65.28.64a2.61 2.61 0 0 1 .48-.23c.03 0 .06.02.07.06a4.6 4.6 0 0 1 .11 1.29 3.9 3.9 0 0 1 .63-.3c.03 0 .06.02.07.06a5.53 5.53 0 0 1 .05 1.46c.27-.1.6-.15.87-.17.03 0 .05.02.06.03.01.02.02.04.01.06-.18.6-.44 1.18-.73 1.62.15.01.27.03.36.05.02 0 .04.02.05.04v.06c-.25.5-.51 1.03-.69 1.59a9.9 9.9 0 0 0 1.82-1.8.07.07 0 0 1 .06-.03h.04c.12.1.22.2.3.33a6.03 6.03 0 0 1 1-.9h.05c.03 0 .05 0 .06.03.13.21.19.45.25.7.25-.12.72-.32 1.15-.43h.02c.02 0 .04 0 .05.02.02.02.02.04.02.06-.1.46-.2.82-.35 1.13.19.03.39.08.6.16.02 0 .04.02.04.04v.06a4.72 4.72 0 0 1-.87 1.07c.13.08.25.17.36.28a.07.07 0 0 1 0 .1 8.97 8.97 0 0 1-1.38 1.1c.2.16.35.3.48.46.02.03.02.07-.01.1a4.35 4.35 0 0 1-1.25.77c.15.12.28.25.42.41.02.02.02.04.02.07a4.2 4.2 0 0 1-1.14.4c.5.16.98.37 1.45.64.02.01.04.03.04.06 0 .02 0 .04-.03.06-.41.3-.76.51-1.12.66.53.43 1 .96 1.45 1.6.01.02.02.05 0 .07a.07.07 0 0 1-.06.04c-.66-.08-1.17-.18-1.59-.29.1.19.18.4.26.6v.07a.07.07 0 0 1-.07.04c-.58-.07-1.02-.13-1.37-.2.15.22.26.47.35.78v.06a.07.07 0 0 1-.06.03h-.02a13.36 13.36 0 0 1-2.66-.83h-.01c-.01 0-.03 0-.03.02-.03.15.02.34.16.57.11.18.24.33.3.39.02.03.02.09-.01.12l-.5.45a.08.08 0 0 1-.05.02z" fill="#00205B"/><path d="M12.01.06h.02a6.79 6.79 0 0 1 .68 1.33h.02c.16-.1.33-.19.47-.24.02 0 .03 0 .03.02.1.4.14.88.11 1.32 0 .01.01.02.03.02.22-.12.44-.24.64-.31.02 0 .03 0 .03.02.09.48.13 1 .05 1.48 0 .01 0 .03.02.03.29-.1.62-.17.9-.18.02 0 .03.02.03.03a6.22 6.22 0 0 1-.76 1.64c0 .02 0 .04.02.04.14 0 .3.02.4.05.02 0 .03.02.02.03-.27.52-.54 1.08-.72 1.67l.02.03h.02a9.82 9.82 0 0 0 1.93-1.87c.13.1.23.2.3.33l.02.01h.02a6.28 6.28 0 0 1 1.03-.92l.03.01c.12.23.19.5.24.73l.02.01h.01c.36-.17.8-.35 1.17-.44.02 0 .04 0 .03.02-.08.42-.19.81-.36 1.15 0 .01 0 .03.02.03.2.03.41.09.62.17.02 0 .03.02.02.04-.25.43-.55.79-.88 1.07a.02.02 0 0 0 0 .04 2 2 0 0 1 .37.28v.04c-.42.42-.89.79-1.39 1.12a.03.03 0 0 0 0 .04c.18.14.35.29.49.46v.03a4.4 4.4 0 0 1-1.27.79c-.02 0-.02.03 0 .04.17.13.3.27.43.43v.03c-.35.18-.77.3-1.2.38a.02.02 0 0 0 0 .03c.55.18 1.06.4 1.55.67.02.01.02.03 0 .04-.36.27-.72.5-1.15.67a.02.02 0 0 0 0 .04 7.83 7.83 0 0 1 1.47 1.61c.01.02 0 .04-.02.04-.6-.07-1.15-.16-1.63-.3a.02.02 0 0 0-.03.04c.1.2.2.42.28.65 0 .01 0 .03-.02.03-.54-.06-1.03-.12-1.41-.21a.02.02 0 0 0-.03.03c.16.25.28.53.37.82.01.02 0 .03-.02.03a14.28 14.28 0 0 1-2.69-.83.07.07 0 0 0-.07.06c-.08.39.37.9.46 1 .02.02.02.04 0 .06l-.49.45h-.05c-.35-.38-.6-.85-.65-1.52a.03.03 0 0 0-.03-.03h-.01c-.76.37-1.61.63-2.55.81a.03.03 0 0 1-.03-.03c.1-.3.21-.57.37-.82a.02.02 0 0 0-.02-.04c-.39.1-.88.16-1.41.22a.03.03 0 0 1-.03-.03c.09-.23.18-.45.28-.65 0-.02 0-.04-.02-.04-.48.13-1.04.23-1.63.3-.02 0-.03-.02-.02-.04.41-.6.89-1.14 1.47-1.61a.02.02 0 0 0 0-.04 4.9 4.9 0 0 1-1.16-.67.02.02 0 0 1 0-.04c.5-.27 1-.5 1.56-.67a.02.02 0 0 0 0-.04c-.44-.07-.86-.19-1.2-.37a.03.03 0 0 1-.01-.04c.13-.15.27-.3.44-.42.02-.02.01-.04 0-.05-.48-.2-.9-.46-1.26-.78a.02.02 0 0 1 0-.03c.13-.17.3-.32.48-.46a.02.02 0 0 0 0-.04A8.95 8.95 0 0 1 5.4 7.7c.11-.1.24-.2.37-.28a.02.02 0 0 0 0-.04A3.97 3.97 0 0 1 4.9 6.3v-.03c.22-.08.43-.14.63-.17.02 0 .03-.02.02-.03a4.49 4.49 0 0 1-.36-1.15c0-.01.01-.03.03-.03a6.98 6.98 0 0 1 1.18.46l.03-.02c.05-.24.11-.5.24-.73l.02-.01h.02a6.36 6.36 0 0 1 1.03.92h.02a1.11 1.11 0 0 1 .32-.35l.02.01A9.85 9.85 0 0 0 10 7.04c.02 0 .03-.02.02-.03a10.4 10.4 0 0 0-.71-1.67c-.01-.01 0-.03.01-.03.11-.03.26-.04.4-.05.02 0 .03-.02.02-.04-.33-.5-.59-1.1-.75-1.64 0-.01 0-.03.02-.03.28.01.62.08.9.17.02 0 .03 0 .03-.02a4.3 4.3 0 0 1 .07-1.5c.2.07.43.19.64.31h.01c.01 0 .03 0 .02-.02a4.57 4.57 0 0 1 .14-1.34c.15.05.32.14.48.23h.04A6.79 6.79 0 0 1 12 .05m0-.1c-.02 0-.04 0-.05.02a10.77 10.77 0 0 0-.68 1.28 2.67 2.67 0 0 0-.46-.2.13.13 0 0 0-.07.02.11.11 0 0 0-.05.07 4.55 4.55 0 0 0-.12 1.21c-.18-.1-.36-.19-.53-.25h-.04c-.06 0-.1.03-.12.09a5.46 5.46 0 0 0-.06 1.4 3.51 3.51 0 0 0-.81-.14.12.12 0 0 0-.1.04.12.12 0 0 0-.02.1 6.9 6.9 0 0 0 .7 1.57l-.3.05a.12.12 0 0 0-.08.17c.23.45.47.93.64 1.43-.67-.51-1.29-1.2-1.7-1.7a.12.12 0 0 0-.15-.03 1.21 1.21 0 0 0-.29.29 6.17 6.17 0 0 0-1.04-.88.12.12 0 0 0-.1.06c-.06.1-.12.23-.16.37l-.08.29a8.8 8.8 0 0 0-1.1-.42.12.12 0 0 0-.15.14 5.86 5.86 0 0 0 .32 1.08c-.17.04-.35.09-.54.16a.12.12 0 0 0-.08.07l.01.1a4.58 4.58 0 0 0 .83 1.04c-.1.07-.21.15-.3.24a.12.12 0 0 0-.04.09c0 .03.01.06.04.08a9.06 9.06 0 0 0 1.32 1.08 4.2 4.2 0 0 0-.43.42.12.12 0 0 0-.02.08c0 .03.01.06.04.08a4.31 4.31 0 0 0 1.18.75c-.13.11-.24.23-.36.37a.12.12 0 0 0-.03.1c0 .04.03.07.06.09a3.47 3.47 0 0 0 .95.32 8.21 8.21 0 0 0-1.3.59.12.12 0 0 0-.06.1c0 .03.01.07.04.1a6.53 6.53 0 0 0 1.07.63 8 8 0 0 0-1.4 1.56.12.12 0 0 0-.01.12c.02.04.06.06.1.06h.02A17 17 0 0 0 8 14c-.08.16-.15.34-.22.52-.01.04 0 .08.02.11s.05.05.1.05a19.45 19.45 0 0 0 1.27-.18 3.1 3.1 0 0 0-.3.7c-.01.04 0 .08.02.1a.12.12 0 0 0 .11.05 12.37 12.37 0 0 0 1.98-.56c.18-.07.35-.14.51-.22a2.7 2.7 0 0 0 .21.81c.11.24.26.46.46.67.02.03.06.05.1.05l.08-.04.49-.45a.13.13 0 0 0 0-.18c-.4-.48-.45-.76-.44-.9a11.95 11.95 0 0 0 1.92.65c.27.07.51.13.73.17h.03a.12.12 0 0 0 .11-.15 3.97 3.97 0 0 0-.3-.7 9.32 9.32 0 0 0 1.26.18h.01a.12.12 0 0 0 .12-.16 6.86 6.86 0 0 0-.22-.52 9.75 9.75 0 0 0 1.49.27h.01c.05 0 .09-.03.1-.07a.12.12 0 0 0 0-.12 8 8 0 0 0-1.4-1.56 4.3 4.3 0 0 0 1.06-.63.12.12 0 0 0-.01-.2 8.4 8.4 0 0 0-1.3-.59 5.08 5.08 0 0 0 .94-.32.12.12 0 0 0 .04-.18 2.83 2.83 0 0 0-.36-.37 4.79 4.79 0 0 0 1.18-.76.12.12 0 0 0 .04-.08c0-.03 0-.06-.03-.08a2.7 2.7 0 0 0-.42-.42 9.1 9.1 0 0 0 1.32-1.07.12.12 0 0 0 0-.17c-.1-.1-.2-.18-.3-.25a3.72 3.72 0 0 0 .82-1.04.12.12 0 0 0 .01-.1.12.12 0 0 0-.07-.07 3.1 3.1 0 0 0-.55-.15 6.12 6.12 0 0 0 .32-1.08.12.12 0 0 0-.14-.15 5.6 5.6 0 0 0-1.1.42l-.08-.28a1.9 1.9 0 0 0-.16-.38.12.12 0 0 0-.18-.04 6.92 6.92 0 0 0-.97.86 1.31 1.31 0 0 0-.28-.29.12.12 0 0 0-.07-.02.12.12 0 0 0-.09.04 12.35 12.35 0 0 1-1.32 1.4c-.13.11-.25.22-.38.31.18-.5.41-.98.64-1.44a.12.12 0 0 0 0-.1.12.12 0 0 0-.08-.06 2.3 2.3 0 0 0-.3-.05 5.59 5.59 0 0 0 .7-1.56.12.12 0 0 0-.1-.15H15c-.26 0-.55.06-.81.14a5.62 5.62 0 0 0-.06-1.4.12.12 0 0 0-.17-.09c-.16.06-.34.15-.53.26a4.67 4.67 0 0 0-.12-1.22.12.12 0 0 0-.11-.1 2.58 2.58 0 0 0-.46.2 10.48 10.48 0 0 0-.68-1.28.1.1 0 0 0-.06 0z" fill="#FFF"/><path d="M14.59 8.07l-.32-.1.08-.23.91.3-.08.24-.3-.11h-.03l-.4 1.18-.24-.09.4-1.18h-.02zm-.47 1.65h.75v.24h-.5v.29h.34v.24h-.34v.29h.5v.25h-.75zm-.14 2.64h.26v.05c0 .05.04.08.08.08h.21c.05 0 .08-.03.08-.08v-.08a.08.08 0 0 0-.04-.07l-.46-.2c-.09-.05-.13-.14-.13-.24v-.13c0-.14.12-.26.26-.26h.37c.15 0 .26.12.26.26v.12h-.26v-.05a.08.08 0 0 0-.08-.08h-.2a.08.08 0 0 0-.09.08v.03c0 .03.02.05.04.07l.47.2c.08.05.12.14.12.23v.19c0 .14-.11.26-.26.26h-.37a.26.26 0 0 1-.26-.26v-.12zm-.43-3.92l.14-.85.26.05-.25 1.48a12.4 12.4 0 0 0-.2-.04l-.3-.86-.02-.07-.14.85-.26-.04.25-1.48.2.03.3.86.02.07zm-.07 3.52v.25h-.4v.53h-.26v-1.3h.82v.24h-.56v.28zm-.42-.94v-1.3h.25v1.06h.48v.25zm-2.52-6.14a4.38 4.38 0 0 0 1.38 1.3 29.24 29.24 0 0 1 0-1.25 2.7 2.7 0 0 1-.75-.89 2.96 2.96 0 0 0 .77.8l.01-.4A41.6 41.6 0 0 0 12 3.38c-.26-.31-.45-.6-.6-.9.18.29.39.55.61.78h.01c.02-.55.02-1.1.02-1.64a29.78 29.78 0 0 1 .07 2.52c.24-.12.48-.3.74-.52a3.1 3.1 0 0 1-.76.63v.22a25 25 0 0 0 0 1.9 4.8 4.8 0 0 0 1.37-1.4 4.64 4.64 0 0 1-1.37 1.55 43.35 43.35 0 0 0 0 .36h-.13-.01a26.21 26.21 0 0 1-.02-.54 4.25 4.25 0 0 1-1.38-1.45zm.44 7.08v.25h-.4v.28h.56v.25h-.82v-1.3h.82v.24h-.56v.28zm-.14-1.18l-.05.25h-.27l.32-1.31h.35l.33 1.3h-.27l-.05-.24zm.97.65h.35l.35 1.3h-.26l-.07-.24h-.4l-.06.25h-.27zm-.23-2.78v-.93a.3.3 0 0 1 .28-.29h.37a.3.3 0 0 1 .28.3v.92c0 .16-.12.28-.28.28h-.37a.28.28 0 0 1-.28-.28zm.83 2h-.3v.38h-.26V9.71h.56c.14 0 .26.11.26.26v.4c0 .15-.12.26-.26.26zm-1.59-3.13a.3.3 0 0 1 .33.24l.08.48a.28.28 0 0 1-.17.3h-.02l.01.03.28.4-.25.03-.29-.4v-.01h-.02l-.1.02h-.02l.07.45-.26.04-.24-1.48.6-.1zm-.84 4.97v.25h-.76v-1.3h.25v1.05zm-.04-1.46v-.6l-.24.52-.23-.53v.6h-.25v-1.3h.2l.28.65.29-.65h.2v1.3zM7.4 7.29h-.02-.03c-.39 0-.74-.1-1.07-.3v-.02a2.05 2.05 0 0 0 1.02.22 20.56 20.56 0 0 0-.33-.4h.01c.04-.24.02-.46-.06-.68h.01c.1.22.15.47.13.73l.01.03c.25.22.49.44.7.65 0-.3-.08-.58-.25-.83v-.01c.23.26.35.58.36.93v.03a9.27 9.27 0 0 1 .1.12l-.09.04-.49-.51zm1.23 2.5l-.58-1.1h-.01l-.3.16-.1-.22c.27-.16.56-.3.85-.44l.11.22-.3.14-.01.01.57 1.12-.23.12zm.46-1.84a20.32 20.32 0 0 1 .43-.13.3.3 0 0 1 .28.2l.3.88c.02.07.01.15-.02.21a.28.28 0 0 1-.16.15 20.43 20.43 0 0 0-.45.13.28.28 0 0 1-.26-.19l-.3-.88a.3.3 0 0 1 .18-.37zm4.81 5.83a2.6 2.6 0 0 1-.44-.04c.14.13.4.26.55.32l.07.03-.07-.01c-.18-.03-.54-.2-.74-.38h-.01c-.33-.07-.6-.17-.88-.17-.37 0-.63.08-.76.44 0-.08 0-.15.02-.22a1.23 1.23 0 0 0-.61-.22c-.4 0-.92.45-1.31.5.19-.07.4-.21.62-.34a3.2 3.2 0 0 0-1.32.12 2.8 2.8 0 0 1 1.45-.2c.2-.1.38-.19.55-.19a1.3 1.3 0 0 1 .67.22c.13-.19.39-.26.66-.26.44 0 1.1.32 1.63.32.59 0 .75-.05.93-.1-.17.07-.43.18-1 .18zm2.4-4.9l-.42.82a.28.28 0 0 1-.38.12l-.33-.17a.28.28 0 0 1-.12-.38l.43-.83a.3.3 0 0 1 .26-.15c.04 0 .08 0 .12.03.11.05.22.1.33.17.14.07.2.24.12.38zm.22-1.53h.12c.26 0 .52-.05.8-.18h.01c-.3.19-.63.28-1.01.28a15.97 15.97 0 0 0-.34.33l-.1-.05v-.01a14.22 14.22 0 0 1 .78-.76c-.03-.3 0-.55.1-.79a2.15 2.15 0 0 0-.02.73c.36-.34.7-.67 1.02-1h.01a18.15 18.15 0 0 1-1.37 1.45z" fill="#00205B"/><path d="M9.54 9.11h.04c.05-.03.1-.04.16-.06a.12.12 0 0 0 .07-.06.12.12 0 0 0 0-.08l-.25-.74a.11.11 0 0 0-.14-.07l-.16.05a.11.11 0 0 0-.07.15l.25.73c.01.05.05.08.1.08z" fill="#00205B"/><path d="M11.92 6.33a26.21 26.21 0 0 0 .03.54h.14v-.01a41.63 41.63 0 0 1 0-.37 4.62 4.62 0 0 0 1.37-1.53h-.01a4.81 4.81 0 0 1-1.37 1.39 24.48 24.48 0 0 1 .02-2.13c.27-.15.51-.35.75-.6a3.5 3.5 0 0 1-.76.5c.01-.92 0-2-.05-2.5h-.01A40.82 40.82 0 0 1 12 3.24c-.22-.23-.42-.5-.6-.77h-.01a4.99 4.99 0 0 0 .62.92 37.37 37.37 0 0 1-.08 1.44 3 3 0 0 1-.76-.8c.18.36.44.65.75.9l.01.03v1.22h-.01a4.41 4.41 0 0 1-1.38-1.31c.31.56.82 1.09 1.38 1.45zM7.89 7.8l.1-.04v-.01l-.1-.11-.01-.03c0-.35-.13-.67-.35-.93.16.26.24.54.24.84a15.58 15.58 0 0 0-.7-.68 1.4 1.4 0 0 0-.14-.73c.07.22.09.44.05.67-.28-.25-.58-.55-.93-.92A15.72 15.72 0 0 0 7.3 7.2h-.12c-.29 0-.58-.07-.9-.21.33.2.68.3 1.07.3h.05a20.79 20.79 0 0 1 .49.52zm9.1-.92c.32-.32.62-.65.9-.97l-1.03.99c-.04-.23-.03-.48.02-.73-.1.24-.13.5-.1.79 0 0 0 .02-.02.03a15.05 15.05 0 0 0-.76.75l.1.04h.01a19.42 19.42 0 0 1 .33-.33c.38 0 .72-.1 1.01-.27v-.01a1.97 1.97 0 0 1-.93.18l.47-.47zm-4.64 6.5c-.27 0-.53.07-.66.26a1.3 1.3 0 0 0-.67-.22 1.19 1.19 0 0 0-.55.19c-.5-.07-.98.02-1.45.2a3.23 3.23 0 0 1 1.32-.12c-.22.13-.43.27-.62.34.4-.05.9-.5 1.3-.5.28 0 .55.17.62.22a.55.55 0 0 0-.02.22c.13-.36.4-.45.76-.45.28 0 .55.1.88.18.2.17.57.35.75.38l.07.01-.07-.03a1.94 1.94 0 0 1-.54-.32c.13.02.28.04.43.04.58 0 .84-.1 1-.17-.17.03-.33.09-.91.09-.54 0-1.2-.32-1.64-.32zM8.31 8.55l.3-.14-.12-.22c-.3.13-.58.28-.86.44l.12.22.29-.16h.02l.57 1.1.23-.11-.57-1.12h.02zm1.16.84c.03 0 .07 0 .1-.02l.35-.11a.28.28 0 0 0 .18-.35L9.8 8a.3.3 0 0 0-.28-.2l-.09.02-.34.12a.29.29 0 0 0-.18.37l.3.88c.04.11.14.19.26.19zm-.21-1.24a10.2 10.2 0 0 1 .2-.06c.04 0 .09.03.1.08l.25.74a.1.1 0 0 1 0 .08.1.1 0 0 1-.07.06 30.23 30.23 0 0 1-.2.06.11.11 0 0 1-.1-.08l-.25-.73a.11.11 0 0 1 .07-.15zm2.97.78c.16 0 .28-.12.28-.28v-.93a.3.3 0 0 0-.28-.29h-.37a.3.3 0 0 0-.28.3v.92c0 .16.12.28.28.28h.37zm-.38-1.13c0-.07.05-.12.1-.12h.18c.06 0 .11.05.11.12v.77c0 .06-.05.11-.11.11h-.17a.11.11 0 0 1-.12-.11v-.78zm-.07 4.7h.4l.07.24h.26l-.35-1.3h-.35l-.36 1.3h.27l.06-.25zm.2-.8l.14.55h-.28l.14-.55zm.69-1.31v-.41a.26.26 0 0 0-.26-.26h-.56v1.3h.25v-.38h.31c.14 0 .26-.11.26-.26zm-.26-.07c0 .04-.03.08-.08.08h-.23v-.44h.23c.05 0 .08.04.08.08v.28zm-3.2 1.11v1.3h.77v-.24h-.5v-1.06zm.98-1.71H10l-.29.65-.28-.65h-.2v1.3h.25v-.6l.23.53.24-.53v.6h.25zm.53-.66l-.07-.45h.02l.1-.02h.02l.29.4.25-.03-.28-.4-.01-.02h.02a.28.28 0 0 0 .17-.3l-.08-.48a.3.3 0 0 0-.33-.24l-.6.1.24 1.48.26-.04zm-.18-1.24l.23-.04c.07-.01.12.03.13.1l.06.31a.1.1 0 0 1-.02.09.12.12 0 0 1-.08.04l-.23.04h-.02l-.1-.54h.03zm.71 3.2h.27l-.33-1.3h-.35l-.32 1.3h.27l.05-.24h.36l.05.25zm-.35-.49l.12-.54.12.54h-.24zm2.74 1.15v-.25h-.82v1.3h.26v-.52h.4v-.25h-.4v-.28zm-.61-4.2l-.25 1.48.26.04.14-.85.03.07.29.86.2.04.25-1.48a16.9 16.9 0 0 0-.25-.05l-.15.85-.02-.08-.3-.85a14.7 14.7 0 0 0-.2-.03zm1.21 5.26h.37c.15 0 .26-.12.26-.26v-.19c0-.1-.03-.18-.12-.23l-.47-.2a.09.09 0 0 1-.04-.07v-.03c0-.05.04-.08.08-.08h.21c.05 0 .08.03.08.08v.05h.26v-.12a.26.26 0 0 0-.26-.26h-.37a.26.26 0 0 0-.26.26v.14c0 .1.04.18.13.23l.46.2c.02.02.04.04.04.07v.08c0 .05-.03.08-.08.08h-.2a.08.08 0 0 1-.09-.08v-.05h-.26v.12c0 .14.12.26.26.26zm.63-1.96h-.5v-.29h.34v-.24h-.34v-.29h.5v-.24h-.75v1.3h.75zm-1.08 0h-.48V9.72h-.25v1.3h.73zm.66-1.43l.4-1.19h.02l.31.12.08-.24c-.3-.1-.6-.21-.91-.3l-.08.23.31.1h.02l-.4 1.2.25.08zm-3.3 2.33v-.25h-.83v1.3h.82v-.24h-.56v-.28h.4v-.25h-.4v-.28zm5.04-3.2l-.33-.17a.3.3 0 0 0-.39.13l-.42.83a.28.28 0 0 0 .12.38l.33.17c.04.02.09.03.13.03.1 0 .2-.06.25-.15l.43-.83a.29.29 0 0 0-.12-.39zm-.15.33l-.36.7a.11.11 0 0 1-.1.05l-.05-.01-.15-.08a.11.11 0 0 1-.06-.06v-.09l.36-.69a.12.12 0 0 1 .16-.05l.15.08c.05.03.08.1.05.15z" fill="#FFF"/><path d="M15.37 15.01v.27h-.06V15h-.08v-.07h.22v.07h-.08zm.37.27v-.2l-.06.12h-.06l-.06-.12v.2h-.06v-.34h.06l.09.18.09-.18h.06v.34h-.07z" fill="#00205B"/></svg>