<svg xmlns="http://www.w3.org/2000/svg" viewBox="0 0 24 16"><g fill="#0038A8"><path d="M18.56 14.15a.41.41 0 1 0-.82 0 .41.41 0 0 0 .82 0m-.73 0a.32.32 0 1 1 .64 0 .32.32 0 0 1-.64 0"/><path d="M18.32 14.38l-.1-.2a.14.14 0 0 0-.04-.27h-.2v.47h.09v-.19h.06l.09.2h.1zm-.14-.28h-.11V14h.1c.04 0 .06.02.06.05 0 .03-.02.05-.05.05"/></g><path fill="#0038A8" d="M12.45.38c.9 1.44 1.32 1.96 1.32 2.77 0 .96-.8 1.74-1.77 1.74s-1.77-.78-1.77-1.74c0-.8.41-1.33 1.32-2.77a7.63 7.63 0 1 0 .9 0"/><path fill="#FFF" d="M12 14.94A6.94 6.94 0 0 0 13.79 1.3c.15.2.68.92.68 1.85 0 1.34-1.1 2.43-2.47 2.43s-2.46-1.1-2.46-2.44c0-.93.52-1.65.68-1.84A6.94 6.94 0 0 0 12 14.94"/><path fill="#0038A8" d="M13.44 8.83h-.5v.8a.29.29 0 0 1-.57 0V8.6h.58v-.75h-.58v-.58a.29.29 0 0 1 .58 0v.36h.5V5.96h-2.11v1.03c.2 0 .37.17.37.37V9.7c0 .12-.1.22-.21.22v4.25c0 .3-.16.44-.24.49a5.94 5.94 0 0 0 1.64-.03s.54-.1.54-.59v-5.2z"/><path fill="#0038A8" d="M11.34 8.83h-.5v.88a.21.21 0 1 1-.42 0V7.2c0-.13.1-.22.21-.22V5.96H9.55v1.03c.12 0 .21.1.21.21v2.5c0 .12-.1.22-.2.22v3.7c0 .3-.18.4-.26.44.48.24 1 .42 1.54.53 0 0 .5.07.5-.43V8.83z"/><path fill="#0038A8" d="M9.4 13.62v-3.7a.21.21 0 0 1-.22-.22V7.2c0-.12.1-.21.21-.21V5.96H8.31v1.03c.12 0 .21.1.21.21v2.5c0 .12-.1.22-.2.22v2.52c0 .52-.28.6-.42.61.33.33.7.61 1.12.85 0 0 .37.15.37-.28m8.36-5.98V6.51c0-.3-.25-.55-.55-.55h-.65c-.3 0-.55.25-.55.55v1.51c0 .08.05.2.11.25l.87.77c.06.06.1.17.1.25v.33a.3.3 0 0 1-.58 0v-.79H16v4.32c1.08-1 1.75-2.4 1.75-3.95v-.22a.38.38 0 0 0-.11-.24l-.87-.78a.37.37 0 0 1-.1-.24V7.2a.21.21 0 0 1 .42 0v.44h.66z"/><path fill="#0038A8" d="M8.15 12.44V6.5c0-.3-.24-.55-.55-.55h-.8c-.3 0-.55.25-.55.55v2.7c0 1.34.51 2.58 1.35 3.53.17.22.55.28.55-.3m7.48-2.74V8.48c0-.21-.23-.31-.23-.31s.23-.1.23-.3V6.5c0-.3-.24-.55-.55-.55H13.6v1.03c.12 0 .21.1.21.21v2.5c0 .12-.1.22-.2.22v4.12c0 .22-.1.38-.21.5.39-.1.76-.23 1.12-.4 0 0 .25-.11.25-.58V9.91a.3.3 0 0 1-.3-.3v-.9a.23.23 0 0 1 .46 0v4.9c0 .14-.02.26-.05.35.3-.16.57-.35.83-.56 0 0 .14-.1.14-.65V9.91a.21.21 0 0 1-.22-.2"/><path fill="#FFF" d="M7.2 6.99a.29.29 0 0 0-.29.29v2.35c0 .16.13.28.3.28s.28-.12.28-.28V7.28a.29.29 0 0 0-.29-.29m7.52.87c.14 0 .25-.1.25-.25v-.37a.25.25 0 0 0-.25-.25.25.25 0 0 0-.25.25v.37c0 .14.11.25.25.25"/><path fill="#D14414" d="M13.29 3.17c0-.9-.78-1.39-1.29-2.65-.5 1.26-1.29 1.75-1.29 2.65 0 .62.51 1.22 1.29 1.22s1.29-.6 1.29-1.22"/></svg>