<svg xmlns="http://www.w3.org/2000/svg" viewBox="0 0 24 16"><path d="M11.63 6.17zm.2-.02l-.2.02.2-.02z"/><path d="M5.9 5.23a11.45 11.45 0 0 0 4.82 8.84c.5-.27.84-.73 1.04-1.08.4.48.44 1.15.44 1.15.43-2-1.44-3.54-1.44-3.54s1.35.66 2.28 1.73c0 0 .03-.18-.03-.48-.06-.34-.17-.58-.17-.58s.98.8 1.5 1.97l.04-.03c1.33-1.39 1.37-3.46 1.37-3.46-.29-1.2-.8-1.62-.8-1.62.1.55.16 1.15.16 1.15-.32.72-.9 1.2-.9 1.2a4.73 4.73 0 0 1-2.77-.79l-.52.02c-.23.03-.51.09-.51.09.31-.55.5-1.12.53-1.37a4.91 4.91 0 0 0-.68-.61l-.93.05.18-.7-.26.23-.3.32c-.3.12-.75.2-.75.2-.22-.07-.43-.21-.43-.21.52-.78 1.38-1.09 1.38-1.09C8.99 6.44 9 6.3 9 6.3l.6-.36c-.05.12-.06.2-.06.2s.3-.25.48-.35c.2-.13.4-.23.4-.23.14-.43.37-.77.42-.82 0 0 .12-.02.18-.01.02.14.17.36.24.44-.33.11-.62.33-.62.33s.73-.2 1.37-.22c.87-.03 1.4.17 1.4.17-.13.19-.3.39-.3.39 1.43-.5 1.58-.86 2.36-1.03.29.04.54.14.54.14.19.2.23.39.23.39-.1.83-.44 1.76-.44 1.76-.26.32-.71.61-.71.61.45-.05 1.12-.26 1.12-.26.41.3.96.97 1.19 1.25.47-1.31.65-2.54.7-3.46-.19-.1-2.55-1.25-6.1-1.25S6.09 5.13 5.9 5.23zm2.85 5.31c-.35-.28-.47-.68-.47-.68.01-.28.15-.45.15-.45.63.44 1.6.84 1.6.84-.76.07-1.28.3-1.28.3zm-.14-2.2l.17-.12s.27-.04.57-.06c.24-.02.45-.01.45-.01l.2.22c-.1.02-.27.04-.44.1 0 0 .38.1.65.28l-.02.1c-.08 0-.32-.02-.57.02 0 0 .27.12.5.3l-.05.1a2.22 2.22 0 0 0-.5-.04s.2.13.39.3l-.09.15c-.56-.17-1.26-.49-1.44-.57v-.56c.05-.07.09-.12.18-.2zm-.82-.21a2.7 2.7 0 0 0 .35.43l.2.57c-.14.13-.33.43-.33.43-.23-.4-.42-.91-.42-.91l.2-.52zm4.2 6.71zm2.84-7.3c.31-.17.73-.56.73-.56.22-.66.42-1.54.42-1.54 0-.1-.1-.23-.1-.23-.11-.06-.36-.1-.36-.1-.36.06-.83.42-1.2.7.2 0 .53-.05.53-.05l-.3.63c.15 0 .45-.06.45-.06-.12.36-.34.8-.34.8l.17.41zM5.05 1.8v2.95c0 .8.11 2.92 1.18 5.23 1.3 2.82 3.2 4.47 5.77 5.8 2.54-1.32 4.47-2.97 5.77-5.8a12.93 12.93 0 0 0 1.18-5.23V1.8A15.15 15.15 0 0 0 12 .2C9.68.21 7.21.67 5.05 1.8zm13.52.23v2.72c0 .78-.1 2.83-1.14 5.07A11.43 11.43 0 0 1 12 15.36a11.43 11.43 0 0 1-5.43-5.54 12.53 12.53 0 0 1-1.15-5.07V2.03c1.9-1 4.4-1.44 6.58-1.44 2.18 0 4.67.44 6.57 1.44zM12.24 6.3l-.15-.06-.27-.1-.2.02-.15.03c-.23.06-.57.16-1.03.36l-.04-.09-.06-.12-.58.8c.2.05.4.06.59.06.42 0 .75-.07.75-.07a5.94 5.94 0 0 0 .65-.65l.07-.08.42-.1zm-1.28.62c-.33.16-.62.03-.62.03l.08-.13c.05.05.18.1.28.06.1-.04.14-.14.15-.19l.36-.05s-.05.18-.25.28z" fill="#041E42"/><path d="M11.64 6.61c-.13.15-.32.35-.54.53 0 0-.33.06-.75.07.42 0 .75-.07.75-.07a6 6 0 0 0 .54-.53zm-1.2-.05l-.04-.09z" fill="#B99758"/><path d="M5.42 4.75c0 .78.12 2.83 1.15 5.07 1.2 2.62 3.04 4.3 5.43 5.54a11.43 11.43 0 0 0 5.43-5.54 12.53 12.53 0 0 0 1.14-5.07V2.03c-1.9-1-4.4-1.44-6.57-1.44-2.19 0-4.68.45-6.58 1.44v2.72zM17.4 8.69a8 8 0 0 0-1.2-1.25s-.66.2-1.11.26c0 0 .45-.29.7-.6 0 0 .34-.94.45-1.77 0 0-.04-.2-.23-.4 0 0-.25-.09-.54-.13-.78.17-.93.54-2.36 1.02l.3-.38s-.53-.2-1.4-.17c-.64.02-1.37.22-1.37.22s.29-.22.62-.33c-.07-.08-.22-.3-.24-.44l-.18.01c-.06.05-.28.4-.41.82 0 0-.2.1-.4.23-.19.1-.49.35-.49.35l.05-.2L9 6.3s-.01.15.15.33c0 0-.86.31-1.38 1.09 0 0 .21.14.43.2 0 0 .44-.07.75-.2l.3-.31.25-.24-.17.71.93-.05c.24.17.47.38.68.6-.03.26-.22.83-.53 1.38 0 0 .28-.06.51-.09.28-.03.52-.01.52-.01a4.72 4.72 0 0 0 2.77.78s.58-.48.9-1.2c0 0-.06-.6-.16-1.16 0 0 .51.42.8 1.63 0 0-.04 2.07-1.37 3.46l-.04.03a11.27 11.27 0 0 1-2.34 1.6s.17-.37.2-.7c0 0-.04-.67-.44-1.15-.2.35-.54.8-1.04 1.08A11.45 11.45 0 0 1 5.9 5.23c.19-.1 2.55-1.25 6.1-1.25s5.91 1.15 6.1 1.25c-.05.92-.23 2.15-.7 3.46zm-2.86-2.3s.24-.46.31-.63c0 0-.34.06-.53.06.37-.3.84-.65 1.2-.7 0 0 .25.03.35.09 0 0 .1.14.1.23 0 0-.19.88-.4 1.54 0 0-.43.39-.74.56l-.17-.41s.22-.44.34-.8c0 0-.3.07-.46.06zm-2.72.02v.15c-.14.25-.42.56-.6.72-.37.09-.73.1-1.04.08l-.42-.2.58-.8s.8-.33 1.48-.2a11.11 11.11 0 0 0 .42.15l-.42.1-.07.08.07-.08zm.76.6c.03-.12 0-.5 0-.5s.22.07.55.34l-.1.48-1.16.53s.39-.41.7-.85zm-6.7-4.7S8.3 1.05 12 1.05c3.7 0 6.11 1.26 6.11 1.26v2.42A15.35 15.35 0 0 0 12 3.53c-2.02 0-4.28.37-6.12 1.2V2.31z" fill="#B99758"/><path d="M10.7 6.9c-.1.03-.23-.02-.28-.07l-.08.13s.29.13.62-.03c.2-.1.25-.28.25-.28l-.36.05c-.01.05-.05.15-.15.2zm7.41-2.17V2.31S15.71 1.05 12 1.05c-3.7 0-6.12 1.26-6.12 1.26v2.42c1.84-.83 4.1-1.2 6.12-1.2 2 0 4.28.37 6.11 1.2zm-1.85-2.36l.15-.23.67.21.15.33v1.31a15 15 0 0 0-.31-.1v-.64l-.34-.11v.63l-.32-.09V2.37zm-1.73-.67c.28.05.56.1.84.17l.15.3v1.04l-.15.24c-.28-.06-.56-.12-.84-.16V1.7zm-1.08-.14l.32.04v1.58l-.32-.03V1.56zm-5.86.9l-.5.16v.31l.36-.12v.32l-.37.12v.63L6.77 4V2.41c.27-.1.55-.2.82-.27v.32zm1.58.88l-.84.18V1.93l.32-.07v1.27c.17-.04.35-.08.52-.1v.31zm1.76-.5l-.16.29-.7.07-.15-.25V1.9l.16-.3.7-.07c.04.09.1.18.15.26v1.04zm.76-1.34h.85l.15.28v.4l-.15.28h-.1l.25.64-.34-.02-.26-.63H12v.63h-.32V1.5zm.68.32H12v.3l.36.01v-.31zm4.55.8l-.34-.11v.31l.34.11v-.31zm-2.07.4l.35.07v-.94l-.35-.07v.94zm-4.6-.16l.35-.04v-.94c-.12 0-.23.02-.35.03v.95z" fill="#C8102E"/><path d="M12.01 2.45h.08l.26.63.34.01-.26-.64h.1l.16-.26v-.4l-.15-.29h-.85v1.58H12v-.63zm0-.64h.36v.32H12V1.8zm-3.36.05l-.32.08v1.58l.84-.18v-.32l-.52.1V1.87zM6.77 4l.31-.1v-.64l.37-.12v-.32l-.37.12v-.31l.51-.16v-.32c-.27.08-.55.17-.82.27v1.58zm9.8-.85l.35.11v.63l.3.11V2.68l-.14-.33-.67-.21-.15.23v1.3l.32.1v-.63zm0-.63l.35.1v.32l-.34-.11v-.31zm-6.5-.9l-.15.3v1.04l.16.25.7-.07c.04-.1.1-.2.15-.29V1.8l-.16-.26-.7.07zm.53 1.21l-.35.04V1.9l.35-.03v.94zm3.17-1.22l-.32-.04v1.59l.32.03V1.6zm1.75 1.61V2.17l-.15-.3c-.28-.07-.56-.12-.84-.17V3.3l.84.16.15-.24zm-.32-.12l-.35-.07v-.94l.35.07v.94zM8.01 9.56s.19-.3.33-.43l-.2-.57a1.8 1.8 0 0 1-.35-.43l-.2.52s.19.51.42.91zm.27.3s.12.4.47.68c0 0 .52-.22 1.28-.29 0 0-.97-.4-1.6-.84 0 0-.14.17-.15.45zm2.82-2.72s-.33.06-.75.07c-.19 0-.4-.01-.6-.05l.43.2c.31.01.67 0 1.05-.08.17-.16.45-.47.6-.72v-.15l-.08.08a6.72 6.72 0 0 1-.65.65zm-1.34.02zm.11 2.52l.09-.15c-.19-.17-.4-.3-.4-.3.23 0 .42.03.51.05l.04-.11a2.8 2.8 0 0 0-.49-.3c.25-.04.49-.02.57-.01l.02-.1c-.27-.19-.65-.3-.65-.3.17-.05.33-.07.43-.09l-.19-.22h-.45l-.57.07-.17.13c-.1.08-.13.13-.19.2l.01.56c.18.08.88.4 1.44.57z" fill="#fff"/><path d="M13.13 6.85a2.03 2.03 0 0 0-.54-.34s.02.38-.01.5c-.32.44-.7.85-.7.85l1.14-.53c.07-.24.11-.48.11-.48z" fill="#041E42"/><path d="M12.84 11.27s.1.24.17.58c.06.3.03.47.03.47-.93-1.06-2.28-1.72-2.28-1.72s1.87 1.54 1.44 3.54c-.03.33-.2.7-.2.7a12.1 12.1 0 0 0 2.34-1.6c-.52-1.18-1.5-1.97-1.5-1.97zm-2.4-4.7a5.45 5.45 0 0 1 1.19-.4l.2-.02c-.69-.12-1.49.2-1.49.2l.06.12.04.1z" fill="#fff"/><path d="M13.98 15.15v.32h-.08v-.32h-.1v-.08h.27v.08h-.1zm.43.32v-.23l-.07.14h-.07l-.07-.14v.23h-.08v-.4h.08l.1.22.1-.22h.09v.4h-.08z" fill="#041E42"/></svg>