<svg xmlns="http://www.w3.org/2000/svg" viewBox="0 0 24 16"><path d="M16.94 5.96l.36.12v.23c-.2-.01-.34-.05-.34.5 0 .42.07.56.07.67 0 .2-.01.25-.64.25 0 0-.1-.12-.44-.25l-.02-.09 2.65-4.6h-.8c.06-.11 0-.3-.15-.45-.17-.17-.4-.22-.5-.12-.04.05-.06.12-.04.2l-.33.35c0-.06.02-.33-.5-.48-.15-.3-.28-.7-.59-.7-.25 0-.47.2-.47.2s-.94-.88-1.86-.88c-.8 0-1.9.78-2.38.78-.52 0-.98-1.25-1.7-1.25-.4 0-.85.32-1.35.62-.5.3-.59.67-.7.97-.09.2-.34.47-.64.76H4.3l4.64 8.08a.52.52 0 0 1-.1 0H5.37l-.64 1.16h4.1c.17 0 .41-.1.53-.24l.06-.07 2.01 3.5 1.86-3.23h1.57v-.33h-.38l-.07-.2h.06l.27-.13c0-.32-.37-.76-.37-.76l-.07-.35.52-.89 2.4-.89c.42-.15.47-.77.47-.77s.4.18.6-.3c0 0 .44.14.68.14.2 0 .49-.1.49-.41 0 0 .3-.2.41-.52l-2.82-.93-.1.3z"/><g fill="#FCB514"><path d="M13.36 8.96c0-.05-.73-.24-1.02-.35-.27.1.07.15.07.5 0 .2-.1.44-.1.44l-.14.04s-.3.54-.48.46c-.27.47-.38.58-.8.58a.67.67 0 0 1-.37-.1l-.93 1.01 1.84 3.2L13.02 12h-1.14c0-.3.18-.54.18-.54 0-.46.3-.56.5-.58.46-.04.65 0 .65-.23l-.02-.34h.17c0-.61-.17-.76-.17-1.07 0-.12.17-.17.17-.27zm.73 1.16l.36-.62-.4.2zm1.2-6.3l-.09-.19c-.43.07-.82-.15-.93-.2-.11-.06.01-.3.01-.3s-.03-.05-.1-.1h-.45c-.09.07-.1.2-.04.26.48.5.87 1.04 1.18 1.55l.5-.53-.08-.5zm-2.06 7.8l.1-.17h-.17zm3.95-8.6l-.06.08c.26.31.15.63.15.63 0 .24-.12.24-.12.24 0 .55-.3.45-.3.45 0 .74-.8.44-.8.44a1.07 1.07 0 0 1-.34-.1l-.55.62c.36.69.57 1.3.69 1.69l2.32-4.04h-.99zM9.91 9.27c-.15-.36-.08-.44-.08-.44s-.48-.4-.34-.88c0 0-1.23-1.78-1.23-2.83 0-.55.27-.5.27-.94 0-.37-.25-.64-.43-.64-.2 0-.85.43-1.79.98l.36-.82-.86.88s-.17-.86.3-1.32l.22-.22H4.7l4.46 7.76a.75.75 0 0 0 .2-.14l.71-.7a1.96 1.96 0 0 1-.16-.7z"/><path d="M12.54 11.66h.16l.07-.2h-.34z"/></g><path fill="#FFF" d="M13.6 11.45l-.12.21h.49l.06-.2zM19 6.63l-.13.17.31.1-.04-.22zm-1.21-.4l-.12.18.81.27v-.22z"/><ellipse transform="rotate(-103.45 18.96 7.23)" fill="#FFF" cx="18.97" cy="7.23" rx=".1" ry=".19"/><ellipse transform="rotate(142.06 12.4 11.14)" fill="#FFF" cx="12.4" cy="11.14" rx=".19" ry=".1"/><path fill="#FFF" d="M9.47 10.75c-.15.15-.43.27-.64.27H8.8l-.4.87h.42c.13 0 .33-.1.42-.2l1.14-1.23-.26-.37-.66.66zm-4.5 1.13h.56l.48-.86h-.56zm9.17-.43l-.09.32h-.88l-.12-.32h-.17l-.1.32h-.3l-.18-.32h-.1a.95.95 0 0 0-.2.43h2.75v-.1h-.35l-.1-.33h-.16zm3.27-5.13l.15.05.18-.27.84.28.01.33.17.06.19-.27.28.1.07.35.12.04a1 1 0 0 0 .3-.34l-2.6-.86-.04.1.33.1v.33zm-5.5 1.63l2.39-2.5c-.88-1.22-2.15-2.31-3.3-2.31-1.03 0-1.72.75-1.72 1.55 0 1.44 1.3 2.56 2.63 3.26zm.66.32c.8.35 1.55.53 1.94.53.36 0 .85-.1.85-.88 0-.51-.27-1.23-.72-1.96l-2.07 2.31zM6.1 3.44c-.16.19-.18.73-.18.73L7.28 3l-.55 1s.92-.41 1-.62c0 0-.19-.46-.6-.88 0 0-.86.75-1.03.94zm1.87-1.57c0-.15.21-.3.24-.37 0 0-.14-.18-.33-.09-.03.42-.13.62-.18.87.16.13.1-.2.33-.2.07 0 .18.1.18.2 0 .13-.07.2-.07.2l.16-.02s.07-.06.07-.2c0-.3-.4-.3-.4-.39zm7.55 2.49L11.67 8.4c-.14.14.23.4.36.25l3.68-4.1c.14-.16-.05-.33-.2-.2zm-4.8 4.36s.06-.2-.1-.2c-.34 0-.66.27-.66.41 0 .08.03.14.03.14s.43-.42.73-.35zm.66 0c0-.15-.13-.18-.27-.18s-.2.1-.2.16c0 .15.15.31.22.31.03 0 .25-.12.25-.3zm.2.04c-.08 0-.13.1-.13.28 0 .06.08.1.12.1.03 0 .1-.06.1-.26 0-.06-.03-.12-.08-.12zm.32.17c-.15 0-.1.33-.1.44 0 .1-.04.16-.04.16.03.05.03.2.13.2.05 0 .13-.08.13-.3 0-.3.01-.5-.12-.5zm.25.09l-.02.2.13.01.03-.1c-.03-.03-.06-.13-.14-.11zm-2.06.3c.07.83.57 1.18.57 1.18l.1-.05s-.25-.47-.53-1.36l-.14.23zm.34-.34c.22.9.49 1.42.6 1.45 0 0 .08-.13.08-.9 0 0-.2-.81-.68-.55zm.87.34c.04.91-.1.9-.1 1.04 0 .22.38-.07.38-.64 0-.68-.28-.4-.28-.4zM9.7 7.9c-.26.36.16.73.16.73s.16.01.24-.07c0 0-.13-.49-.4-.66zm.61.33c0-.05-.07-.04-.07-.42 0-.3-.34-.19-.34-.03s.28.36.28.48c0 0 .13.05.13-.03zm.27-.2c0-.6-.2-.5-.2-.28 0 .25.13.36.2.29zm.2-.43c-.07.16-.02.4-.02.58 0 .17.12.17.17.14-.06-.14.12-.6-.15-.72zm.27.09c-.03.21.03.6.03.6s.14.05.2-.02c-.02-.08-.02-.25-.02-.35 0-.26-.2-.23-.2-.23zm.38.2c-.05.33.07.5.07.5.04-.02.07 0 .07-.29 0-.28-.13-.21-.13-.21zm5.07-5c.24-.12-.01-.43-.18-.34-.7.46-.78 1.17-.78 1.17s.06.1.23.07c0 0 .38-.73.73-.9zm-.55.9s.02.1.12.1c.2 0 .61-.44.61-.8 0-.07-.1-.07-.1-.07-.38.24-.63.78-.63.78zm.93-.83c.25 0 .45-.26.45-.32 0-.05-.05-.1-.15-.1s-.36.3-.36.37c0 .02 0 .05.06.05zm-1.42 1.26s.08-.05.2-.04c-.08-.24-.21-.18-.21-.18-.06.08.01.22.01.22zm.96.64c.1-.39-.3-.78-.3-.78-.27-.02-.28.07-.28.07s.2.7.58.7zm-.1-.9s.1.59.36.59c.03-.1-.08-.6-.35-.6zm.24-.21s.15.44.32.44c0 0 .06-.3-.22-.53-.08 0-.1.09-.1.09zm.6.12c0-.22-.34-.6-.34-.6l-.08.17.33.5s.1.04.1-.07zm-.26-.73l.3.54s0-.3-.23-.59c0 0-.07 0-.07.05zm-1.8.36s-.38-.2-.68-.29l-.03.06s.17.26.71.23zm.18-.09c.03.01.12-.07.06-.11a6.05 6.05 0 0 0-.78-.4c-.1.1-.04.16-.04.16l.76.35zm.13-.24c.05.02.12-.12.07-.15a5.81 5.81 0 0 0-.83-.48c-.07.1-.05.19-.05.19l.81.44zm.21-.33c0-.14-.6-.6-.7-.6s-.14.11-.14.11l.77.55c.02.02.07-.04.07-.06zm.2-.18l-.57-.64c-.07-.09-.2.07-.2.07l.64.63c.06.06.16-.03.13-.06zm.15-.24l-.48-.64c-.12 0-.14.1-.14.1l.52.55c.06.07.1 0 .1 0zm0-.34l-.14-.32c-.02-.03-.12-.03-.12.04 0 .04.1.28.27.28z"/><path d="M13.28 14.43a.32.32 0 1 0-.63 0 .32.32 0 0 0 .63 0zm-.56 0a.25.25 0 1 1 .5 0c0 .14-.12.25-.26.25a.25.25 0 0 1-.24-.25z"/><path d="M13.1 14.6l-.07-.15a.1.1 0 0 0 .07-.1.1.1 0 0 0-.11-.1h-.15v.36h.06v-.15h.05l.07.15h.08zm-.11-.2h-.09v-.09H13c.02 0 .04.02.04.04 0 .03-.02.04-.04.04z"/></svg>