<svg xmlns="http://www.w3.org/2000/svg" viewBox="0 0 24 16"><path d="M.43 5.67c.05 0 4.9.68 4.9 3.54 0 1.05-.73 2.11-.74 2.12-.19.27-.07.7.32.78l2.8.5c.3.24 1.03.7 2.07.7 1.28 0 1.72-.48 1.86-.92.62-.3 1.42-.93 1.42-1.54 0-.43-.39-.73-.75-.73a.73.73 0 0 0-.3-.2c.26-.19.57-.35.93-.47.98-.33 2.21-.61 3.04-.78-1.27 3.04-4.86 4.64-4.9 4.65-.36.16-.28.55-.28.55l-.24.11c-.52.23-.32 1 .24.95 4.18-.36 7.27-1.81 9.44-4.45H21a.5.5 0 0 0 .24-.06c.78-.43 1.3-.42 1.3-.42.2 0 .39-.1.47-.28.4-.8.83-1.24.83-1.24a.49.49 0 0 0 .11-.55l-.64-1.57a.5.5 0 0 0-.24-.26l-1.22-.59-.35-.26-.5-.63-.18-.78a.5.5 0 0 0-.24-.33l-.85-.48-.52-.53a.48.48 0 0 0-.16-.1L15.65.92a.5.5 0 0 0-.3-.04l-4.62.93c-1.24-.1-2.32.05-2.44.07a.48.48 0 0 0-.42.5L1.14 3.72a.5.5 0 0 0-.3.19l-.74.97a.5.5 0 0 0 .33.8M.27 5L1 4.04a.3.3 0 0 1 .18-.11l6.95-1.4c-.1-.1-.1-.4.19-.45.05 0 1.15-.16 2.42-.06l4.65-.93a.3.3 0 0 1 .17.02l3.4 1.48a.3.3 0 0 1 .1.06l.55.55.87.5c.07.04.12.1.14.19l.18.82.56.69.38.3 1.24.6a.3.3 0 0 1 .14.14l.64 1.57c.06.14 0 .26-.06.32 0 0-.45.45-.87 1.3a.3.3 0 0 1-.28.16s-.56-.02-1.4.45a.3.3 0 0 1-.15.04h-.85c-2.14 2.63-5.2 4.1-9.37 4.45-.31.02-.44-.42-.14-.56l.43-.2c-.1-.05-.13-.35.1-.45.04-.02 3.99-1.78 5.14-5.13-.76.15-2.27.48-3.43.87-.76.24-1.23.63-1.51.96.12-.05.26-.12.4-.12.32 0 .46.25.46.25l.08-.02c.26 0 .55.21.55.53 0 .5-.78 1.12-1.4 1.39-.08.38-.43.85-1.68.85-1.05 0-1.77-.5-1.99-.68l-2.84-.51c-.23-.04-.3-.3-.19-.45.01-.02.78-1.12.78-2.24C5.54 6.17.51 5.48.46 5.47A.3.3 0 0 1 .26 5" fill="#FFF"/><path d="M7.68 4.52s-.91.37-1.54 1.31l.94-.23c.28-.65.6-1.08.6-1.08m13.96 2.33s.77.48 1.11-.14l-1.17-.56c-.33.2-.66.3-.95.34.56.15 1 .36 1 .36" fill="#FFF"/><path d="M4.67 4.49l4.18-.94s.17.54.88.97l-.01.14c-.33.06-.85.27-1.35.66.75-.14 1.58-.26 2.47-.35l.2-.5c-1.3.2-1.9-.91-1.9-.91l-.1-.34-7.6 1.7c.82.06 1.72.32 2.55.74.2-.66.68-1.17.68-1.17m12.74 2.09c-.35.17-.65.4-1 .7l.4-.74s-1.04-.04-2.04-.02l-.65.71c-.24-.07-.5-.11-.76-.12-.02-.36.12-.77.44-1.17-.42.32-.68.73-.73 1.18-.18.01-.37.05-.54.1-.1-.3-.08-.68.06-1.08-.25.37-.35.77-.3 1.15-.17.07-.34.15-.5.25a1.72 1.72 0 0 1-.25-.92c-.1.38-.07.74.07 1.04-.56.42-.81.92-.81.92a2.43 2.43 0 0 0-2.88 2.2c-.1-.72.12-2 1.55-2.6l.47-1.1a.75.75 0 0 1 .11-.2c-1.59.3-2.57.93-2.57.93s-.43.77-.24 1.55c0 0-.28-.38-.45-1.03a3.6 3.6 0 0 0-.18.18c.06.23.1.47.1.71 0 1.16-.5 1.89-.5 1.89l1.63.33s.61.89 1.93.89c.41 0 .96-.05.96-.31 0-.2-.5-.48-.5-1.06 0-.94 1.19-1.92 2.46-2.34a20.6 20.6 0 0 1 4.9-1.05c3.23 0 3.12 2.13 3.12 2.13h.16c.72-.41 1.35-.49 1.54-.5.31-1.16-.28-2.2-5-2.62M13.45 4.3c-.68.03-1.22.28-1.63.58.54-.03 1.1-.05 1.66-.04.28-.37.44-.77.44-1.2 0-.72-.37-1.15-.37-1.15l1.8-.4.56.28s-1.32.5-1.32 1.94c0 .2.03.39.08.56.95.04 1.93.15 2.93.33 0 0 .32.78 1.21.78.44 0 .77-.23.77-.23.96.72 1.84.32 1.84.32l-.33-.27-.31.17.2-.3-.13-.13-.42.21.26-.4-.09-.1-.36.15.2-.35-.14-.22c-.13.6-.66.66-1.12.63l-.02-.27c-.1.06-.22.1-.34.1a.64.64 0 0 1-.65-.64c0-.2-1-1.1-1-1.1l1.3.4c1.09.33 1.04.87 1.05 1.16.18.09.6.14.78-.28l-.14-.72-.86-.42-.6-.55L15.4 1.8l-3.27.72c.77.19 1.4.59 1.4.59s.25.56-.07 1.19m6.5.1l-.15.63c0-.47-.28-.74-1.11-1.23l1.27.6z" fill="#FFF"/><path d="M4.43 5.9l.46.3.48-.15c.28-1.07.86-1.78.86-1.78a3.3 3.3 0 0 0-1.8 1.63m4.95-2.45s.48.81 1.33.81l.88-.06.73-.76.99-.15a4.67 4.67 0 0 0-1.2-.5l-.83 1.16.52-1.23c-.15-.04-.3-.06-.46-.09l-.7 1 .43-1.03a9.15 9.15 0 0 0-.54-.05L10 3.3l.33-.78c-.78-.03-1.34.03-1.34.03l.2.17.2.72zm1.12 7.62c.1.47.42.6.45.78 0 0 .82-.17 1.36-.97-1.06.53-1.81.2-1.81.2m8.45-2.87c-1.48 0-1.46 3.15-6.69 5.82 4.46-.64 7.82-3.67 7.82-4.91 0-.46-.76-.9-1.13-.9" fill="#FFF"/><path d="M23.76 8.01l-.64-1.57a.3.3 0 0 0-.14-.15l-1.24-.6-.38-.3-.56-.68-.18-.82a.29.29 0 0 0-.14-.2l-.87-.49-.55-.55a.28.28 0 0 0-.1-.06l-3.4-1.48a.3.3 0 0 0-.17-.02l-4.65.93c-1.27-.1-2.37.06-2.42.06-.29.05-.29.36-.19.46L1.18 3.93a.3.3 0 0 0-.18.1L.27 5a.3.3 0 0 0 .2.47c.04 0 5.07.7 5.07 3.74 0 1.13-.77 2.23-.78 2.24a.29.29 0 0 0 .19.46l2.84.5c.21.18.94.69 1.99.69 1.25 0 1.6-.47 1.68-.86.62-.26 1.4-.88 1.4-1.39 0-.3-.29-.52-.55-.52l-.09.02s-.13-.25-.45-.25c-.14 0-.29.07-.4.12.28-.33.75-.72 1.5-.97 1.17-.38 2.68-.7 3.44-.86-1.15 3.35-5.1 5.1-5.14 5.12-.24.1-.2.4-.1.47l-.43.19c-.3.13-.18.58.14.55 4.17-.35 7.23-1.8 9.36-4.45H21a.3.3 0 0 0 .14-.03c.84-.47 1.4-.45 1.41-.45a.3.3 0 0 0 .28-.16c.41-.85.86-1.3.87-1.3a.28.28 0 0 0 .06-.32m-1.2 1.49s-.62-.04-1.56.48h-.78l-.15-.07c-2.12 2.74-5.15 4.17-9.31 4.52 0 0 1.41-.62 2.18-1.02l-1.66.37s4.48-1.94 5.46-5.77c0 0-2.31.42-3.95.97a3.27 3.27 0 0 0-2.07 1.72c.58-.06.87-.3 1.05-.3.21 0 .3.21.24.33.1-.04.21-.1.3-.1.1 0 .25.08.25.22 0 .36-.78 1-1.37 1.19 0 .21-.08.77-1.4.77-1.15 0-1.87-.66-1.87-.66L5 11.62s.83-1.17.83-2.4C5.83 5.86.5 5.17.5 5.17l.74-.97 7.52-1.5-.4-.34s1.14-.17 2.4-.06l4.68-.94 3.41 1.49.58.57.9.52.2.89.62.77.44.33 1.26.61.64 1.57s-.47.47-.92 1.38" fill="#FFB81C"/><path d="M21.64 6.85s-.45-.2-1.01-.36c-.89.13-1.56-.25-1.56-.25-.73 0-1.23.12-1.66.34 4.72.41 5.31 1.46 5 2.62h.06s.32-.6.69-1.03c0 0-.48-1.01-2.17-1.1l.65-.22zM7.08 5.6l-.94.23c-.2.3-.36.65-.47 1.06.46.48.8 1.02.94 1.62l.18-.18a3.82 3.82 0 0 1-.12-.94c0-.66.2-1.3.41-1.8m10.52-.38c-1-.18-1.98-.28-2.93-.33.19.66.65 1.03.65 1.03l-.55.6c1-.01 2.04.03 2.04.03l-.4.74 1.03-1.13.16-.94zm-6.84 1.01l-.5.12.58-1.37c-.9.09-1.72.21-2.47.35a3.46 3.46 0 0 0-1.36 2.81c0 .68.23 1.23.23 1.23-.19-.78.24-1.55.24-1.55s.99-.63 2.57-.93a.94.94 0 0 1 .51-.28c1.14-.3 2.3-.94 2.92-1.75-.57 0-1.12.01-1.66.05a3.58 3.58 0 0 0-1.06 1.32m-5.48.29c.02-.16.05-.31.1-.46l-.49.16.39.3m13.63-1.4c.13 0 .23-.07.23-.07 0-.05-.02-.1-.03-.14a.25.25 0 0 1-.14.04.23.23 0 0 1-.23-.23c0-.1.07-.2.17-.23-.13-.18-.26-.26-.26-.26s-.22.13-.22.4c0 .28.23.48.48.48" fill="#FFB81C"/><path d="M5.83 9.21c0 1.24-.83 2.41-.83 2.41l2.92.53s.72.66 1.86.66c1.33 0 1.41-.56 1.41-.77.58-.2 1.37-.83 1.37-1.19 0-.14-.14-.23-.25-.23-.09 0-.2.07-.3.11.05-.12-.03-.34-.24-.34-.18 0-.47.25-1.05.3 0 0 .44-1.17 2.06-1.71 1.65-.55 3.95-.97 3.95-.97-.97 3.83-5.45 5.77-5.45 5.77l1.65-.37c-.76.4-2.17 1.03-2.17 1.03 4.16-.36 7.19-1.79 9.31-4.53l.15.08H21c.94-.53 1.57-.49 1.57-.49.44-.9.92-1.37.92-1.37l-.64-1.58-1.27-.6-.43-.34-.62-.77-.2-.9-.9-.5-.58-.58-3.4-1.49-4.69.94c-1.27-.1-2.4.06-2.4.06l.4.34-7.53 1.5-.73.97s5.33.69 5.33 4.03m6.48 1.66c-.54.81-1.36.98-1.36.98-.03-.17-.35-.3-.45-.78 0 0 .75.34 1.81-.2m-.04 3.16c5.22-2.67 5.2-5.82 6.69-5.82.36 0 1.12.45 1.12.9 0 1.25-3.36 4.28-7.81 4.92m-1.95-11.5l-.33.78.54-.76c.18 0 .36.02.54.05l-.44 1.03.71-1c.16.03.31.05.46.09l-.52 1.23.83-1.16c.42.11.83.27 1.2.5l-1 .15-.72.76-.88.06c-.85 0-1.33-.81-1.33-.81l-.2-.72-.2-.17s.56-.06 1.34-.03M1.44 4.92l7.6-1.7.1.34s.6 1.11 1.9.92l-.2.5-.59 1.36.5-.11s.32-.77 1.07-1.33c.41-.31.95-.56 1.63-.59.32-.63.08-1.19.08-1.19s-.64-.4-1.41-.59l3.27-.72 3.32 1.34.6.56.85.41.14.72.15.22-.21.35.36-.15.1.1-.28.4.43-.21.12.14-.2.29.32-.17.33.28s-.88.4-1.84-.33c0 0-.33.24-.76.24-.9 0-1.22-.79-1.22-.79l-.16.94-1.03 1.13c.35-.29.65-.53 1-.7.43-.22.93-.33 1.66-.33a2.7 2.7 0 0 0 2.5-.1l1.18.56c-.34.62-1.11.14-1.11.14l-.65.23c1.68.08 2.16 1.09 2.16 1.09-.37.43-.69 1.02-.69 1.02h-.05c-.19.02-.82.1-1.54.5l-.16.01s.1-2.13-3.13-2.13c-1.14 0-3.4.57-4.89 1.05-1.27.42-2.45 1.4-2.45 2.34 0 .58.49.86.49 1.06 0 .26-.55.3-.96.3-1.32 0-1.93-.88-1.93-.88l-1.62-.33s.48-.73.48-1.89c0-.24-.03-.48-.09-.7a3.71 3.71 0 0 0-.94-1.63c.1-.41.28-.76.47-1.06.63-.94 1.54-1.31 1.54-1.31s-.32.43-.6 1.08c-.21.5-.4 1.13-.4 1.79a3.8 3.8 0 0 0 .56 1.97S7 8.8 7 8.13c0-1.35.66-2.25 1.36-2.8.5-.4 1.02-.6 1.35-.67l.01-.14a1.95 1.95 0 0 1-.88-.96l-4.18.93s-.48.5-.68 1.17a6.8 6.8 0 0 0-2.55-.74m3 .98c.09-.21.6-1.19 1.79-1.63 0 0-.58.71-.86 1.78l-.1.46a5.98 5.98 0 0 0-.84-.6" fill="#041E42"/><path d="M19.52 5.13c-.01-.3.04-.84-1.05-1.17l-1.3-.4s1 .9 1 1.1a.64.64 0 0 0 .99.55l.02.26c.46.03.99-.04 1.12-.63-.19.43-.6.37-.78.29m-.61-.03a.48.48 0 0 1-.48-.47c0-.28.22-.41.22-.41s.13.08.26.26a.24.24 0 0 0-.17.23c0 .12.09.23.24.23.05 0 .1-.02.13-.04l.03.14s-.1.06-.23.06" fill="#041E42"/><path d="M19.8 5.04l.16-.62-1.27-.6c.83.48 1.1.75 1.1 1.22M7.93 10.78a2.43 2.43 0 0 1 2.88-2.2s.25-.5.8-.92c-.13-.3-.15-.66-.06-1.04 0 .37.1.68.25.92.16-.1.33-.18.5-.25-.05-.38.05-.78.3-1.15-.14.4-.15.77-.06 1.07.17-.04.36-.08.54-.1.05-.44.3-.85.73-1.17-.32.4-.46.8-.44 1.17.26 0 .52.05.76.12l.65-.71.55-.61s-.46-.37-.65-1.03a2.04 2.04 0 0 1-.08-.56c0-1.43 1.32-1.94 1.32-1.94l-.56-.28-1.8.4s.38.43.38 1.16c0 .42-.17.82-.45 1.19a5.54 5.54 0 0 1-2.92 1.75.94.94 0 0 0-.5.28.71.71 0 0 0-.12.2l-.47 1.1a2.42 2.42 0 0 0-1.55 2.6m7.93 3.43a.28.28 0 1 1 0 .56.28.28 0 0 1-.3-.28c0-.15.14-.28.3-.28zm0 .06c-.13 0-.22.1-.22.22 0 .13.09.23.22.23.12 0 .2-.1.2-.23a.22.22 0 0 0-.2-.22zm-.05.37h-.06v-.28l.1-.01c.06 0 .08 0 .1.02l.03.06c0 .03-.03.06-.06.07.03.01.04.03.05.07 0 .04.01.06.02.07h-.07l-.02-.07c0-.03-.02-.04-.06-.04h-.03v.1zm0-.16h.03c.04 0 .07-.01.07-.04s-.02-.04-.06-.04h-.04v.08z" fill="#041E42"/></svg>