<svg xmlns="http://www.w3.org/2000/svg" viewBox="0 0 24 16"><path fill="#0038A8" d="M15.96.34l-.58.56-.57-.57H9.19L8.62.9 8.04.33H4.03l1.2 2.13v10.35c0 .21 0 1.84 1.96 1.84h3.1c1.12 0 1.66 1.02 1.66 1.02h.1s.54-1.02 1.65-1.02h3.1c1.97 0 1.97-1.63 1.97-1.84V2.46l1.2-2.13h-4.01z"/><path fill="#FFF" d="M18.67 2.44l1.13-2H16l-.62.6-.61-.6H9.23l-.61.6L8 .43H4.2l1.13 2V12.8c0 .52.18 1.74 1.86 1.74h3.1c1 0 1.56.76 1.7 1 .16-.24.72-1 1.71-1h3.1c1.7 0 1.87-1.22 1.87-1.74V2.44z"/><path fill="#0038A8" d="M18.8 14.28a.38.38 0 1 0 0 .77.38.38 0 0 0 0-.77zm0 .69a.3.3 0 1 1 0-.6.3.3 0 0 1 0 .6z"/><path fill="#0038A8" d="M18.95 14.58a.13.13 0 0 0-.13-.13h-.18v.44h.08v-.18h.06l.08.18h.1l-.1-.19a.13.13 0 0 0 .1-.12zm-.13.05h-.1v-.1h.1c.03 0 .05.02.05.05s-.02.05-.05.05zM16.2.89l-.8.78-.8-.78H9.41l-.8.78-.8-.78H4.97l.8 1.43v10.5c0 .58.25 1.27 1.41 1.27h3.1c.8 0 1.36.44 1.7.8.36-.36.92-.8 1.71-.8h3.1c1.17 0 1.41-.7 1.41-1.28V2.31l.8-1.42H16.2z"/><path fill="#CE1126" d="M10.93 5.48l6.94 5.03V5.48z"/><path d="M6.13 4.77h11.74v.29H6.13zm0 8.04c0 .83.57.93 1.06.93h3.1c.71 0 1.29.37 1.71.72.42-.35 1-.72 1.7-.72h1.13l-8.7-6.3v5.37zm0-5.95l9.5 6.88h.4l-9.9-7.17zm3.6-1.38l8.14 5.9v-.3l-7.74-5.6zm3.35 5.6l.7.5.2-.29-.42-.29.33-.45.4.3.2-.28-.4-.3.32-.44.4.3.21-.28-.69-.5zM9.64 5.94l-.63-.46-1.25 1.73.28.2.56-.77.16.11-.27.99.28.2.27-1c.18.08.39.02.5-.14l.2-.27a.42.42 0 0 0-.1-.59zm5.56 6.66l.27-1c.18.07.39.02.5-.14l.2-.27a.42.42 0 0 0-.1-.6l-.63-.45-1.25 1.72.28.2.56-.76.15.1-.26 1 .28.2zm-3.57-5.22l-1.25 1.72.28.2.75-1.03-.3 1.37.28.2 1.25-1.73-.28-.2-.75 1.04.3-1.37zm-2.67.7l.28.2.36-.28.47.34-.16.42.28.2.77-2.06-.28-.2-1.72 1.38zm4.64.73l-.23-.17a.42.42 0 0 0-.59.1l-.75 1.04c-.14.18-.1.45.1.59l.23.17c.06.04.12.06.2.07l-.01.07.15.1.66-.92-.54-.4-.17.24.26.2-.2.28a.14.14 0 0 1-.21.04l-.12-.09a.15.15 0 0 1-.03-.2l.67-.94a.15.15 0 0 1 .2-.03l.13.09c.06.04.08.13.03.2l-.17.23.28.2.2-.28a.42.42 0 0 0-.09-.59zm3.52 2.55a.57.57 0 0 0-.8.13c-.34.46.31 1.03.13 1.28a.26.26 0 0 1-.41-.3l.08-.12-.28-.2-.08.1a.6.6 0 0 0 .14.85c.27.2.64.14.84-.14.33-.46-.32-1.02-.14-1.27.08-.1.22-.13.32-.05.1.07.13.21.05.31l-.07.1.29.2.06-.09a.58.58 0 0 0-.13-.8zM8.8 4.07h-.5v-.55h.5V3.2h-.5v-.56h.5V2.3h-.85v2.13h.85zm6.32-.6h.2l.36.95h.35l-.37-.96a.42.42 0 0 0 .32-.41V2.7a.42.42 0 0 0-.42-.42h-.79v2.13h.35v-.95zM6.6 3.14l.56 1.28h.34V2.29h-.34v1.28l-.56-1.28h-.35v2.13h.35zm7.17 1.28h.3c.23 0 .42-.19.42-.42V2.7a.42.42 0 0 0-.43-.42h-.29a.42.42 0 0 0-.42.42V4c0 .23.2.42.42.42zm3-.88l.15-.25.5 1.13h.35l-.64-1.46.41-.67h-.34l-.43.7v-.7h-.35v2.13h.35zm-4.41.88h.34v-.88l.46-1.25h-.35l-.28.78-.29-.78h-.34l.46 1.25zm-2.46 0l.18-1.12.19 1.12h.41l.35-2.13h-.35l-.2 1.27-.21-1.27h-.37l-.2 1.27-.21-1.27h-.35l.34 2.13z" fill="#FFF"/><path d="M13.83 4.08h.15c.08 0 .15-.07.15-.15V2.78a.15.15 0 0 0-.15-.15h-.15a.14.14 0 0 0-.14.15v1.15c0 .08.06.15.14.15zm-3.66 3.98l.28-.74-.62.5zM9.4 6.2l-.3-.22-.3.4.3.22c.07.04.16.03.21-.04l.12-.16a.15.15 0 0 0-.03-.2zm6.24-3.21v-.2a.15.15 0 0 0-.14-.15h-.37v.5h.37c.08 0 .14-.07.14-.15zm.1 8.23l.12-.16a.15.15 0 0 0-.03-.2l-.3-.22-.3.4.3.21c.07.05.16.04.21-.03z" fill="#0038A8"/></svg>