<svg xmlns="http://www.w3.org/2000/svg" viewBox="0 0 24 16"><g fill="#CE1126"><path d="M12.44 12.77a.4.4 0 1 0 0 .8.4.4 0 0 0 0-.8zm0 .71a.31.31 0 1 1 0-.63.31.31 0 0 1 0 .63z"/><path d="M12.6 13.07a.14.14 0 0 0-.13-.13h-.19v.46h.09v-.19h.06l.08.19h.1l-.1-.2a.14.14 0 0 0 .1-.13zm-.13.05h-.1v-.1h.1c.03 0 .05.03.05.05s-.02.05-.05.05z"/></g><path fill="#CE1126" d="M20.9 4.92c.9-.76 1.76-2 1.76-3.41 0-.2-.25-.27-.35-.13a5.04 5.04 0 0 1-2.32 1.93A5.07 5.07 0 0 0 21.94.32a.2.2 0 0 0-.33-.17c-1.07 1.07-2.55 2.22-6.51 2.22-.96 0-2.05-.03-2.76-.03-3.22 0-4.4 1.99-4.67 2.54a5.54 5.54 0 1 0 4.3 7.62l.18.02c.7 0 .85-.2.85-.38 0-.1-.1-.2-.14-.27 1.03 0 1.33-.06 1.77-.2a.17.17 0 0 0 .12-.17c0-.15-.31-.4-.54-.6 1.44-.02 2.5-.28 2.5-.62 0-.06 0-.14-.39-.45.81-.22 2.24-.76 2.24-1.12 0-.14-.12-.22-.26-.32 1.26-.48 2.32-1.31 2.32-1.62 0-.24-.35-.26-.53-.27.63-.4 1.5-1.1 1.5-1.39 0-.3-.48-.18-.7-.2z"/><path fill="#FFF" d="M20.53 5c1-.75 1.96-2.06 1.96-3.5 0-.02-.03-.03-.04-.02-1.56 2.13-2.97 2.1-2.97 2.1-.07 0-.08-.08-.03-.11 1-.6 2.08-1.81 2.32-3.17 0-.01-.02-.04-.04-.02-1.14 1.15-2.71 2.27-6.63 2.27-1.26 0-1.91-.03-2.76-.03-3.4 0-4.44 2.26-4.57 2.56a5.36 5.36 0 1 0 4.09 7.25c.1.02.2.02.29.02.54 0 .67-.12.67-.2 0-.06-.34-.44-.17-.44 1.21 0 1.48-.05 1.93-.2-.22-.33-.99-.77-.6-.77 1.93 0 2.56-.37 2.56-.45 0-.09-.61-.53-.61-.53.88-.14 2.46-.85 2.46-1.04 0-.1-.45-.3-.38-.4 1.4-.46 2.44-1.37 2.44-1.53 0-.14-.82-.12-.82-.12v-.09c.71-.37 1.8-1.26 1.8-1.46 0-.12-1.02.09-.9-.12z"/><path fill="#CE1126" d="M8.19 9.35c-.18-.23-.4-.4-.67-.52l-.04.04.08.62.08.07h.45l.1-.21zm-1.94-.47l.5.37h.1l.44-.44-.01-.06a1.67 1.67 0 0 0-1.03.07v.06zm1.07.15l-.24.24c.1.02.2.05.29.1l-.05-.34zm.18 2.26c-.08.05-.18.1-.27.13l.27.2v-.33zM5.3 12.81l.79-.78c-.31-.15-.58-.38-.76-.66l-.66.89c.18.2.39.4.63.55zm2.5-3.09c.05.07.08.13.11.2.03-.04.07-.11.1-.2h-.2zm-1.48 2.4l-.06-.02-.81.8c.31.18.66.3 1.03.35l-.16-1.13zm1.48-1.08h-.04a.88.88 0 0 1-.07.09v.62l.04.03c.15-.09.28-.2.4-.33a1.3 1.3 0 0 1-.33-.41zM6.24 9.44c.08-.06.18-.1.28-.14l-.28-.2v.34zm-1.02 1.78l-.02-.06H4.06c.1.35.26.68.48.97l.68-.91zm2.28.62l-.5-.37-.1.01-.45.43.01.06a1.74 1.74 0 0 0 1.04-.07v-.06zm-1.08-.14l.24-.24c-.1-.02-.2-.05-.29-.1l.05.34zm1.25.34l-.01 1.14c.36-.1.69-.27.98-.49l-.92-.68-.05.03zm-1.72-1.05c-.06-.08-.1-.17-.14-.27l-.2.27h.34zm.15.18h-.62l-.04.04c.18.3.46.54.78.68l.05-.04-.1-.61a1.38 1.38 0 0 1-.07-.07zm-.03-1.58v-.62l-.05-.04c-.3.19-.54.46-.68.79l.04.04.62-.09.07-.08zm-.54.32l.24.25c.02-.1.06-.2.1-.3l-.33.05zm-.27.04A1.69 1.69 0 0 0 5.33 11h.06l.37-.5v-.1l-.44-.45-.06.01zm1.23 2.23l.16 1.1a3.19 3.19 0 0 0 .83-.06l.01-1.1a1.86 1.86 0 0 1-1 .06zm2-4.02v-.23l-.03-.02-.8.78c.24.1.44.26.61.46.12-.33.22-.68.22-1zm-2.47.55a.45.45 0 0 1 .05-.02l.01-1.14c-.36.1-.69.27-.97.48l.9.69zm1.23-.17l-.16-1.1a3.21 3.21 0 0 0-.83.06l-.01 1.11a1.88 1.88 0 0 1 1-.06zm1.92 3.63a5.51 5.51 0 0 1-.9-.58c-.11.12-.24.23-.38.33l.89.66c.14-.13.27-.27.39-.42zM8.3 7.81c-.31-.18-.66-.3-1.03-.35l.16 1.12.06.02.81-.8zm-4.35 2.54c0 .21.02.42.06.62h1.11a1.85 1.85 0 0 1-.07-1l-1.1.16v.22zm.03-.4L5.1 9.8l.02-.06-.8-.81c-.17.31-.3.66-.34 1.03zm.44-1.18l.77.79c.15-.31.38-.57.66-.76l-.88-.66c-.21.18-.4.4-.55.63z"/><circle fill="#CE1126" cx="6.87" cy="10.36" r=".6"/><path fill="#CE1126" d="M6.87 6.75a3.61 3.61 0 1 0 2.95 5.7c-.14-.05-.27-.1-.41-.17a3.17 3.17 0 1 1-.93-4.66v-.5a3.6 3.6 0 0 0-1.6-.37z"/><path fill="#CE1126" d="M10.89 12.6c-.24.05-.54.01-.86-.08a3.82 3.82 0 0 1-6.98-2.36c-.11.18-.08.48-.29.48-.17 0-.07-.23-.2-.23-.07 0-.08.1-.18.1h-.02c-.03 0-.03.05-.07.05-.05 0-.08-.06-.12-.06-.05 0-.06.08-.12.08s-.12-.1-.14-.15a4.96 4.96 0 0 0 9.56 1.8 6.88 6.88 0 0 1-1.09-.45c.03.33.5.81.5.81zm-8.5-4.14c.12.1.03.26.11.38a4.63 4.63 0 0 1 6.22-2.71l.15-.31a4.94 4.94 0 0 0-6.6 2.69c.04.03.08-.09.13-.05zm10.54-5.1h2.73c3.5 0 5.02-1.25 5.62-2.35.03-.07 0-.08-.07-.02-.76.68-1.9 1.87-6.52 1.87h-1.96c-3.07 0-4.23 1.38-4.53 2.3l.46.15c.54-.99 1.58-1.95 4.27-1.95z"/><path fill="#CE1126" d="M12.87 4.07c-2.73 0-4.31 1.87-4.13 3.67.13 1.33-.61 2.42-.61 2.42s1.04-.47 1.04-2.38c0-1.8 1.8-3.11 3.3-3.11h4c4.47 0 5.55-2.05 5.7-2.46.03-.06-.01-.04-.03-.02-.93 1.26-2.23 1.98-5.77 1.98-2.27 0-3-.1-3.5-.1z"/><path fill="#CE1126" d="M13.89 5.63c-.74 0-.82.2-.82.2-.02.03 0 .1-.06.12-.17.07-.35-.07-.5.11-.09.12-.3-.02-.44.06-.03.02 0 .1.03.1.06.03.17.03.2.06.05.03.05.08.09.11.05.04.14.05.18.1.03.05.04.14.09.14 1.1.06 2.24.06 3.3-.34.11-.2-1.04-.66-2.07-.66zM9.53 8.07c.02.1-.01.27.01.28.77.08 1.56-.06 2.27-.38.2-.09-.78-.6-1.59-.6-.26 0-.44.12-.44.12-.04.02-.08.13-.13.2-.04.07.03.16 0 .2-.06.07-.13.1-.12.18zM10.6 6.2c-.04.01-.07.07-.1.11-.07.1-.29.08-.29.19 0 .2-.22.24-.26.39-.03.12-.09.2-.1.33.82 0 1.66-.05 2.39-.47.19-.08-1-.64-1.64-.54zm2.6-.7c-.06-.23-.35-.28-.54-.4-.08-.04-.17-.02-.26.02-.2.09-.45-.06-.65.09-.05.04-.08.12-.16.14l-.28.04c-.03 0-.1.02-.1.06.03.17-.13.2-.25.25-.12.04-.08.2-.08.32.8 0 1.62-.1 2.32-.52zM9.13 9.43c.2.1 1.2-.04 1.71-.36a3.49 3.49 0 0 0-1.38-.61c-.12.32-.24.64-.33.97zM8.98 9.62c-.1.05-.2.2-.12.25.16.11.42.35 1.62.35 1.17 0 1.62-.36 1.84-.59 0-.14-1.03-.44-1.17-.36-.04.02-.05.07-.05.08-.05.02-.2.03-.23.05-.08.06-.06.15-.08.16-.19.05-.41-.07-.58 0-.05.03-.05.16-.1.16-.13.01-.27-.06-.39-.02-.02 0-.09.01-.13.04-.06-.03-.1-.04-.19-.06-.06-.02-.12.03-.2.01-.07-.01-.15-.1-.22-.07zm4.75-.85c.22-.11.48-.12.64-.34-.97-.5-2.1-.45-2.25-.37l-.11.12c-.07.04-.13.02-.18.06-.02.03 0 .1-.01.13-.03.03-.08.04-.11.05-.04.02-.11 0-.16.02s-.06.07-.1.09c-.13.06-.31-.01-.4-.01-.05 0-.04.07-.02.09.06.05.22.07.22.16l-.07.08c.09.19.92.44 2 .08.19-.06.38-.07.55-.16zm1.24-1.4c.1-.06.2-.06.26-.14.11-.16-1.02-.4-1.48-.4a8 8 0 0 0-1.45.16c-.06.02-.06.14-.13.15l-.4.05c-.05 0-.04.07-.03.08a.4.4 0 0 1 .15.23c0 .01.1 0 .12.02.09.08.15.18.26.21a3.4 3.4 0 0 0 1.61.04c.06-.02.1-.06.15-.07.2-.02.4-.04.55-.18.1-.1.27-.07.4-.15zm1.3-2.32c.04-.02.01-.13-.01-.13-.13-.02-.26-.07-.4.05-.04.04-.12-.04-.19 0-.05.02-.1.1-.14.13-.13.05-.26-.08-.4-.06-.04 0-.03.1-.07.1-.12.03-.23-.1-.3-.06-.1.07-.19.16-.31.1-.13-.06-.29-.17-.37-.1-.15.13-.32-.06-.45 0-.1.04-.4.1-.2.22.62.37 1.9.3 2.85-.25zm-6.08 6.97c-.03-.06-.12-.03-.17-.06-.05-.02-.07-.11-.1-.15-.04-.02-.11.04-.15.01-.06-.03-.1-.1-.14-.15l-.14-.16a.6.6 0 0 0-.15-.13c-.03-.02-.1.02-.13.01-.06-.02-.1-.13-.15-.18l-.1-.05c-.04-.03-.04-.08-.07-.11l-.14-.1c-.06-.04-.1-.15-.14-.22s-.1-.07-.15-.13c-.05-.07-.08-.19-.15-.26-.06-.07-.22.05-.27.14-.08.16-.07.36.05.5.6.67 1.38 1.23 2.28 1.38-.07-.1-.14-.27-.18-.34zm1.98-.22c-.1-.03-.17-.08-.26-.11-.05-.02-.1.06-.16.02l-.3-.23c-.06-.06-.2-.2-.27-.17-.02 0-.05.14-.11.1-.14-.1-.23-.22-.36-.33-.06-.06-.12.12-.2.08-.17-.09-.24-.27-.38-.4-.15-.16-.3-.34-.52-.4-.03-.01-.01.04-.05.07-.16.13-.34-.1-.5-.17-.15-.06-.28-.17-.44-.18-.04 0-.03.05-.02.06.94 1.11 2.24 1.95 3.67 1.91.03 0 .1 0 .05-.06s-.1-.18-.15-.2zm1.32-.81c-.04-.01-.1.05-.14.04-.1-.02-.2-.12-.33-.2-.06-.02-.09.11-.13.1-.22 0-.55-.24-.75-.36a.98.98 0 0 0-.28.03c-.13.02-.29-.2-.4-.25-.07-.03-.17-.07-.25-.02-.1.08-.21.04-.32.03-.04 0-.08.1-.13.1-.15.05-.3-.05-.45.02l-.03.05c.01.09.11.1.18.14a5.4 5.4 0 0 0 3.52.67c.02 0-.01-.08-.07-.13-.07-.04-.16-.06-.2-.09-.09-.06-.13-.12-.22-.13zm2.08-.96c-.1.04-.19-.04-.28-.01-.02 0-.04.04-.05.04-.18 0-.29-.18-.46-.16-.05 0-.05.08-.08.08-.1.03-.2-.1-.3-.05a.23.23 0 0 1-.19 0c-.08-.02-.15-.1-.23-.1-.07-.02-.14.05-.23.03-.2-.06-.36-.25-.58-.2-.1.01-.2-.06-.28-.01-.08.04-.1.1-.19.15-.05.04-.19.03-.24.07-.05.03-.06.1-.11.12-.1.04-.21 0-.3.06-.01 0-.02.06.02.07.84.28 2.2.6 3.83.17.05-.01.06-.04.02-.09-.09-.1-.21-.2-.35-.17zm1.95-1.42c-.14.06-.31-.01-.47.03-.04 0 0 .07-.05.07-.16.02-.32-.01-.47.04-.11.05-.25 0-.37 0-.05 0-.05.06-.06.12 0 .04-.07.07-.1.06-.15-.05-.3-.06-.46-.08-.4-.06-.79-.2-1.16-.08-.13.04-.29.07-.38.16-.04.04-.07.11-.12.13-.23.08-.48.1-.7.18-.08.03-.2.12-.16.14a7.06 7.06 0 0 0 4.9-.6c-.05-.07-.29-.22-.4-.17zm1.62-1.62c-.09.03-.21-.06-.29 0-.12.09-.25.07-.37.06-.06 0-.15-.03-.2.01-.03.03.02.07.05.1-.3.1-.63 0-.91.12-.03 0-.04.1-.09.12-.26.05-.5-.05-.76 0-.07 0-.04.15-.1.15-.24.01-.47 0-.7-.02-.27 0-.53.1-.79.17-.07.02-.1.15-.18.16-.22.03-.45 0-.66.1v.08c.25.14.54.24.71.47 1.75-.02 3.63-.25 5.09-1.44.02-.02-.15-.06-.24-.08-.09-.02-.16-.02-.27-.06-.1-.03-.2.03-.29.06zm1.82-1.65a1.13 1.13 0 0 0-.43-.02c-.03 0-.05.06-.08.06-.19.03-.32.12-.51.13a.6.6 0 0 0-.18.05c-.07.04-.17-.04-.22.02-.04.04.02.13-.04.16-.17.08-.36-.06-.53.04-.04.04.06.14 0 .16-.24.07-.65-.3-.8.09-.03.06-.1.03-.15.02-.04-.01-.1-.03-.13-.01-.15.11-.23.16-.43.1-.05-.01-.06.14-.15.12-.12-.03-.23-.11-.33-.06-.05.02-.01.14-.08.15-.29.03-.58-.01-.84.1-.06.03-.07.15-.16.16-.2.04-.4.01-.58.07-.03.01-.03.1.02.1.12.02.25 0 .34.06.12.07.19.26.3.26a7.35 7.35 0 0 0 4.98-1.69c.04-.04.02-.05 0-.07zm-.55-1.31c-.04.01-.03.12-.1.15-.1.05-.23.05-.34.09-.05.01-.05.07-.08.1-.07.03-.15 0-.2.04-.28.2-.62.11-.93.16 0 .24-.37.1-.53.2-.16.11-.14.08-.4.08-.07 0-.03.12-.09.12-.2 0-.45-.06-.6-.02-.03.01-.04.14-.1.15l-.32.07c-.08.03.03.18-.08.21-.18.06-.38.02-.57.12-.07.05-.18 0-.27.02-.08.02-.11.1-.05.14.07.03.16.02.22.05.14.07.25.17.4.17 2.36.15 5.43-1.53 5.92-3.58.01-.08-.03-.06-.04-.02a3.62 3.62 0 0 1-1.84 1.75z"/></svg>