<svg xmlns="http://www.w3.org/2000/svg" viewBox="0 0 24 16"><path fill="#adafaa" d="M20 8A8 8 0 0 0 4 8a8 8 0 0 0 16 0z"/><path fill="#002654" d="M12 .1a7.9 7.9 0 0 0 0 15.8A7.9 7.9 0 0 0 12 .1z"/><path fill="#adafaa" d="M12 .86a7.15 7.15 0 1 0 .02 14.3A7.15 7.15 0 0 0 12 .85z"/><g fill="#002654"><path d="M18 13.93a.37.37 0 1 0 0 .75.37.37 0 0 0 0-.75zm0 .67a.3.3 0 1 1 0-.6.3.3 0 0 1 0 .6z"/><path d="M18.15 14.22a.13.13 0 0 0-.13-.13h-.18v.43h.08v-.18h.06l.08.18h.09l-.09-.18a.13.13 0 0 0 .09-.12zm-.13.04h-.1v-.1h.1c.03 0 .05.03.05.06 0 .02-.02.04-.05.04z"/></g><g fill="#002654"><path d="M12 10.11a51.82 51.82 0 0 0 4.95-4.27h-.03c-.6 0-.75-.7-.93-.7-.08.02-.36.1-.54.18.12.04.22 0 .36.09.17-.02.3.06.3.28 0 .21-.05.5-.45.5-.56 0-.57-.55-.95-.55-.12 0-.51.17-.85.17-.43 0-.7-.3-1.06-.3-.14 0-.17.12-.17.18 0 .16.2.22.2.4 0 .05-.03.11-.1.15.05.04.1.09.1.16a.2.2 0 0 1-.03.08c.08-.06.15-.1.23-.1.25 0 .37.43.37.6 0 .26-.26.28-.48.28-.2 0-.66.2-.85.2-.18 0-.46-.16-.5-.36-.07.1-.21.16-.39.16-.2 0-.57-.22-.8-.22-.16.02-.47 0-.47-.4l.01-.07c-.24.13-.59.02-.59.02-.42.21-.48-.02-.48-.11-.09.06-.2.2-.35.2-.24 0-.3-.25-.45-.38-.05-.06-.2-.12-.28-.2-.14-.14-.27-.37-.72-.73-.13-.1-.24-.47-.24-.8 0-.6.1-1.22 1.2-1.5 1.12-.28.9-1.72 3-1.72.6 0 1.08.11 1.58.3-.14-.08-.2-.15-.17-.25.02-.09.1-.26 1.82.21 1.04.29 1.86.56 1.78.84-.09.32-.7-.04-1.97-.38l-1.2-.33c.88.36 1.83.9 3.46 1.36.57.15.94.16.94.46 0 .07-.03.1-.06.14.32-.02.44.4-.26.4-.4 0-.69-.15-.69-.36 0-.1.06-.17.13-.22a2.97 2.97 0 0 0-.54-.1c.03.09.06.2.06.34 0 .27-.06.4-.09.55.12-.02.24-.08.34-.08.4 0 .17.6.67.65.2.04.19.18.19.18.18-.04.31-.02.31.35v.07c.46-.46.71-.74.72-.75a.2.2 0 0 1 .16-.07 7.04 7.04 0 0 0-12.38 0c.05 0 .11.02.16.07.03.03 2.34 2.58 6.03 5.38zm.56-2.4c2.1-.78 2.9-1.2 3.02-.9.1.29-1.02.89-2.75 1.53-1.03.38-1.22.17-1.27.02-.07-.18 0-.27 1-.65zm5.81-2.7c0 .19-.06.47-.3.72-.02.03-2.29 2.53-5.38 4.9l.55.39c0-.02 0-.05.02-.07.07-.11.27-.15.44-.04.28.17.28.43.23.72h.03c.07.02.12.06.16.13 0 0 .1-.01.17.12 0 0 .1 0 .18.12 0 0 .1-.01.17.12 0 0 .1 0 .18.12 0 0 .1 0 .17.13 0 0 .1-.01.18.12 0 0 .1-.01.17.12 0 0 .1-.01.18.12h.01c.12.02.2.12.22.27.16-.14.31-.23.52-.1.14.1.26.3.16.56a7.03 7.03 0 0 0 1.94-8.44zm-3.31 8.26s-.1 0-.18-.13c0 0-.09.02-.17-.12 0 0-.1.01-.18-.12 0 0-.1.01-.17-.12 0 0-.1.01-.18-.12 0 0-.1.01-.17-.12 0 0-.1.01-.18-.12h-.03c-.02.34.09.68.54.96.42.26.7.21.93.06a.28.28 0 0 1-.04-.05s-.09 0-.17-.12z"/><path d="M11.27 6.08c-.24 0-.33.18-.33.22 0 .04.03.1.04.15 0 0 .09-.1.2-.1.2 0 .37.34.43.52.02-.09.04-.2.04-.35 0-.27-.2-.44-.38-.44zM7.74 12.9c.2-.13.36-.04.51.1.02-.15.1-.25.22-.27h.01c.08-.14.18-.12.18-.12.08-.13.17-.12.17-.12.08-.14.18-.13.18-.13.08-.13.17-.12.17-.12.08-.13.18-.12.18-.12.08-.13.17-.12.17-.12.08-.13.18-.12.18-.12.08-.13.17-.12.17-.12.04-.07.1-.11.16-.12h.03c-.05-.3-.04-.56.23-.73.17-.11.37-.07.44.04a.2.2 0 0 1 .02.07l.55-.4a44.47 44.47 0 0 1-5.38-4.89c-.24-.25-.3-.53-.3-.71a7 7 0 0 0 1.94 8.44.46.46 0 0 1 .17-.56zm2.25-.36c-.08.13-.17.12-.17.12-.09.13-.18.12-.18.12-.08.13-.17.12-.17.12-.08.13-.18.12-.18.12-.08.14-.17.12-.17.12-.08.13-.18.12-.18.12-.08.14-.17.13-.17.13a.28.28 0 0 1-.04.05c.23.15.51.2.93-.06.45-.28.55-.62.54-.97l-.02.01h-.01c-.09.13-.18.12-.18.12z"/><path d="M13.98 13.83c-.82-.53-.82-1.26-.73-1.82L12 11.14l-1.25.87c.1.56.1 1.3-.73 1.82-1.02.64-1.64.02-1.84-.15a.48.48 0 0 1-.2.09 7 7 0 0 0 8.05 0 .5.5 0 0 1-.2-.09c-.21.17-.83.79-1.85.15zM9.95 5.7c-.13 0-.17.13-.17.17 0 .3.22.17.36.35.04-.12-.08-.17-.08-.3l.02-.1c0-.08-.07-.12-.13-.12z"/><path d="M12.8 5.43c.39 0 .66.3 1.06.3.34 0 .71-.17.85-.17.43 0 .42.55.95.55.26 0 .37-.12.37-.42 0-.2-.12-.2-.22-.2-.04 0-.1-.07-.22-.07-.14 0-.26-.06-.3-.1.11-.08.6-.25.7-.25.27 0 .33.7.93.7.15 0 .32-.05.32-.36 0-.23-.05-.3-.17-.29l-.17.03c.05-.09.03-.16-.1-.2-.56-.08-.34-.64-.66-.64-.11 0-.42.15-.42.04 0-.11.1-.3.1-.59 0-.2-.08-.42-.08-.42.28 0 .68.1.86.18-.11.02-.28.07-.28.22 0 .16.27.29.61.29.56 0 .5-.25.3-.25-.22 0-.3-.02-.33-.03.1-.04.28-.04.28-.19 0-.24-.33-.23-.89-.38-2.49-.69-3.56-1.75-5.27-1.75-2.08 0-1.8 1.42-3 1.72-1.04.26-1.13.83-1.13 1.43 0 .32.1.65.2.73.25.2.42.35.73.73.06.06.22.13.29.2.14.15.2.36.4.36.17 0 .29-.25.52-.31-.05.05-.1.12-.1.2 0 .16.2.12.4.02.45.12.61 0 .74-.15.02-.03.02-.08-.01-.1-.15-.14-.37-.06-.37-.4 0-.06.06-.24.25-.24.1 0 .25.1.2.26-.04.1.07.17.07.25 0 .3-.22.32-.22.5 0 .34.25.35.4.34.22 0 .62.22.79.22.21 0 .37-.1.37-.23 0-.1-.2-.53-.38-.53-.1 0-.16.12-.22.12-.04 0-.06-.02-.06-.02.05-.08-.03-.14-.03-.23 0-.07.13-.3.4-.3.23 0 .47.2.47.52 0 .28-.09.47-.09.54 0 .17.27.32.43.32.18 0 .62-.19.85-.19.25 0 .4-.04.4-.22 0-.15-.11-.52-.3-.52-.15 0-.38.36-.68.36a.37.37 0 0 1 .09-.12c.19-.1.32-.18.32-.29 0-.09-.13-.12-.2-.18.13-.01.2-.04.2-.14 0-.13-.2-.19-.2-.4 0-.12.08-.25.25-.25zm3.42 7.53c-.2-.13-.37.02-.56.22v-.03c.04-.18-.03-.33-.14-.35h-.04c-.06-.16-.18-.12-.18-.12-.06-.16-.17-.12-.17-.12-.07-.16-.18-.12-.18-.12-.05-.16-.17-.12-.17-.12-.07-.16-.18-.12-.18-.12-.06-.16-.17-.12-.17-.12-.06-.16-.18-.12-.18-.12-.06-.17-.17-.12-.17-.12-.03-.07-.08-.12-.14-.13-.04 0-.07 0-.1.03.06-.33.08-.6-.18-.77-.13-.09-.28-.06-.33.02-.06.1.06.17.1.23.18.22-.75 1.7.6 2.54 1.02.64 1.57-.02 1.79-.18.1.08.32.22.49-.04.13-.21.1-.46-.09-.58zm-.82.47c-.25.21-.58.34-1.1.02a1.1 1.1 0 0 1-.57-1.17c.03.04.06.06.1.07h.05c.06.15.17.11.17.11.06.16.18.12.18.12.06.16.17.12.17.12.06.16.18.13.18.13.06.16.17.12.17.12.06.16.18.12.18.12.05.16.17.12.17.12.06.16.18.12.18.12.02.06.07.11.12.12zm-5.43.33c1.34-.84.42-2.31.6-2.53.04-.06.16-.14.1-.24-.05-.08-.2-.1-.33-.02-.26.17-.24.44-.17.77a.16.16 0 0 0-.12-.03c-.06.01-.1.06-.13.13 0 0-.11-.04-.17.12 0 0-.12-.04-.18.12 0 0-.12-.04-.17.12 0 0-.12-.04-.18.12 0 0-.12-.03-.17.13 0 0-.12-.04-.18.12 0 0-.12-.04-.17.12 0 0-.12-.04-.18.12h-.04c-.12.01-.18.16-.15.35v.02c-.18-.2-.34-.35-.56-.21-.18.11-.21.36-.08.57.17.27.38.13.49.05.22.16.77.82 1.8.17zm.3-1.48c.04.4-.03.82-.57 1.17-.52.32-.85.2-1.1-.02.06-.01.1-.06.12-.12 0 0 .12.04.18-.12 0 0 .12.03.17-.12 0 0 .12.03.18-.13 0 0 .11.05.17-.12 0 0 .12.04.18-.12 0 0 .11.04.17-.12 0 0 .12.04.18-.12 0 0 .11.04.17-.12h.05c.04 0 .07-.03.1-.06z"/><path d="M11.44 10.63l-.88.63.13.7 1.31-.91 1.31.9.13-.7-.88-.62a44.48 44.48 0 0 0 5.46-4.95 1 1 0 0 0 .27-.84c-.01-.1-.12-.15-.2-.06-.03.03-2.37 2.61-6.09 5.43a47.92 47.92 0 0 1-6.09-5.43c-.08-.09-.19-.04-.2.06 0 .02-.09.47.27.84.03.03 2.33 2.57 5.46 4.95z"/><path d="M12.8 8.27c1.33-.5 2.79-1.2 2.7-1.43-.06-.2-1.1.27-2.9.94-.85.31-1.02.41-.97.56.04.1.2.29 1.18-.07zm3.15-5.84c.05-.2-.8-.49-1.73-.74-1.27-.35-1.73-.32-1.73-.26 0 .18.49.26 1.58.56 1.2.33 1.82.65 1.88.44z"/></g><g fill="#fcb514"><path d="M12 .2a7.8 7.8 0 1 0 0 15.6A7.8 7.8 0 0 0 12 .2zm0 15.04A7.24 7.24 0 1 1 12 .76a7.24 7.24 0 0 1 0 14.48z"/><path d="M13.85 12.27c.03 0 .06 0 .08-.03.02.2.14.17.18.12.02.2.13.17.17.12.02.2.14.17.18.12.02.2.13.17.17.12.02.2.14.17.18.12.02.2.13.17.17.12.02.2.14.17.18.13.02.2.13.16.17.12 0 .08.04.14.1.15.06.01.14-.08.16-.22s-.01-.25-.08-.26c-.03 0-.06 0-.09.03-.02-.2-.13-.17-.17-.12-.02-.2-.14-.17-.18-.12-.02-.2-.13-.17-.17-.12-.02-.2-.14-.17-.18-.12-.02-.2-.13-.17-.17-.12-.02-.2-.14-.17-.18-.13-.02-.2-.13-.17-.17-.12-.02-.2-.14-.17-.18-.12 0-.08-.04-.14-.09-.15-.07-.02-.14.08-.17.22-.02.13.02.25.09.26zm-5.27 1.09c.05 0 .08-.07.09-.15.04.04.15.07.17-.13.05.05.16.08.18-.12.04.05.15.08.18-.12.04.05.15.08.17-.12.04.05.15.08.18-.12.04.05.15.08.17-.12.04.05.15.07.18-.12.04.05.15.07.17-.12l.08.03c.07-.01.11-.13.09-.26-.02-.14-.1-.24-.17-.22-.05 0-.08.07-.1.15-.03-.05-.14-.07-.17.12-.04-.05-.15-.07-.17.12-.04-.04-.15-.07-.18.12-.04-.04-.15-.07-.17.13-.04-.05-.15-.08-.18.12-.04-.05-.15-.08-.17.12-.04-.05-.15-.08-.18.12-.04-.05-.15-.08-.17.12-.03-.03-.06-.04-.08-.03-.08 0-.11.13-.1.26.03.13.1.23.18.22z"/><path d="M16.18 13.03c-.44-.28-.73 1.23-1.92.48-1.3-.82-.02-2.09-.64-2.47-.1-.07-.2-.04-.23-.01-.02.04.05.08.1.15.23.29-.74 1.69.58 2.52 1.12.7 1.67-.26 1.76-.2.08.05.26.24.42 0 .13-.22.04-.4-.07-.47zm-5.67-1.85c.05-.07.12-.11.1-.15-.02-.03-.13-.06-.23 0-.62.4.67 1.66-.64 2.48-1.19.75-1.48-.76-1.92-.48-.1.07-.2.25-.06.47.15.24.33.05.4 0 .1-.06.65.9 1.78.2 1.31-.83.34-2.23.57-2.52z"/></g><g fill="#fff"><path d="M18.21 4.85c-.01-.08-.07-.02-.07-.02S15.8 7.43 12 10.3C8.2 7.44 5.86 4.83 5.86 4.83s-.06-.06-.07.02c0 0-.09.43.25.78 0 0 2.33 2.59 5.52 5l-.92.66.1.54c.43-.29.85-.58 1.26-.88.4.3.83.6 1.26.88l.1-.54-.92-.66c3.2-2.41 5.52-5 5.52-5 .34-.35.25-.78.25-.78z"/><path d="M7.14 5.25c.48.38.62.63.73.74.1.09.19.1.3.2.14.15.19.33.33.33.15 0 .31-.32.63-.32.22 0-.13.14-.13.28 0 .12.26-.04.32-.04.1 0 .47.16.69-.13-.1-.1-.4-.06-.4-.44 0-.11.1-.32.33-.32.19 0 .33.16.27.35-.02.06.08.13.08.23 0 .33-.22.36-.22.5 0 .3.2.27.3.26.27 0 .67.22.8.22.18 0 .3-.07.3-.15s-.19-.45-.3-.45c-.06 0-.12.11-.22.11s-.16-.06-.12-.13c.02-.03-.04-.1-.04-.2s.16-.36.48-.36c.26 0 .53.22.53.6 0 .3-.08.47-.08.53 0 .12.21.25.35.25s.65-.2.82-.2.35.02.35-.14-.1-.44-.21-.44-.37.36-.7.36c-.03 0-.08 0-.08-.06s.1-.18.14-.2.28-.14.28-.23c0-.04-.22-.1-.22-.2s.22-.02.22-.12c0-.08-.2-.16-.2-.4 0-.16.11-.33.33-.33.41 0 .67.31 1.06.31.33 0 .69-.17.85-.17.48 0 .47.54.94.54.23 0 .3-.08.3-.34 0-.15-.06-.13-.15-.13s-.1-.07-.22-.07c-.18 0-.38-.09-.38-.18 0-.1.68-.31.78-.31.35 0 .38.69.93.69.14 0 .25-.03.25-.28s-.04-.22-.09-.21-.26.06-.26 0c0-.08.1-.15-.03-.17-.59-.1-.41-.65-.64-.65-.11 0-.5.2-.5-.03 0-.13.1-.3.1-.6s-.18-.49-.01-.49c.38 0 1.03.2 1.03.28 0 .07-.37.03-.37.2 0 .1.21.21.54.21s.45-.1.29-.1-.4 0-.4-.11c0-.12.28-.07.28-.18 0-.18-.3-.16-.83-.31-2.66-.76-3.58-1.75-5.25-1.75-2.06 0-1.73 1.4-2.98 1.72-.98.25-1.08.76-1.08 1.36 0 .33.12.62.18.67zm.95.52c-.11 0-.09-.08-.09-.08.15-.19.07-.65.25-.65.1 0-.04.1-.04.22 0 .14.2.1.2.25 0 .1-.17.26-.32.26zm.42.65s-.08-.06-.08-.1c0-.1.16-.13.16-.1 0 .09-.08.2-.08.2zm.13-1.78c0 .07-.14.24-.22.24-.07 0-.18-.27-.18-.29s.03-.06.13-.06.27.05.27.11zm-.8-1.03c.4 0 .6.24.6.49s-.21.44-.45.44c-.15 0-.2-.13-.2-.2 0-.08.14-.16.14-.26 0-.13-.16-.22-.32-.22-.27 0-.45.23-.45.12 0-.14.27-.37.68-.37zm4.78 4.24c-.68.25-.95.36-.92.46.03.06.17.22 1.08-.12.92-.33 2.72-1.16 2.65-1.33-.03-.08-1.3.43-2.81 1zm1.47-5.93c1.12.3 1.76.59 1.79.49s-.86-.43-1.68-.65a8.92 8.92 0 0 0-1.64-.31c.09.08.42.16 1.53.47z"/></g><path fill="#cf0a2c" d="M8.21 5.47c-.03 0-.05.04-.05.06 0 .01.04.07.07.07.02 0 .04 0 .04-.02 0-.07 0-.11-.06-.11z"/></svg>