<svg xmlns="http://www.w3.org/2000/svg" viewBox="0 0 24 16"><path d="M14.9 5.9l-1.53-2.09-.5.23s-.33-.12-.9-.2l.35-.36v-.83h-.25c.44-.71-.26-1.46 1.02-2.33H9.8c-2.5.84-1.87 5.52-1.87 5.52l.47-.18s-.3.63-.17 1.1c0 0-.33.7.07 1.39l-.23.33L8.1 10c-.33.58-1.6.27-1.71.92-.05.28-.71.5-.71.5-.7 2.08 4.61 2.48 5.49 3.76A5 5 0 1 0 14.9 5.9z"/><path d="M10.02 2.43L9.77.85c-1.75.74-1.52 4.33-1.52 4.33l1.78-2.58h1.65c.28-.57-.06-1.46.56-1.85h-2.16l-.06 1.68zm-.55 10.75c.72.16 1.68.77 1.68.77-.07-.26-.27-.5-.27-.5a4.98 4.98 0 0 1-1.93-1.13L7.1 11.3s1.1 0 1-.8c-.48.34-1.4.2-1.4.58 0 .41.73.83 2.16 1.74l-2.2-1.01.13-.15-.16-.3c-.01.12-.57.12-.57.5 0 1.33 4.7 1.83 5.56 3.08.1-.65-1.18-1.27-2.16-1.77zm5.74-2.43s.47.41.47.55c0 .15-1 .73-1 .73.34-.46.61-.68.61-.88 0-.2-.35-.25-.45-.63-.36.58-.37.95-.37.95l.17 1.22-.48-.06c-1.01 1-.9 2.12-.9 2.12.64-1.84 2.79-1.87 2.79-3.6-.17-.13-.84-.4-.84-.4z" fill="#CE1126"/><path fill="#FFF" d="M13.25 10.81l.3-.14-.33-1.28.13-.4.9-.35.27.12-.04-.42s-.26-.24-.56-.24c-.29 0-.4.2-.8.7 0 0-.24-.61-1.18-.61-.8 0-1.75.37-1.75.37-.17.23-.15.71 1 .63l-.16.75.63.1s-.8 1.78-.36 2.21c.42.4.85.84 1 .84.6 0 .97-.15 1.04-.22.04-.04.06-.11.06-.2 0-.33-.33-.37-.59-.37-.56 0-.76.2-.76.2l.1-.37c.08-.26 1.2-.12 1.2-.12l-.02-.35-.23.03-.47-.07-1.11.03-.06-.04 1.33-.24.3.06.24-.06-.13-.12-.15.06-.03-.3-.79-.13.62-.22.4.15z"/><path fill="#FFF" d="M14.39 9.12l-.25.04c-.1.42-.4.25-.45.15l-.12.43.2.65.17.36-.3.24.23.25.08.18.32-1.06.26-.42c.05-.08-.21-.59-.21-.59l.07-.23zm-2.46 4.66l.71.48.19-.64-.62-.1z"/><path d="M17.46 14.47a.3.3 0 1 0 0 .6.3.3 0 0 0 0-.6zm0 .53a.23.23 0 1 1 0-.46.23.23 0 0 1 0 .46z"/><path d="M17.59 14.7a.1.1 0 0 0-.1-.1h-.15v.34h.07v-.14h.04l.07.14h.06l-.06-.15a.1.1 0 0 0 .07-.1zm-.1.04h-.08v-.08h.07c.03 0 .04.02.04.04s-.01.04-.04.04z"/><g fill="#BF910C"><path d="M14.63 8.02L13.2 7.2l-2.87.98s1.06-.28 1.85-.28c.85 0 1 .46 1 .46s.26-.47.66-.47c.48 0 .82.28.82.28l-.02-.15zm-3.08-4.15l.24-.26h-1.25l-1.04.85.92-1.09h1.52v-.44h-1.65l-1.48 2 .07.34s.82-1.4 2.67-1.4z"/><path d="M10.58 11.4c0-.97.24-1.98.24-1.98s-1.44.1-1.19-1.12c0 0-.31.26-.6.15 0 0 .55-.14.55-.73l.14.43 3.74-1.5 1.47 1.28-.03-.57c-.17.06-.52-.19-.52-.19l.05-.04s.24.12.46.03l-.04-.57-1.62-2.25-.37.14s-.79-.34-1.56-.34c-1.17 0-2.64 1.17-2.64 2.45l.8.06 2.14-1.6-2.16 2.12s-.2-.38-.47-.38c-.19 0-.48.23-.48.78 0 .44.22.65.22.65l-.26.34c.19 2.73-.12 3.01-.68 2.86l1.1.53c0-1.92-.07-2.5.11-2.5.31 0 .28 1.9.36 2.8 0 0 .79.91 2.36 1.06 0 0-1.12-.7-1.12-1.91zm3.56.4l-.18.5.28.04zm1.24-5.22V8.2a3.19 3.19 0 0 1-.93 5.48c-.52.85-.38 1.35-.31 1.5a4.57 4.57 0 0 0 1.24-8.6z"/></g><path d="M11.61 7.04l-.11-.07c-.76.14-.63-.11-.81-.11.07-.07 0-.21.2-.4l-.02-.03c-.47.28-.2.45-.52.62l.02.02c.38-.13.24.34 1.24-.03z"/><path d="M12.11 6.56l-.06-.03c-.55.26-.54.01-.65.04.05-.09-.1-.2.26-.56v-.03c-.65.42-.34.59-.54.79l.02.03c.22-.14.23.25.97-.24zm-1.48.82s-.07-.06-.14-.09c-.43.04-.37-.13-.52-.12.14-.1 0-.18.1-.29l-.02-.02c-.38.22-.15.36-.38.45l.01.03c.22-.07.2.28.95.04zm-1.39-.2c.23.55-.17.94-.33.94s-.26-.2-.26-.2.12.39.36.39.71-.59.23-1.14z"/><path d="M12.58 6.07l-.04-.01c-.43.23-.45.05-.52.07.05-.1-.14-.12.13-.47l-.01-.06c-.6.53-.17.54-.43.76l.03.01c.23-.19.19.2.84-.3zm-2.32-1.44c-1.45.72-1.4 1.72-1.4 1.72l.47.03.9-.59c-.64.18-1.66.1.03-1.16zm3.32 1.54c-.78.21-.85-.93-.63-1.17-.86.55.2 1.86.63 1.17zm.48.53l-.04.02c.45.49.46.15.61.29l.02-.04c-.12-.2.06-.37-.36-.8v.04c.23.3.13.46.2.59-.11-.05-.13.15-.43-.1z"/><path d="M14.21 6.56l.02-.03c-.13-.22.13-.27-.23-.78l-.01.06c.15.34.02.41.05.49-.05-.02-.11.1-.3-.13l-.04.01c.31.5.38.2.51.38zm3.04 4.5c-.06.27-.28.01-.4.66.1.02.18-.2.3-.17.13.02.13.26.23.28.12-.65-.18-.5-.13-.77z"/><circle cx="17.25" cy="10.68" r=".24"/><path d="M15.38 13.7c.07.07.27-.05.36.05.08.1-.07.28-.01.36.5-.42.17-.5.4-.68-.23.19-.24-.16-.75.26zm1.52-1.37c-.14.24-.27-.08-.6.5.08.04.23-.14.35-.07s.03.29.11.34c.34-.57 0-.53.14-.77z"/><path d="M15.88 13.3c.07.06.26-.09.35 0 .1.08-.02.28.06.35.43-.5.09-.52.27-.73-.18.21-.25-.13-.68.38zm.94-3.73c.14.64.36.38.42.66-.06-.28.25-.13.11-.78-.1.03-.09.26-.21.29-.13.03-.22-.2-.32-.17zm-.55-1.07c.34.57.47.25.61.5-.14-.25.2-.2-.14-.78-.08.05 0 .27-.11.34s-.27-.1-.36-.06z"/><path d="M16.6 9.01c.24.62.41.32.51.59-.1-.27.23-.17-.01-.78-.1.03-.05.26-.17.3-.12.06-.24-.14-.34-.1zm.53 2.68c-.1.27-.28-.03-.5.6.09.02.2-.18.33-.13.12.04.08.28.17.31.23-.62-.1-.52 0-.78zm-.57-3.25c-.18-.22.16-.23-.27-.74-.07.07.04.27-.06.36-.1.08-.28-.07-.35 0 .43.5.5.16.68.38zm-.52-.6c.16-.21-.61-.48-.61-.48s.45.68.6.47zm-1.27 6.18c.05.09.27.01.33.13s-.12.26-.07.35c.58-.32.27-.46.51-.59-.24.13-.19-.2-.77.11z"/><path d="M14.16 14.5s.82 0 .74-.24c-.08-.25-.74.23-.74.23zm-3.9-5.7l1.27.18c.05.21.38.41.6.1l.35.1-.28.21.54.07.2-.4-1.2-.5-1.47.24z"/></svg>