<svg xmlns="http://www.w3.org/2000/svg" viewBox="0 0 24 16"><path d="M18.21 4.49l-1.5 2.4.51-.23 1.6-2.6s-2.73.6-5.22.85l.18.28c1.7-.18 3.5-.51 4.44-.7z"/><path d="M18.46 10.85c-.21-.87-.25-1.03-.7-1.26l-.08-.1a15.55 15.55 0 0 0 1.46-3.54c0-.05-.03-.07-.06-.05-1.35.68-2.82 1.3-3.15 1.52l-.09.12a18.7 18.7 0 0 0-1.59-1.27c-1.5-2.95-3.81-5.03-5.3-5.78 0 .31 1.47 2.58 1.7 4.49-2.67-.18-6.05-.92-6.05-.92l2.91 4.7c-2.39.15-4.48.2-4.48.2 0 .17 2.66 1.45 6.6 2.34.87.2 1.5.16 1.93.16l-.24-.25c.58.35 1.1.7 1.57 1l-.4.01c-.94 0-1.66-.05-2.1-.08l-.42-.66a9.84 9.84 0 0 1-.43-.08l-.47-.11.6.96c-.56.4-2 1.61-3.03 3.3l.1.17s1-.06 1.84-.08c0 0 .38-1.09 1.73-2.34l1.4 2.27 1.7-2.75.33-.04.34.2a.39.39 0 0 0-.14.15s.1.07.1.2c0 0 .09.02.17-.01l.12-.2c.1.06.21.1.31.15 0 .09.02.16.02.16s.1.03.23-.08c.76.17 1.2.02 1.2.02.77.23 1.16-.02 1.16-.02.3.13.55.2 1.37.2.44 0 .59-.05.59-.13 0-.36-.38-1.82-.75-2.57z"/><path d="M18.68 10.58l.02.1s.25.17.43.22l.14-.1s-.08-.1-.06-.26c-.18-.12-.53.04-.53.04zm1.71-4.17l-.19.34.04.26c-.86 1.7-1.81 3.22-1.81 3.22l.11.3.14-.1h.1s.92-.87 2.08-3.14c0 0 .34.01.37-.26l.05-.58c-.43-.15-.89-.04-.89-.04z"/><path fill="#FFF" d="M14.12 12.08c-.31.1-.44.03-.44.03.06-.06.1-.18.1-.18-.27.07-.36 0-.36 0 .04-.03.09-.13.09-.13-.35 0-.55.06-.55.06.3.03.49.16.65.33l.47-.06.04-.05zm1.13 1.03l.36-.24c-.68.03-.94-.06-.94-.06.12-.12.27-.23.37-.32l-.22.02c0 .04-.04.07-.14.14l-.6.09c.05.06.1.11.18.17l.14-.05c0 .04 0 .1-.02.14.08.06.17.1.27.15a.52.52 0 0 1 .07-.2c.04 0 .06.1.08.14.05.07.11.08.13.14.28.07.65.09 1.13.03l.13-.1c-.7 0-.94-.05-.94-.05z"/><path fill="#FFF" d="M13.52 11.9s.15 0 .32-.05c0 0 .01.11-.07.22 0 0 .15 0 .45-.08l-.06.13.13-.01.2.02c.16 0 .18.03.2.22l.1.1c.11 0 .25-.02.39-.04 0 0-.16.21-.39.37 0 0 .64.06.97.02 0 0-.14.17-.34.27 0 0 .44.03.91.02l-.18.18s.58.13 1 .03c-1.5-.6-2.33-1.5-3.58-1.5l-.05.1zm-6.05 2.7l-.34.43s1-.15 1.6-.06l.16-.29c-.33-.16-1.42-.08-1.42-.08z"/><path fill="#FFF" d="M7.62 14.4l-.1.14s1.02-.08 1.4.1l.24-.37c-.33-.06-1.54.14-1.54.14zm.18-.21l-.12.14s1.23-.19 1.52-.12l.02-.03c-.3-.1-1.42 0-1.42 0zm.41-.48l-.35.41s1-.1 1.4.01l.41-.47c-.42-.07-1.46.05-1.46.05zm.54-.53l-.47.47s.87-.12 1.44-.05l.22-.25c-.21-.18-1.2-.17-1.2-.17z"/><path fill="#FFF" d="M8.84 13.1l-.03.02s.85-.02 1.18.19l.05-.05c-.27-.15-1.2-.16-1.2-.16zM9.3 12.69l-.4.35s.95.02 1.18.17l.35-.34c-.31-.18-1.12-.18-1.12-.18zm-.54 2.32l.02.08.13-.24-.01-.08zm.19-.31v.08l.24-.33-.02-.1zm.27-.42l.01.1.03-.03-.02-.1zm.06-.08l.03.1.38-.44-.01-.12zm.45-.51l.01.12.24-.26-.03-.11zm.26-.3l.03.12.05-.05-.02-.14zm.11-.12l.02.13.3-.3v-.15z"/><path d="M13.06 15.23a.33.33 0 1 0-.33.33c.18 0 .33-.14.33-.33zm-.6 0a.26.26 0 1 1 .53 0 .26.26 0 0 1-.52 0z"/><path d="M12.86 15.42l-.07-.16a.11.11 0 0 0-.04-.22h-.16v.38h.07v-.15h.05l.07.15h.08zm-.11-.22h-.09v-.08h.09c.02 0 .04.02.04.04s-.02.04-.04.04z"/><g fill="#EA7200"><path d="M14.1 13.26c.12-.15.2-.25.22-.32-.1.05-.24.07-.3.18l.08.14zm.6.1s.08 0 .15-.07c0 0-.08-.1-.12-.21-.05.13-.03.29-.03.29zm-.36-2.73c.07.5.18.7.18.7s.19.15.54.3c-.36-.67-.72-1-.72-1zm-3.87 2.2l.15-.08s.58.1 4.08-.27c-.08-.06-.12-.05-.12-.19 0-.04 0-.05-.07-.05l-.2-.02c-.11 0-.28.11-2 .11-1.36 0-2.32-.11-2.38-.11-.06 0-.19.11-.55.4 0 .01.72 0 1.1.2zm-1.78 2.2c-.53-.11-1.61.07-1.61.07l-.3.42 1.7-.08.21-.42zm11.7-8.08c-.57 1.02-1.19 2.38-1.86 3.21l.19-.12.04-.04-.03.11.08-.04-.12.22.11-.09s.58-.65 2.04-3.3c-.32-.04-.45.05-.45.05zm.06-.4l-.12.2s.29-.06.67-.03l.13-.2c-.41-.07-.68.04-.68.04z"/><path d="M18.64 10.18s-.05.05-.14.07l.07.15.05-.03-.02-.06.07-.14-.03.01zm.51.4c-.12-.07-.35.02-.35.02s.23.06.37.12c0 0-.03-.05-.02-.15zm-6.29 2.3l-.3.02c-.74.06-1.34.08-1.65.08h-.24l-.02.03-.07.06 1.14 1.8 1.25-2h-.1m3.7-5.9l.14-.08 1.5-2.4c-.94.19-2.72.52-4.43.7l.05.08.11.2c1.33-.15 2.68-.38 3.67-.57l-1.4 2.23.35-.17m-6.6 4.52a9.84 9.84 0 0 1-.42-.08l.45.7.1.02c.08 0 .18 0 .29.02l-.41-.66z"/></g><path d="M12.57 12.9c-.75.06-1.35.08-1.66.08h-.24l-.02.03 1.06 1.7 1.15-1.84-.3.03zm-2.48-.79l.3.03-.42-.66-.31-.06.43.7zm7.52-7.2l-1.4 2.23.35-.18 1.47-2.35c-.93.19-2.6.49-4.2.66l.11.2a49.7 49.7 0 0 0 3.67-.57zm-6.93.53c0-.1 0-.2-.02-.31-.91.1-1.46.31-1.67.41.32-.09.9-.12 1.69-.1zm6.96 4.23s-1.12-1.57-3.26-3.14c.18.37.35.76.5 1.16.03.06.02.1-.02.1-.47 0-2.13-.9-3.76-.74.85.8 1.69 1.93.87 1.52 0 0 .85.53 1.85 1.58.75 0 .9.13.94.23.08.2.2.56.7 1.13.22 0 .26-.01.34-.21 0 0 .06.25-.05.44 1.02.8 2.99 1.61 3.29 1.61.12 0-.13-1.1-.7-2.43-.19-.84-.29-1.07-.7-1.25zM8.38 8.7s.3.17.77.53c-.12-.2-.43-.42-.77-.63l-.74.06.06.09.68-.05zm4.37 1.3c-.12.64 0 1.15 0 1.15-.01-.22.15-.93.15-.93l-.15-.22zm-.37-.36c-.12.73.05 1.3.05 1.3-.04-.26.1-1.05.1-1.05l-.15-.25zM12 9.32c-.12.78.07 1.4.07 1.4-.04-.36.08-1.18.08-1.18l-.15-.22zm-.84-1.29S9.74 6.85 7.96 6.55c-.07 0-.2.27-.2.27s.2-.17.25-.17c1.52.3 3.16 1.38 3.16 1.38z" fill="#006D75"/><path fill="#FFF" d="M11.71 14.25l.86-1.35c-.75.06-1.34.08-1.66.08l.8 1.27z"/></svg>