<svg xmlns="http://www.w3.org/2000/svg" viewBox="0 0 24 16"><g fill="#111"><path d="M16.45 14.7a.36.36 0 1 0-.72 0 .36.36 0 1 0 .71 0zm-.64 0a.28.28 0 1 1 .56 0 .28.28 0 0 1-.57 0z"/><path d="M16.23 14.9l-.08-.17a.12.12 0 0 0-.04-.24h-.17v.42h.08v-.17h.05l.08.17h.08zm-.12-.24h-.1v-.09h.1c.03 0 .05.02.05.05 0 .02-.02.04-.05.04z"/></g><path fill="#006847" d="M5.92 12.45h-1.6L6.5 8.81 3 5.99h5.19l.55-.93h1.65L13.44 0l.52 5.08c.86.09 1.56.4 2.04.9h6.47l-6.14 3.3a5.32 5.32 0 0 1-1.74 2.1l.43 4.3L11 12.42l-.59.02L3.78 16l2.14-3.55z"/><path fill="#111" d="M6.52 12.11h-1.6l2.02-3.38-2.99-2.4h4.43l.56-.94h1.64l2.63-4.35.44 4.36c.97.04 1.73.36 2.2.92h5.29l-5.07 2.72a5.14 5.14 0 0 1-1.83 2.18l.37 3.69-3.5-2.82c-.26.02-.52.02-.79.02L4.7 15.13l1.82-3.02z"/><path fill="#FFF" d="M18.46 7H15.5c-.31-.59-1.03-.94-2.07-.94h-.39l-.3-2.95-1.78 2.95H9.32L8.76 7h-2.9L7.8 8.57l-1.7 2.86h2.8l-1.44.39-.93 1.55 3.62-1.94h.15c.36 0 .7-.01 1.01-.04l2.46 1.98-.22-2.06c-.66.07-1.3.01-1.6 0 1.73-.27 2.64-1.02 3.26-2.1.43-.73.55-1.39.4-1.91.25.3.38.6.43 1l2.4-1.32z"/><path fill="#8F8F8C" d="M13.56 11.32l.22 2.06-1.07-2.03c.26 0 .56 0 .85-.03m-.82-8.22l-.7 2.96h1l-.3-2.96zM8.3 7.76L5.85 7l1.97 1.58.48-.82zm1.5-.25h2.44c.7 0 1.11.13 1.22.48l1.02-.5c-.28-.64-1.07-.7-1.57-.7H10l-2.33 3.88 1.57-.76 1.17-1.92-.6-.49zM15.5 7l-1.02.5c.06.17.16.6-.1 1.21-.3.71-1.16 1.96-3.53 1.96H7.67l-1.57.77h2.81l-.36.1-2.01 1.84 3.62-1.94h.15c.36 0 .7-.02 1.01-.04l.64-.08c1.73-.27 2.64-1.03 3.26-2.1.43-.74.55-1.4.4-1.91 0 0-.04-.17-.12-.31m.35.65c.1.2.17.4.2.65l2.4-1.3-2.6.65z"/><path fill="#111" d="M12.23 7.5H9.8l.61.5-1.17 1.9h1.61c.54 0 1.16-.01 1.68-.32.65-.38 1.03-1.05.94-1.52-.07-.41-.5-.56-1.24-.56z"/></svg>