<svg baseProfile="basic" xmlns="http://www.w3.org/2000/svg" viewBox="0 0 24 16"><g fill="#024930"><path d="M14.54 14.04a.35.35 0 1 0 .06.7.35.35 0 0 0-.06-.7zm.05.62a.27.27 0 1 1-.05-.54.27.27 0 0 1 .05.54z"/><path d="M14.7 14.3a.12.12 0 0 0-.13-.11l-.16.01.03.4h.08l-.02-.17h.06l.08.15h.09l-.1-.17a.12.12 0 0 0 .07-.11zm-.11.05h-.1v-.08h.09c.02 0 .04 0 .05.03 0 .03-.02.05-.04.05z"/></g><path fill="#E2D6B5" d="M21.11 3.83l.73-.57s-2.9-.8-6.38-.59c0 0-.5-1.65-2.83-1.67a3.14 3.14 0 0 0-3.05 1.92c-3.29.7-5.8 2.37-5.8 2.37l.6.46c-1.54.8-3.13 2.1-3.13 2.1s.15.78 1.08 2.03c0 0 .63.5 2.3 1.14 0 0 .32-.08.48-.16.23.08.46.14.7.19-.01.2-.08.5.3.87l-.27.15s.34.86 2.26 1.33c.73-.17 4.07-.78 5.2 1.33l5.85-5.67-1.23-.01 4.6-4.83s-.76-.26-1.41-.39z"/><path fill="#024930" d="M21.4 4.46c-.7-.28-1.64-.48-1.64-.48l.59-.45c-3.17-.66-5.34-.47-5.34-.47s-.43-1.65-2.54-1.67C10.43 1.38 9.8 3.2 9.8 3.2 7 3.74 4.36 5.33 4.36 5.33l.63.49c-1.65.8-3.37 2.17-3.37 2.17.24.75.94 1.67.94 1.67.65.46 2.09 1.03 2.09 1.03.2-.04.43-.17.43-.17s.72.3 1.48.3c.28 0 .6-.03.6-.14 0-.19-.58-.25-.57-.46 0-.15.34-.37 1.65-.36.78 0 1.67.07 1.67.07-.64 0-1.91.15-1.92.45 0 .23.86.25.86.56 0 .46-.67.6-1.46.6-.7 0-1.04-.2-1.2-.2-.06 0-.1.02-.1.06 0 .17.31.5.57.6l-.34.19c.37.5 1.79.89 1.79.89 4.04-.85 5.27 1.17 5.27 1.17l4.77-4.87h-1.11l4.37-4.91z"/><path d="M14.35 3.6a1.85 1.85 0 0 1 .03.71c.85.1 1.7.27 2.52.54-.92.02-1.86.1-2.78.22a1.97 1.97 0 0 1-2.99.47c-1.9.36-3.23.73-3.23.73.94.05 1.47.28 1.47.28-2.43.47-4.7 1.39-5.44 1.7l.4.61-.36.45c.65.12 1.45.06 1.45.06l1.2-.73.95.29.29-.39h-.31l.63-1 .52 1h-.24l.16.35.65-.11.28-.35H9.3l.38-.57H9.4l.6-1 .49 1.04h-.23l.34.6h-.27l.54.99.55-.76h-.38l.57-.85h-.36l.82-1.38.7 1.41h-.3l.48.83h-.34l.46 1.03.79-1.28h-.43l.65-1.05h-.4l.87-1.74.9 1.83h-.33l.58.97h-.4l.44.95.74-1.1h-.4l.86-1.21h-.46l1.37-1.86.7 1.29 1.53-1.86a18.3 18.3 0 0 0-5.73-1.1zm-3.88.45l.01-.24a15.3 15.3 0 0 0-4.92 1.51s2.14-.73 4.92-1a2.13 2.13 0 0 1-.01-.27z" fill="#AF1E24"/><path d="M14.35 3.6c-1.3-.04-2.61.03-3.86.2a2.14 2.14 0 0 0 0 .51c1.21-.12 2.55-.15 3.9 0v-.24c0-.16 0-.31-.04-.46zm-1.93 2.43c.72 0 1.36-.39 1.7-.97-1.06.13-2.09.3-2.98.48.34.3.79.48 1.28.49zm.03-3.93c-1-.01-1.84.74-1.96 1.7 0 0 .98-.43 3.67-.68a1.96 1.96 0 0 0-1.71-1.02z" fill="#EDAA00"/><path fill="#FFF" d="M12.65 4.77c-2.56.07-4.87.7-4.87.7l-.05-.35-.24.4s-1.16.41-1.93.8C6.54 6 7.34 5.8 7.34 5.8l-.24.5.44-.38.3.17-.03-.37s2.59-.7 4.84-.94z"/></svg>